<svg width="45" height="45" viewBox="0 0 45 45" fill="none" xmlns="http://www.w3.org/2000/svg">
<g clip-path="url(#clip0_2122_4950)">
<path d="M44.5916 36.1541L30.9398 22.5023L44.5916 8.8504C44.8532 8.58561 44.9999 8.22839 44.9999 7.85618C44.9999 7.48397 44.8532 7.12675 44.5916 6.86196L38.1426 0.412899C38.0122 0.282026 37.8573 0.178184 37.6866 0.107329C37.516 0.0364737 37.3331 0 37.1484 0C36.9636 0 36.7807 0.0364737 36.6101 0.107329C36.4395 0.178184 36.2845 0.282026 36.1541 0.412899L22.5023 14.0648L8.8504 0.412899C8.58669 0.149268 8.22907 0.00116837 7.85618 0.00116837C7.48329 0.00116837 7.12567 0.149268 6.86196 0.412899L0.412899 6.86196C0.282026 6.99235 0.178184 7.14729 0.107329 7.31791C0.0364737 7.48852 0 7.67144 0 7.85618C0 8.04092 0.0364737 8.22384 0.107329 8.39446C0.178184 8.56507 0.282026 8.72001 0.412899 8.8504L14.0648 22.5023L0.412899 36.1541C0.149268 36.4179 0.00116837 36.7755 0.00116837 37.1484C0.00116837 37.5213 0.149268 37.8789 0.412899 38.1426L6.86196 44.5916C6.99235 44.7225 7.14729 44.8264 7.31791 44.8972C7.48852 44.9681 7.67144 45.0045 7.85618 45.0045C8.04092 45.0045 8.22384 44.9681 8.39446 44.8972C8.56507 44.8264 8.72001 44.7225 8.8504 44.5916L22.5023 30.9398L36.1541 44.5916C36.4179 44.8553 36.7755 45.0034 37.1484 45.0034C37.5213 45.0034 37.8789 44.8553 38.1426 44.5916L44.5916 38.1426C44.7225 38.0122 44.8264 37.8573 44.8972 37.6866C44.9681 37.516 45.0045 37.3331 45.0045 37.1484C45.0045 36.9636 44.9681 36.7807 44.8972 36.6101C44.8264 36.4395 44.7225 36.2845 44.5916 36.1541Z" fill="#0D0D0D"/>
</g>
<defs>
<clipPath id="clip0_2122_4950">
<rect width="45" height="45" fill="white"/>
</clipPath>
</defs>
</svg>
