<svg width="676" height="320" viewBox="0 0 676 320" fill="none" xmlns="http://www.w3.org/2000/svg">
<g clip-path="url(#clip0_1725_7678)">
<rect width="676" height="320" rx="30" fill="#FFD0C1"/>
<path d="M248.266 84.5975L256.069 68.6491L323.827 107.668L248.266 84.5975Z" fill="#011F37"/>
<path d="M293.881 81.9651L298.526 75.1522L324.601 102.497L293.881 81.9651Z" fill="#00F7FF"/>
<path d="M635.362 150.807L629.014 172.329L558.346 129.656L635.362 150.807Z" fill="#011F37"/>
<path d="M590.397 159.447L586.34 168.892L558.098 136.376L590.397 159.447Z" fill="#00F7FF"/>
<path d="M584.792 120.984H359.285L307.166 61H532.797L584.792 120.984Z" fill="#011F37"/>
<path d="M579.156 181H376.472L324.354 120.985H527.13L579.156 181Z" fill="#00F7FF"/>
<path d="M407.749 167.9C405.768 167.956 403.8 167.567 401.989 166.764C400.178 165.96 398.569 164.761 397.281 163.255C394.486 159.835 393.062 155.497 393.287 151.085C393.087 146.481 394.536 141.957 397.374 138.326C398.686 136.736 400.345 135.467 402.225 134.619C404.104 133.771 406.152 133.365 408.213 133.433C410.17 133.384 412.114 133.775 413.899 134.58C415.684 135.384 417.266 136.58 418.525 138.079C421.081 141.712 422.437 146.053 422.404 150.495C422.37 154.937 420.949 159.258 418.34 162.853C417.105 164.478 415.499 165.785 413.657 166.663C411.815 167.541 409.789 167.965 407.749 167.9ZM408.058 140.03C406.94 140.018 405.838 140.297 404.861 140.84C403.884 141.383 403.064 142.171 402.484 143.126C401.125 145.48 400.41 148.15 400.41 150.868C400.41 153.586 401.125 156.256 402.484 158.61C403.098 159.485 403.914 160.2 404.863 160.693C405.812 161.187 406.865 161.444 407.934 161.444C409.004 161.444 410.057 161.187 411.006 160.693C411.955 160.2 412.771 159.485 413.385 158.61C414.879 156.316 415.596 153.601 415.429 150.868C415.563 148.053 414.886 145.258 413.478 142.817C412.902 141.907 412.1 141.163 411.15 140.658C410.199 140.153 409.134 139.904 408.058 139.937V140.03Z" fill="white"/>
<path d="M442.897 140.184H432.523V148.391H442.185V154.584H432.523V167.436H425.803V134.146H442.99V140.339L442.897 140.184Z" fill="white"/>
<path d="M463.491 140.184H452.962V148.391H462.624V154.584H452.962V167.436H446.242V134.146H463.398V140.339L463.491 140.184Z" fill="white"/>
<path d="M484.394 167.436H466.588V134.084H483.775V140.277H473.308V147.709H483.063V153.903H473.308V161.242H484.456V167.436H484.394Z" fill="white"/>
<path d="M512.421 167.436H504.679L500.034 158.827C499.74 158.233 499.398 157.663 499.012 157.124C498.76 156.652 498.448 156.215 498.083 155.823C497.8 155.484 497.466 155.192 497.092 154.956C496.734 154.75 496.328 154.643 495.915 154.646H494.15V167.436H487.492V134.084H498.083C505.309 134.084 508.922 137.098 508.922 143.126C508.925 144.174 508.779 145.217 508.488 146.223C508.177 147.161 507.728 148.048 507.157 148.855C505.938 150.457 504.232 151.62 502.295 152.169C502.769 152.351 503.209 152.613 503.595 152.943C503.967 153.315 504.431 153.717 504.834 154.182C505.23 154.64 505.592 155.127 505.918 155.637C506.228 156.195 506.599 156.721 506.847 157.185L512.421 167.436ZM494.15 139.565V148.855H497.247C497.899 148.891 498.551 148.781 499.156 148.535C499.761 148.289 500.304 147.911 500.746 147.431C501.607 146.483 502.072 145.242 502.047 143.962C502.047 140.866 500.499 139.627 497.402 139.627H494.305L494.15 139.565Z" fill="white"/>
<path d="M407.749 167.9C405.768 167.956 403.8 167.567 401.989 166.764C400.178 165.96 398.569 164.761 397.281 163.255C394.486 159.835 393.062 155.497 393.287 151.085C393.087 146.481 394.536 141.957 397.374 138.326C398.686 136.736 400.345 135.467 402.225 134.619C404.104 133.771 406.152 133.365 408.213 133.433C410.17 133.384 412.114 133.775 413.899 134.58C415.684 135.384 417.266 136.58 418.525 138.079C421.081 141.712 422.437 146.053 422.404 150.495C422.37 154.937 420.949 159.258 418.34 162.853C417.105 164.478 415.499 165.785 413.657 166.663C411.815 167.541 409.789 167.965 407.749 167.9ZM408.058 140.03C406.94 140.018 405.838 140.297 404.861 140.84C403.884 141.383 403.064 142.171 402.484 143.126C401.125 145.48 400.41 148.15 400.41 150.868C400.41 153.586 401.125 156.256 402.484 158.61C403.098 159.485 403.914 160.2 404.863 160.693C405.812 161.187 406.865 161.444 407.934 161.444C409.004 161.444 410.057 161.187 411.006 160.693C411.955 160.2 412.771 159.485 413.385 158.61C414.879 156.316 415.596 153.601 415.429 150.868C415.563 148.053 414.886 145.258 413.478 142.817C412.902 141.907 412.1 141.163 411.15 140.658C410.199 140.153 409.134 139.904 408.058 139.937V140.03Z" fill="#011F37"/>
<path d="M442.897 140.184H432.523V148.391H442.185V154.584H432.523V167.436H425.803V134.146H442.99V140.339L442.897 140.184Z" fill="#011F37"/>
<path d="M463.491 140.184H452.962V148.391H462.624V154.584H452.962V167.436H446.242V134.146H463.398V140.339L463.491 140.184Z" fill="#011F37"/>
<path d="M484.394 167.436H466.588V134.084H483.775V140.277H473.308V147.709H483.063V153.903H473.308V161.242H484.456V167.436H484.394Z" fill="#011F37"/>
<path d="M512.421 167.436H504.679L500.034 158.827C499.74 158.233 499.398 157.663 499.012 157.124C498.76 156.652 498.448 156.215 498.083 155.823C497.8 155.484 497.466 155.192 497.092 154.956C496.734 154.75 496.328 154.643 495.915 154.646H494.15V167.436H487.492V134.084H498.083C505.309 134.084 508.922 137.098 508.922 143.126C508.925 144.174 508.779 145.217 508.488 146.223C508.177 147.161 507.728 148.048 507.157 148.855C505.938 150.457 504.232 151.62 502.295 152.169C502.769 152.351 503.209 152.613 503.595 152.943C503.967 153.315 504.431 153.717 504.834 154.182C505.23 154.64 505.592 155.127 505.918 155.637C506.228 156.195 506.599 156.721 506.847 157.185L512.421 167.436ZM494.15 139.565V148.855H497.247C497.899 148.891 498.551 148.781 499.156 148.535C499.761 148.289 500.304 147.911 500.746 147.431C501.607 146.483 502.072 145.242 502.047 143.962C502.047 140.866 500.499 139.627 497.402 139.627H494.305L494.15 139.565Z" fill="#011F37"/>
<path d="M407.749 167.9C405.768 167.956 403.8 167.567 401.989 166.764C400.178 165.96 398.569 164.761 397.281 163.255C394.486 159.835 393.062 155.497 393.287 151.085C393.087 146.481 394.536 141.957 397.374 138.326C398.686 136.736 400.345 135.467 402.225 134.619C404.104 133.771 406.152 133.365 408.213 133.433C410.17 133.384 412.114 133.775 413.899 134.58C415.684 135.384 417.266 136.58 418.525 138.079C421.081 141.712 422.437 146.053 422.404 150.495C422.37 154.937 420.949 159.258 418.34 162.853C417.105 164.478 415.499 165.785 413.657 166.663C411.815 167.541 409.789 167.965 407.749 167.9ZM408.058 140.03C406.94 140.018 405.838 140.297 404.861 140.84C403.884 141.383 403.064 142.171 402.484 143.126C401.125 145.48 400.41 148.15 400.41 150.868C400.41 153.586 401.125 156.256 402.484 158.61C403.098 159.485 403.914 160.2 404.863 160.693C405.812 161.187 406.865 161.444 407.934 161.444C409.004 161.444 410.057 161.187 411.006 160.693C411.955 160.2 412.771 159.485 413.385 158.61C414.879 156.316 415.596 153.601 415.429 150.868C415.563 148.053 414.886 145.258 413.478 142.817C412.902 141.907 412.1 141.163 411.15 140.658C410.199 140.153 409.134 139.904 408.058 139.937V140.03Z" fill="#011F37"/>
<path d="M442.897 140.184H432.523V148.391H442.185V154.584H432.523V167.436H425.803V134.146H442.99V140.339L442.897 140.184Z" fill="#011F37"/>
<path d="M463.491 140.184H452.962V148.391H462.624V154.584H452.962V167.436H446.242V134.146H463.398V140.339L463.491 140.184Z" fill="#011F37"/>
<path d="M484.394 167.436H466.588V134.084H483.775V140.277H473.308V147.709H483.063V153.903H473.308V161.242H484.456V167.436H484.394Z" fill="#011F37"/>
<path d="M512.421 167.436H504.679L500.034 158.827C499.74 158.233 499.398 157.663 499.012 157.124C498.76 156.652 498.448 156.215 498.083 155.823C497.8 155.484 497.466 155.192 497.092 154.956C496.734 154.75 496.328 154.643 495.915 154.646H494.15V167.436H487.492V134.084H498.083C505.309 134.084 508.922 137.098 508.922 143.126C508.925 144.174 508.779 145.217 508.488 146.223C508.177 147.161 507.728 148.048 507.157 148.855C505.938 150.457 504.232 151.62 502.295 152.169C502.769 152.351 503.209 152.613 503.595 152.943C503.967 153.315 504.431 153.717 504.834 154.182C505.23 154.64 505.592 155.127 505.918 155.637C506.228 156.195 506.599 156.721 506.847 157.185L512.421 167.436ZM494.15 139.565V148.855H497.247C497.899 148.891 498.551 148.781 499.156 148.535C499.761 148.289 500.304 147.911 500.746 147.431C501.607 146.483 502.072 145.242 502.047 143.962C502.047 140.866 500.499 139.627 497.402 139.627H494.305L494.15 139.565Z" fill="#011F37"/>
<path d="M407.749 167.9C405.768 167.956 403.8 167.567 401.989 166.764C400.178 165.96 398.569 164.761 397.281 163.255C394.486 159.835 393.062 155.497 393.287 151.085C393.087 146.481 394.536 141.957 397.374 138.326C398.686 136.736 400.345 135.467 402.225 134.619C404.104 133.771 406.152 133.365 408.213 133.433C410.17 133.384 412.114 133.775 413.899 134.58C415.684 135.384 417.266 136.58 418.525 138.079C421.081 141.712 422.437 146.053 422.404 150.495C422.37 154.937 420.949 159.258 418.34 162.853C417.105 164.478 415.499 165.785 413.657 166.663C411.815 167.541 409.789 167.965 407.749 167.9ZM408.058 140.03C406.94 140.018 405.838 140.297 404.861 140.84C403.884 141.383 403.064 142.171 402.484 143.126C401.125 145.48 400.41 148.15 400.41 150.868C400.41 153.586 401.125 156.256 402.484 158.61C403.098 159.485 403.914 160.2 404.863 160.693C405.812 161.187 406.865 161.444 407.934 161.444C409.004 161.444 410.057 161.187 411.006 160.693C411.955 160.2 412.771 159.485 413.385 158.61C414.879 156.316 415.596 153.601 415.429 150.868C415.563 148.053 414.886 145.258 413.478 142.817C412.902 141.907 412.1 141.163 411.15 140.658C410.199 140.153 409.134 139.904 408.058 139.937V140.03Z" fill="#011F37"/>
<path d="M442.897 140.184H432.523V148.391H442.185V154.584H432.523V167.436H425.803V134.146H442.99V140.339L442.897 140.184Z" fill="#011F37"/>
<path d="M463.491 140.184H452.962V148.391H462.624V154.584H452.962V167.436H446.242V134.146H463.398V140.339L463.491 140.184Z" fill="#011F37"/>
<path d="M484.394 167.436H466.588V134.084H483.775V140.277H473.308V147.709H483.063V153.903H473.308V161.242H484.456V167.436H484.394Z" fill="#011F37"/>
<path d="M512.421 167.436H504.679L500.034 158.827C499.74 158.233 499.398 157.663 499.012 157.124C498.76 156.652 498.448 156.215 498.083 155.823C497.8 155.484 497.466 155.192 497.092 154.956C496.734 154.75 496.328 154.643 495.915 154.646H494.15V167.436H487.492V134.084H498.083C505.309 134.084 508.922 137.098 508.922 143.126C508.925 144.174 508.779 145.217 508.488 146.223C508.177 147.161 507.728 148.048 507.157 148.855C505.938 150.457 504.232 151.62 502.295 152.169C502.769 152.351 503.209 152.613 503.595 152.943C503.967 153.315 504.431 153.717 504.834 154.182C505.23 154.64 505.592 155.127 505.918 155.637C506.228 156.195 506.599 156.721 506.847 157.185L512.421 167.436ZM494.15 139.565V148.855H497.247C497.899 148.891 498.551 148.781 499.156 148.535C499.761 148.289 500.304 147.911 500.746 147.431C501.607 146.483 502.072 145.242 502.047 143.962C502.047 140.866 500.499 139.627 497.402 139.627H494.305L494.15 139.565Z" fill="#011F37"/>
<path d="M380.188 105.965V101.413C380.679 101.882 381.219 102.297 381.798 102.652C382.423 103.011 383.075 103.322 383.749 103.581L385.824 104.2C386.467 104.328 387.119 104.401 387.775 104.417C389.397 104.525 391.007 104.065 392.327 103.116C392.855 102.637 393.27 102.047 393.543 101.389C393.816 100.73 393.94 100.019 393.906 99.3072C393.907 98.5067 393.738 97.7151 393.411 96.9846C393.061 96.305 392.589 95.6961 392.017 95.1884C391.367 94.6186 390.674 94.1009 389.942 93.6401L387.31 92.0917C386.335 91.5795 385.403 90.9892 384.523 90.3265C383.71 89.7594 382.953 89.1166 382.262 88.4065C381.644 87.6892 381.152 86.8725 380.807 85.991C380.411 85.0078 380.221 83.9538 380.249 82.8943C380.24 81.5647 380.537 80.2509 381.116 79.0543C381.64 77.9861 382.403 77.0534 383.346 76.3291C384.288 75.6269 385.333 75.0733 386.443 74.6878C387.618 74.3338 388.839 74.1564 390.066 74.1614C392.198 74.0129 394.331 74.4183 396.26 75.3382V79.6427C394.4 78.2705 392.128 77.5716 389.818 77.6607C389.1 77.6561 388.384 77.7288 387.682 77.8775C386.977 78.025 386.312 78.3206 385.731 78.7446C385.167 79.1621 384.693 79.6887 384.337 80.293C383.933 80.9971 383.75 81.8061 383.811 82.6156C383.792 83.3454 383.918 84.0717 384.182 84.7523C384.464 85.3908 384.851 85.9771 385.328 86.4865C385.939 87.023 386.591 87.5098 387.279 87.942C388.053 88.4065 388.889 88.933 389.911 89.4904C390.909 90.0332 391.862 90.6545 392.76 91.3485C393.677 91.936 394.493 92.6681 395.176 93.5162C395.833 94.2862 396.385 95.1401 396.817 96.0555C397.265 97.2394 397.474 98.5004 397.432 99.7655C397.389 101.031 397.096 102.275 396.569 103.426C396.054 104.5 395.277 105.426 394.309 106.12C393.392 106.841 392.338 107.367 391.212 107.668C389.978 107.985 388.708 108.141 387.434 108.133C386.888 108.173 386.339 108.173 385.793 108.133C385.114 108.054 384.442 107.93 383.78 107.761C383.117 107.597 382.465 107.39 381.829 107.142C381.255 106.789 380.706 106.395 380.188 105.965Z" fill="white"/>
<path d="M406.263 94.9101V107.297H402.949V74.5333H410.846C412.13 74.4467 413.417 74.6277 414.627 75.0649C415.838 75.502 416.944 76.1857 417.876 77.0727C418.741 78.0483 419.405 79.1851 419.83 80.418C420.256 81.6509 420.433 82.9555 420.353 84.2572C420.468 87.0837 419.467 89.8422 417.566 91.9372C416.62 92.9706 415.458 93.7835 414.163 94.3186C412.868 94.8537 411.471 95.0979 410.072 95.0339H406.418L406.263 94.9101ZM406.263 77.9398V91.4107H409.762C410.72 91.4769 411.681 91.3463 412.587 91.0267C413.492 90.7071 414.323 90.2055 415.027 89.5526C415.652 88.8654 416.132 88.058 416.435 87.1795C416.739 86.301 416.86 85.3699 416.792 84.443C416.907 83.5508 416.813 82.644 416.519 81.794C416.225 80.9439 415.737 80.1736 415.095 79.5435C414.453 78.9134 413.674 78.4407 412.818 78.1625C411.963 77.8842 411.055 77.808 410.165 77.9398H406.263Z" fill="white"/>
<path d="M440.574 107.297H425.555V74.5335H439.893V77.94H428.806V88.8406H439.026V92.34H428.806V103.798H440.512V107.297H440.574Z" fill="white"/>
<path d="M465.287 105.872C462.914 107.255 460.196 107.931 457.452 107.823C455.598 107.887 453.754 107.514 452.07 106.734C450.386 105.954 448.91 104.789 447.759 103.333C445.236 99.9192 443.957 95.7444 444.136 91.5031C443.91 86.9095 445.375 82.3922 448.255 78.8063C449.496 77.2614 451.072 76.0184 452.864 75.1708C454.656 74.3233 456.616 73.8934 458.598 73.9134C460.9 73.8418 463.188 74.2973 465.287 75.2451V79.3328C463.281 78.0242 460.931 77.3449 458.536 77.3818C457.012 77.344 455.501 77.6698 454.127 78.3322C452.754 78.9946 451.559 79.9745 450.639 81.1908C448.484 84.0915 447.391 87.6447 447.543 91.2554C447.325 94.6726 448.336 98.0551 450.392 100.793C451.276 101.913 452.407 102.814 453.696 103.426C454.984 104.038 456.397 104.346 457.824 104.324C460.448 104.401 463.029 103.641 465.194 102.156V105.872H465.287Z" fill="white"/>
<path d="M477.117 74.5335V77.8471H474.33V103.953H477.117V107.297H468.291V103.953H471.078V77.6303H468.291V74.5335H477.117Z" fill="white"/>
<path d="M503.748 107.297H500.032L496.935 98.0069H485.167L482.38 107.297H478.664L489.503 74.4715H492.909L503.748 107.297ZM496.006 94.6005L491.516 80.7269C491.302 80.0182 491.147 79.2932 491.051 78.5592C491.051 79.4882 490.711 80.1695 490.587 80.7269L486.158 94.7553L496.006 94.6005Z" fill="white"/>
<path d="M522.577 107.297H507.836V74.5335H511.181V103.86H522.577V107.297Z" fill="white"/>
<path d="M63.9713 204.083C63.9713 208.576 61.2826 211.276 56.744 211.276C51.9067 211.276 48.8962 207.99 48.8962 202.647C48.8962 197.384 51.8952 194.144 56.6866 194.144C60.4554 194.144 63.3049 196.373 63.845 199.694H60.8345C60.2715 197.786 58.7318 196.66 56.6981 196.66C53.7106 196.66 51.9296 198.878 51.9296 202.612C51.9296 206.427 53.7911 208.759 56.7785 208.759C59.2834 208.759 61.0184 207.174 61.0643 204.853L61.0758 204.577H57.0772V202.313H63.9713V204.083ZM70.6536 200.785C69.045 200.785 67.8844 202.015 67.7695 203.715H73.4572C73.3997 201.992 72.2967 200.785 70.6536 200.785ZM73.4687 207.358H76.1459C75.7782 209.656 73.641 211.241 70.757 211.241C67.1031 211.241 64.897 208.84 64.897 204.956C64.897 201.107 67.1261 198.568 70.6421 198.568C74.1006 198.568 76.2608 200.969 76.2608 204.669V205.6H67.7466V205.772C67.7466 207.725 68.9415 209.035 70.8144 209.035C72.1473 209.035 73.1584 208.369 73.4687 207.358ZM78.1976 195.971H81.0586V198.82H83.3567V201.027H81.0586V207.358C81.0586 208.357 81.5182 208.817 82.5294 208.817C82.7936 208.817 83.1613 208.794 83.3452 208.759V210.943C83.0349 211.011 82.4719 211.057 81.8629 211.057C79.2317 211.057 78.1976 210.127 78.1976 207.76V201.027H76.4511V198.82H78.1976V195.971ZM89.4019 195.971H92.2629V198.82H94.561V201.027H92.2629V207.358C92.2629 208.357 92.7225 208.817 93.7337 208.817C93.9979 208.817 94.3656 208.794 94.5495 208.759V210.943C94.2392 211.011 93.6762 211.057 93.0672 211.057C90.436 211.057 89.4019 210.127 89.4019 207.76V201.027H87.6554V198.82H89.4019V195.971ZM95.8888 211V194.42H98.7154V200.912H98.7728C99.4277 199.429 100.772 198.591 102.622 198.591C105.311 198.591 106.885 200.36 106.885 203.152V211H104.024V203.738C104.024 202.038 103.174 201.015 101.519 201.015C99.7954 201.015 98.7498 202.21 98.7498 204.002V211H95.8888ZM108.546 211V198.82H111.407V211H108.546ZM109.971 197.223C109.086 197.223 108.385 196.534 108.385 195.672C108.385 194.799 109.086 194.109 109.971 194.109C110.867 194.109 111.568 194.799 111.568 195.672C111.568 196.534 110.867 197.223 109.971 197.223ZM112.884 202.313C112.884 200.084 114.849 198.568 117.813 198.568C120.674 198.568 122.616 200.107 122.685 202.359H120.02C119.928 201.314 119.089 200.67 117.756 200.67C116.492 200.67 115.665 201.268 115.665 202.153C115.665 202.842 116.216 203.302 117.411 203.589L119.583 204.071C122.019 204.646 122.973 205.588 122.973 207.392C122.973 209.69 120.847 211.241 117.767 211.241C114.711 211.241 112.769 209.725 112.574 207.415H115.389C115.561 208.53 116.423 209.15 117.871 209.15C119.261 209.15 120.123 208.587 120.123 207.679C120.123 206.967 119.675 206.588 118.491 206.289L116.274 205.772C114.022 205.243 112.884 204.071 112.884 202.313ZM133.487 211.241C129.914 211.241 127.593 208.863 127.593 204.91C127.593 200.981 129.937 198.568 133.487 198.568C137.038 198.568 139.382 200.969 139.382 204.91C139.382 208.863 137.061 211.241 133.487 211.241ZM133.487 208.978C135.303 208.978 136.475 207.507 136.475 204.91C136.475 202.325 135.303 200.843 133.487 200.843C131.683 200.843 130.5 202.325 130.5 204.91C130.5 207.507 131.672 208.978 133.487 208.978ZM141.307 211V201.027H139.641V198.855H141.307V197.775C141.307 195.408 142.433 194.293 145.076 194.293C145.639 194.293 146.259 194.351 146.616 194.42V196.419C146.374 196.384 146.041 196.35 145.708 196.35C144.616 196.35 144.122 196.867 144.122 197.855V198.855H146.558V201.027H144.168V211H141.307ZM148.529 211V201.027H146.863V198.855H148.529V197.775C148.529 195.408 149.655 194.293 152.298 194.293C152.861 194.293 153.482 194.351 153.838 194.42V196.419C153.597 196.384 153.263 196.35 152.93 196.35C151.839 196.35 151.345 196.867 151.345 197.855V198.855H153.78V201.027H151.39V211H148.529ZM159.773 200.785C158.165 200.785 157.004 202.015 156.889 203.715H162.577C162.519 201.992 161.416 200.785 159.773 200.785ZM162.588 207.358H165.266C164.898 209.656 162.761 211.241 159.877 211.241C156.223 211.241 154.017 208.84 154.017 204.956C154.017 201.107 156.246 198.568 159.762 198.568C163.22 198.568 165.38 200.969 165.38 204.669V205.6H156.866V205.772C156.866 207.725 158.061 209.035 159.934 209.035C161.267 209.035 162.278 208.369 162.588 207.358ZM166.524 211V198.82H169.271V200.946H169.328C169.742 199.464 170.81 198.614 172.247 198.614C172.614 198.614 172.936 198.683 173.143 198.728V201.314C172.901 201.222 172.465 201.153 171.982 201.153C170.362 201.153 169.385 202.199 169.385 203.911V211H166.524ZM178.705 211V201.027H177.039V198.855H178.705V197.775C178.705 195.408 179.831 194.293 182.474 194.293C183.037 194.293 183.658 194.351 184.014 194.42V196.419C183.773 196.384 183.439 196.35 183.106 196.35C182.015 196.35 181.52 196.867 181.52 197.855V198.855H183.956V201.027H181.566V211H178.705ZM190.087 211.241C186.514 211.241 184.193 208.863 184.193 204.91C184.193 200.981 186.537 198.568 190.087 198.568C193.638 198.568 195.982 200.969 195.982 204.91C195.982 208.863 193.661 211.241 190.087 211.241ZM190.087 208.978C191.903 208.978 193.075 207.507 193.075 204.91C193.075 202.325 191.903 200.843 190.087 200.843C188.283 200.843 187.1 202.325 187.1 204.91C187.1 207.507 188.272 208.978 190.087 208.978ZM197.114 211V198.82H199.86V200.946H199.918C200.331 199.464 201.4 198.614 202.836 198.614C203.204 198.614 203.526 198.683 203.732 198.728V201.314C203.491 201.222 203.054 201.153 202.572 201.153C200.952 201.153 199.975 202.199 199.975 203.911V211H197.114Z" fill="#3F4254"/>
<path d="M70.9136 280.164H66.7193V276.213C57.6621 275.635 52.0089 270.864 51.9786 263.691H59.3945C59.6681 267.156 62.4339 269.617 66.7193 270.104V256.822L63.8016 256.092C56.7807 254.39 52.9511 250.257 52.9511 244.178C52.9511 237.005 58.118 232.325 66.7193 231.565V227.371H70.9136V231.565C79.1198 232.294 84.4083 237.188 84.5602 244.026H77.2962C77.2051 240.804 74.6216 238.251 70.9136 237.765V250.378L73.9226 251.017C81.5817 252.84 85.3505 256.731 85.3505 263.144C85.3505 270.712 80.0924 275.423 70.9136 276.152V280.164ZM77.9649 263.934C77.9649 260.591 75.7462 258.585 70.9136 257.612V270.164C75.3814 269.891 77.9649 267.581 77.9649 263.934ZM60.4279 243.57C60.4279 246.61 62.6162 248.646 66.7193 249.497V237.735C63.0721 237.947 60.4279 240.349 60.4279 243.57ZM106.734 276.912C100.351 276.912 95.1542 273.812 92.206 268.189C90.1393 264.602 89.0755 260.013 89.0755 254.573C89.0755 239.953 95.8532 231.231 106.977 231.231C115.001 231.231 121.232 236.002 122.539 243.084H114.758C113.755 239.771 110.685 237.613 106.916 237.613C100.351 237.613 96.4915 243.692 96.5523 254.269H96.7042C98.5582 249.983 103.056 247.126 108.588 247.126C116.916 247.126 123.116 253.266 123.116 261.594C123.116 270.499 116.247 276.912 106.734 276.912ZM106.673 270.499C111.536 270.499 115.396 266.669 115.396 261.837C115.396 256.883 111.749 253.266 106.734 253.266C101.689 253.266 97.9504 256.883 97.9504 261.746C97.9504 266.639 101.78 270.499 106.673 270.499ZM143.405 276.881C132.646 276.881 126.233 268.098 126.233 254.026C126.233 240.014 132.707 231.261 143.405 231.261C154.074 231.261 160.517 239.953 160.517 253.995C160.517 268.037 154.134 276.881 143.405 276.881ZM143.405 270.468C149.211 270.468 152.584 264.359 152.584 254.026C152.584 243.783 149.15 237.674 143.405 237.674C137.631 237.674 134.135 243.844 134.135 253.995C134.135 264.329 137.57 270.468 143.405 270.468ZM195.047 231.413C207.813 231.413 215.837 240.136 215.837 254.086C215.837 268.037 207.813 276.729 195.047 276.729C182.252 276.729 174.228 268.037 174.228 254.086C174.228 240.136 182.252 231.413 195.047 231.413ZM195.047 238.099C187.206 238.099 182.252 244.3 182.252 254.086C182.252 263.843 187.206 270.043 195.047 270.043C202.859 270.043 207.843 263.843 207.843 254.086C207.843 244.3 202.859 238.099 195.047 238.099ZM219.47 276V243.783H226.734V249.315H226.886C228.619 245.485 232.053 243.175 237.007 243.175C244.119 243.175 248.162 247.734 248.162 255.181V276H240.594V256.7C240.594 252.141 238.466 249.588 234.15 249.588C229.804 249.588 227.038 252.719 227.038 257.338V276H219.47ZM252.586 276V232.142H260.154V276H252.586ZM268.316 287.975C267.891 287.975 265.733 287.945 265.338 287.853V281.866C265.733 281.957 267.07 281.987 267.526 281.987C270.656 281.987 272.267 280.802 273.118 277.824C273.118 277.732 273.574 276.122 273.544 276.03L262.086 243.783H270.353L277.951 269.557H278.072L285.671 243.783H293.634L281.993 277.277C279.227 285.27 275.671 287.975 268.316 287.975Z" fill="#3F4254"/>
</g>
<defs>
<clipPath id="clip0_1725_7678">
<rect width="676" height="320" fill="white"/>
</clipPath>
</defs>
</svg>
