<svg width="676" height="320" viewBox="0 0 676 320" fill="none" xmlns="http://www.w3.org/2000/svg">
<g clip-path="url(#clip0_1725_7717)">
<rect width="676" height="320" rx="30" fill="#FFD15C"/>
<path d="M482.722 139.737L216.924 164.067L225.825 261.311L491.623 236.981L482.722 139.737Z" fill="#ADF0D1"/>
<path d="M279.163 244.05C275.686 244.475 272.158 244.11 268.841 242.983C265.524 241.856 262.504 239.995 260.005 237.54C254.541 231.995 251.331 224.619 250.998 216.841C249.844 208.736 251.687 200.488 256.179 193.644C258.23 190.621 260.951 188.112 264.132 186.315C267.312 184.517 270.865 183.479 274.513 183.281C277.96 182.867 281.457 183.245 284.735 184.387C288.014 185.529 290.989 187.405 293.432 189.871C298.847 195.578 302.009 203.055 302.333 210.916C303.473 218.953 301.63 227.129 297.152 233.9C295.115 236.841 292.439 239.282 289.323 241.04C286.207 242.798 282.734 243.827 279.163 244.05ZM275.177 194.574C273.21 194.699 271.307 195.327 269.651 196.397C267.995 197.467 266.641 198.943 265.718 200.686C263.494 205.042 262.659 209.976 263.327 214.822C263.528 219.718 265.257 224.428 268.269 228.293C269.44 229.792 270.975 230.965 272.729 231.701C274.483 232.436 276.397 232.708 278.286 232.492C280.191 232.359 282.033 231.755 283.647 230.735C285.261 229.715 286.596 228.31 287.533 226.646C289.741 222.332 290.549 217.437 289.845 212.643C289.704 207.631 288.035 202.783 285.062 198.746C283.909 197.263 282.395 196.1 280.664 195.37C278.934 194.639 277.044 194.365 275.177 194.574Z" fill="white"/>
<path d="M336.69 189.393L318.09 191.04L319.419 205.469L336.425 203.954L337.408 214.583L320.402 216.097L322.475 238.896L310.65 239.958L305.336 181.236L335.681 178.632L336.69 189.393Z" fill="white"/>
<path d="M372.614 186.151L354.014 187.799L355.343 202.227L372.348 200.686L373.358 211.314L356.326 212.829L358.398 235.601L346.574 236.69L341.26 177.941L371.631 175.284L372.614 186.151Z" fill="white"/>
<path d="M414.145 230.659L382.658 233.502L377.344 174.779L407.635 171.989L408.645 182.75L390.178 184.398L391.373 197.497L408.485 195.903L409.495 206.532L392.356 208.099L393.552 221.545L413.215 219.738L414.145 230.659Z" fill="white"/>
<path d="M463.622 226.141L450.07 227.39L440.505 213.042C439.787 211.979 439.123 210.969 438.432 210.119C437.884 209.334 437.241 208.621 436.519 207.993C435.947 207.463 435.303 207.015 434.606 206.664C433.951 206.389 433.241 206.271 432.533 206.319L429.344 206.611L431.417 229.037L419.566 230.127L414.252 171.404L432.985 169.65C445.739 168.481 452.603 173.22 453.578 183.866C453.776 185.803 453.659 187.759 453.232 189.659C452.851 191.386 452.205 193.044 451.319 194.574C450.425 196.075 449.274 197.406 447.918 198.507C446.513 199.61 444.955 200.505 443.294 201.164C444.141 201.412 444.94 201.798 445.659 202.307C446.504 202.861 447.287 203.502 447.998 204.22C448.742 204.964 449.459 205.841 450.177 206.691C450.894 207.541 451.505 208.418 452.116 209.348L463.622 226.141ZM426.953 180.279L428.415 196.647L433.516 196.169C434.657 196.099 435.771 195.797 436.79 195.28C437.809 194.764 438.711 194.044 439.442 193.166C440.849 191.367 441.489 189.084 441.222 186.816C440.77 181.687 437.794 179.376 432.267 179.827L426.953 180.279Z" fill="white"/>
<path d="M279.163 244.05C275.686 244.475 272.158 244.11 268.841 242.983C265.524 241.856 262.504 239.995 260.005 237.54C254.541 231.995 251.331 224.619 250.998 216.841C249.844 208.736 251.687 200.488 256.179 193.644C258.23 190.621 260.951 188.112 264.132 186.315C267.312 184.517 270.865 183.479 274.513 183.281C277.96 182.867 281.457 183.245 284.735 184.387C288.014 185.529 290.989 187.405 293.432 189.871C298.847 195.578 302.009 203.055 302.333 210.916C303.473 218.953 301.63 227.129 297.152 233.9C295.115 236.841 292.439 239.282 289.323 241.04C286.207 242.798 282.734 243.827 279.163 244.05ZM275.177 194.574C273.21 194.699 271.307 195.327 269.651 196.397C267.995 197.467 266.641 198.943 265.718 200.686C263.494 205.042 262.659 209.976 263.327 214.822C263.528 219.718 265.257 224.428 268.269 228.293C269.44 229.792 270.975 230.965 272.729 231.701C274.483 232.436 276.397 232.708 278.286 232.492C280.191 232.359 282.033 231.755 283.647 230.735C285.261 229.715 286.596 228.31 287.533 226.646C289.741 222.332 290.549 217.437 289.845 212.643C289.704 207.631 288.035 202.783 285.062 198.746C283.909 197.263 282.395 196.1 280.664 195.37C278.934 194.639 277.044 194.365 275.177 194.574Z" fill="#00203F"/>
<path d="M336.69 189.393L318.09 191.04L319.419 205.469L336.425 203.954L337.408 214.583L320.402 216.097L322.475 238.896L310.65 239.958L305.336 181.236L335.681 178.632L336.69 189.393Z" fill="#00203F"/>
<path d="M372.614 186.151L354.014 187.799L355.343 202.227L372.348 200.686L373.358 211.314L356.326 212.829L358.398 235.601L346.574 236.69L341.26 177.941L371.631 175.284L372.614 186.151Z" fill="#00203F"/>
<path d="M414.145 230.659L382.658 233.502L377.344 174.779L407.635 171.989L408.645 182.75L390.178 184.398L391.373 197.497L408.485 195.903L409.495 206.532L392.356 208.099L393.552 221.545L413.215 219.738L414.145 230.659Z" fill="#00203F"/>
<path d="M463.622 226.141L450.07 227.39L440.505 213.042C439.787 211.979 439.123 210.969 438.432 210.119C437.884 209.334 437.241 208.621 436.519 207.993C435.947 207.463 435.303 207.015 434.606 206.664C433.951 206.389 433.241 206.271 432.533 206.319L429.344 206.611L431.417 229.037L419.566 230.127L414.252 171.404L432.985 169.65C445.739 168.481 452.603 173.22 453.578 183.866C453.776 185.803 453.659 187.759 453.232 189.659C452.851 191.386 452.205 193.044 451.319 194.574C450.425 196.075 449.274 197.406 447.918 198.507C446.513 199.61 444.955 200.505 443.294 201.164C444.141 201.412 444.94 201.798 445.659 202.307C446.504 202.861 447.287 203.502 447.998 204.22C448.742 204.964 449.459 205.841 450.177 206.691C450.894 207.541 451.505 208.418 452.116 209.348L463.622 226.141ZM426.953 180.279L428.415 196.647L433.516 196.169C434.657 196.099 435.771 195.797 436.79 195.28C437.809 194.764 438.711 194.044 439.442 193.166C440.849 191.367 441.489 189.084 441.222 186.816C440.77 181.687 437.794 179.376 432.267 179.827L426.953 180.279Z" fill="#00203F"/>
<path d="M279.163 244.05C275.686 244.475 272.158 244.11 268.841 242.983C265.524 241.856 262.504 239.995 260.005 237.54C254.541 231.995 251.331 224.619 250.998 216.841C249.844 208.736 251.687 200.488 256.179 193.644C258.23 190.621 260.951 188.112 264.132 186.315C267.312 184.517 270.865 183.479 274.513 183.281C277.96 182.867 281.457 183.245 284.735 184.387C288.014 185.529 290.989 187.405 293.432 189.871C298.847 195.578 302.009 203.055 302.333 210.916C303.473 218.953 301.63 227.129 297.152 233.9C295.115 236.841 292.439 239.282 289.323 241.04C286.207 242.798 282.734 243.827 279.163 244.05ZM275.177 194.574C273.21 194.699 271.307 195.327 269.651 196.397C267.995 197.467 266.641 198.943 265.718 200.686C263.494 205.042 262.659 209.976 263.327 214.822C263.528 219.718 265.257 224.428 268.269 228.293C269.44 229.792 270.975 230.965 272.729 231.701C274.483 232.436 276.397 232.708 278.286 232.492C280.191 232.359 282.033 231.755 283.647 230.735C285.261 229.715 286.596 228.31 287.533 226.646C289.741 222.332 290.549 217.437 289.845 212.643C289.704 207.631 288.035 202.783 285.062 198.746C283.909 197.263 282.395 196.1 280.664 195.37C278.934 194.639 277.044 194.365 275.177 194.574Z" fill="#00203F"/>
<path d="M336.69 189.393L318.09 191.04L319.419 205.469L336.425 203.954L337.408 214.583L320.402 216.097L322.475 238.896L310.65 239.958L305.336 181.236L335.681 178.632L336.69 189.393Z" fill="#00203F"/>
<path d="M372.614 186.151L354.014 187.799L355.343 202.227L372.348 200.686L373.358 211.314L356.326 212.829L358.398 235.601L346.574 236.69L341.26 177.941L371.631 175.284L372.614 186.151Z" fill="#00203F"/>
<path d="M414.145 230.659L382.658 233.502L377.344 174.779L407.635 171.989L408.645 182.75L390.178 184.398L391.373 197.497L408.485 195.903L409.495 206.532L392.356 208.099L393.552 221.545L413.215 219.738L414.145 230.659Z" fill="#00203F"/>
<path d="M463.622 226.141L450.07 227.39L440.505 213.042C439.787 211.979 439.123 210.969 438.432 210.119C437.884 209.334 437.241 208.621 436.519 207.993C435.947 207.463 435.303 207.015 434.606 206.664C433.951 206.389 433.241 206.271 432.533 206.319L429.344 206.611L431.417 229.037L419.566 230.127L414.252 171.404L432.985 169.65C445.739 168.481 452.603 173.22 453.578 183.866C453.776 185.803 453.659 187.759 453.232 189.659C452.851 191.386 452.205 193.044 451.319 194.574C450.425 196.075 449.274 197.406 447.918 198.507C446.513 199.61 444.955 200.505 443.294 201.164C444.141 201.412 444.94 201.798 445.659 202.307C446.504 202.861 447.287 203.502 447.998 204.22C448.742 204.964 449.459 205.841 450.177 206.691C450.894 207.541 451.505 208.418 452.116 209.348L463.622 226.141ZM426.953 180.279L428.415 196.647L433.516 196.169C434.657 196.099 435.771 195.797 436.79 195.28C437.809 194.764 438.711 194.044 439.442 193.166C440.849 191.367 441.489 189.084 441.222 186.816C440.77 181.687 437.794 179.376 432.267 179.827L426.953 180.279Z" fill="#00203F"/>
<path d="M279.163 244.05C275.686 244.475 272.158 244.11 268.841 242.983C265.524 241.856 262.504 239.995 260.005 237.54C254.541 231.995 251.331 224.619 250.998 216.841C249.844 208.736 251.687 200.488 256.179 193.644C258.23 190.621 260.951 188.112 264.132 186.315C267.312 184.517 270.865 183.479 274.513 183.281C277.96 182.867 281.457 183.245 284.735 184.387C288.014 185.529 290.989 187.405 293.432 189.871C298.847 195.578 302.009 203.055 302.333 210.916C303.473 218.953 301.63 227.129 297.152 233.9C295.115 236.841 292.439 239.282 289.323 241.04C286.207 242.798 282.734 243.827 279.163 244.05ZM275.177 194.574C273.21 194.699 271.307 195.327 269.651 196.397C267.995 197.467 266.641 198.943 265.718 200.686C263.494 205.042 262.659 209.976 263.327 214.822C263.528 219.718 265.257 224.428 268.269 228.293C269.44 229.792 270.975 230.965 272.729 231.701C274.483 232.436 276.397 232.708 278.286 232.492C280.191 232.359 282.033 231.755 283.647 230.735C285.261 229.715 286.596 228.31 287.533 226.646C289.741 222.332 290.549 217.437 289.845 212.643C289.704 207.631 288.035 202.783 285.062 198.746C283.909 197.263 282.395 196.1 280.664 195.37C278.934 194.639 277.044 194.365 275.177 194.574Z" fill="#00203F"/>
<path d="M336.69 189.393L318.09 191.04L319.419 205.469L336.425 203.954L337.408 214.583L320.402 216.097L322.475 238.896L310.65 239.958L305.336 181.236L335.681 178.632L336.69 189.393Z" fill="#00203F"/>
<path d="M372.614 186.151L354.014 187.799L355.343 202.227L372.348 200.686L373.358 211.314L356.326 212.829L358.398 235.601L346.574 236.69L341.26 177.941L371.631 175.284L372.614 186.151Z" fill="#00203F"/>
<path d="M414.145 230.659L382.658 233.502L377.344 174.779L407.635 171.989L408.645 182.75L390.178 184.398L391.373 197.497L408.485 195.903L409.495 206.532L392.356 208.099L393.552 221.545L413.215 219.738L414.145 230.659Z" fill="#00203F"/>
<path d="M463.622 226.141L450.07 227.39L440.505 213.042C439.787 211.979 439.123 210.969 438.432 210.119C437.884 209.334 437.241 208.621 436.519 207.993C435.947 207.463 435.303 207.015 434.606 206.664C433.951 206.389 433.241 206.271 432.533 206.319L429.344 206.611L431.417 229.037L419.566 230.127L414.252 171.404L432.985 169.65C445.739 168.481 452.603 173.22 453.578 183.866C453.776 185.803 453.659 187.759 453.232 189.659C452.851 191.386 452.205 193.044 451.319 194.574C450.425 196.075 449.274 197.406 447.918 198.507C446.513 199.61 444.955 200.505 443.294 201.164C444.141 201.412 444.94 201.798 445.659 202.307C446.504 202.861 447.287 203.502 447.998 204.22C448.742 204.964 449.459 205.841 450.177 206.691C450.894 207.541 451.505 208.418 452.116 209.348L463.622 226.141ZM426.953 180.279L428.415 196.647L433.516 196.169C434.657 196.099 435.771 195.797 436.79 195.28C437.809 194.764 438.711 194.044 439.442 193.166C440.849 191.367 441.489 189.084 441.222 186.816C440.77 181.687 437.794 179.376 432.267 179.827L426.953 180.279Z" fill="#00203F"/>
<path d="M172 91.6107L445.234 66.3679L453.391 154.771L180.157 180.014L172 91.6107Z" fill="#00203F"/>
<path d="M503.561 61.1126L230.375 86.3591L230.815 91.1217L504.001 65.8752L503.561 61.1126Z" fill="#00203F"/>
<path d="M473.394 54.7142L294.748 71.2552L295.189 76.0177L473.835 59.4767L473.394 54.7142Z" fill="#ADF0D1"/>
<path d="M390.805 241.371L197.922 259.196L198.362 263.959L391.246 246.133L390.805 241.371Z" fill="#ADF0D1"/>
<path d="M466.158 244.023L287.51 260.533L287.95 265.295L466.599 248.786L466.158 244.023Z" fill="#00203F"/>
<path d="M212.069 155.515L211.458 148.952C212.225 149.585 213.074 150.113 213.982 150.519C214.93 150.988 215.929 151.344 216.959 151.582C217.991 151.847 219.038 152.051 220.094 152.193C221.048 152.284 222.009 152.284 222.964 152.193C225.355 152.1 227.634 151.158 229.394 149.536C230.088 148.773 230.599 147.862 230.889 146.873C231.179 145.883 231.24 144.84 231.068 143.823C230.966 142.676 230.602 141.567 230.005 140.582C229.402 139.655 228.637 138.845 227.747 138.19C226.727 137.418 225.632 136.75 224.478 136.197L220.493 134.284C218.951 133.54 217.57 132.823 216.241 132.079C214.98 131.373 213.803 130.526 212.734 129.554C211.704 128.616 210.865 127.489 210.263 126.233C209.55 124.8 209.143 123.235 209.067 121.636C208.851 119.682 209.106 117.705 209.811 115.87C210.411 114.249 211.385 112.793 212.654 111.619C213.917 110.481 215.375 109.58 216.959 108.962C218.603 108.307 220.328 107.878 222.087 107.686C225.104 107.201 228.195 107.494 231.068 108.536L231.785 114.86C228.937 113.074 225.552 112.341 222.22 112.788C221.152 112.882 220.099 113.105 219.084 113.452C218.099 113.77 217.193 114.296 216.427 114.993C215.58 115.673 214.925 116.564 214.529 117.575C214.133 118.587 214.008 119.685 214.169 120.759C214.234 121.852 214.523 122.919 215.019 123.895C215.521 124.753 216.168 125.517 216.932 126.153C217.869 126.863 218.875 127.477 219.935 127.987C221.051 128.598 222.379 129.183 223.92 129.927C225.461 130.67 226.896 131.388 228.305 132.185C229.665 132.943 230.916 133.881 232.024 134.975C233.068 136.016 233.962 137.196 234.682 138.482C235.414 139.935 235.865 141.513 236.01 143.132C236.253 145.178 236.016 147.252 235.319 149.191C234.742 150.823 233.764 152.285 232.476 153.442C231.163 154.593 229.65 155.493 228.012 156.099C226.25 156.712 224.422 157.113 222.565 157.295C221.901 157.295 221.13 157.295 220.174 157.295C219.217 157.295 218.261 157.295 217.198 157.029C216.208 156.919 215.23 156.724 214.275 156.445C213.495 156.254 212.75 155.94 212.069 155.515Z" fill="white"/>
<path d="M248.34 136.118L249.987 154.054L245.205 154.532L240.82 106.889L252.033 105.827C253.892 105.507 255.798 105.578 257.628 106.035C259.458 106.493 261.172 107.327 262.662 108.484C264.06 109.787 265.185 111.356 265.97 113.098C266.754 114.841 267.184 116.723 267.232 118.634C267.746 122.692 266.681 126.792 264.256 130.086C262.99 131.659 261.404 132.946 259.605 133.862C257.805 134.778 255.831 135.303 253.814 135.4L248.34 136.118ZM246.081 111.592L247.862 131.069L252.91 130.618C254.292 130.585 255.652 130.271 256.908 129.696C258.165 129.12 259.291 128.295 260.217 127.27C261.034 126.177 261.627 124.934 261.96 123.611C262.292 122.288 262.36 120.913 262.157 119.564C261.546 113.346 258.092 110.476 251.529 111.088L246.081 111.592Z" fill="white"/>
<path d="M299.675 149.404L277.94 151.396L273.582 103.913L294.361 101.974L294.839 107.022L278.896 108.484L280.358 124.294L295.185 122.912L295.636 127.881L280.809 129.263L282.351 145.87L299.303 144.302L299.675 149.404Z" fill="white"/>
<path d="M335.201 144.089C331.958 146.359 328.152 147.693 324.201 147.942C321.514 148.273 318.787 147.965 316.243 147.041C313.698 146.117 311.408 144.605 309.56 142.628C305.414 138.038 302.999 132.146 302.731 125.967C301.829 119.34 303.307 112.608 306.903 106.969C308.501 104.565 310.627 102.557 313.118 101.097C315.609 99.6378 318.399 98.7652 321.278 98.5456C324.593 98.1271 327.96 98.4912 331.109 99.6085L331.614 105.507C328.569 103.887 325.106 103.22 321.676 103.594C319.466 103.736 317.321 104.397 315.414 105.523C313.507 106.65 311.893 108.21 310.703 110.078C307.997 114.595 306.919 119.902 307.647 125.117C307.818 130.085 309.694 134.842 312.961 138.589C314.371 140.117 316.12 141.294 318.068 142.023C320.015 142.752 322.107 143.014 324.174 142.787C327.984 142.511 331.61 141.042 334.537 138.589L335.201 144.089Z" fill="white"/>
<path d="M348.169 97.0045L348.62 101.787L344.635 102.159L348.169 140.183L352.154 139.784L352.633 144.541L339.799 145.736L339.347 140.98L343.306 140.555L339.799 102.585L335.813 102.983L335.361 98.1737L348.169 97.0045Z" fill="white"/>
<path d="M391.028 140.901L385.713 141.353L380.16 128.412L362.809 130.007L359.939 143.691L354.625 144.169L365.918 95.198L370.913 94.7463L391.028 140.901ZM378.141 123.629L369.957 103.967C369.559 102.958 369.248 101.918 369.027 100.858H368.894C368.85 101.945 368.735 103.028 368.548 104.099L364.031 124.958L378.141 123.629Z" fill="white"/>
<path d="M418.317 138.376L397.06 140.369L392.676 92.8594L397.459 92.4077L401.391 134.922L417.786 133.461L418.317 138.376Z" fill="white"/>
</g>
<defs>
<clipPath id="clip0_1725_7717">
<rect width="676" height="320" fill="white"/>
</clipPath>
</defs>
</svg>
