<svg width="20" height="21" viewBox="0 0 20 21" fill="none" xmlns="http://www.w3.org/2000/svg">
<path fill-rule="evenodd" clip-rule="evenodd" d="M0.00292969 10.4988C0.00292969 4.97525 4.48062 0.497559 10.0041 0.497559C15.5276 0.497559 20.0053 4.97525 20.0053 10.4988C20.0053 16.0223 15.5276 20.5 10.0041 20.5C4.48062 20.5 0.00292969 16.0223 0.00292969 10.4988ZM10.2967 12.7912C9.90615 13.1818 9.90615 13.815 10.2967 14.2056C10.6873 14.5962 11.3205 14.5962 11.7111 14.2056L14.6244 11.2923C14.6392 11.2775 14.6535 11.2624 14.6673 11.247C14.8739 11.0638 15.0041 10.7963 15.0041 10.4985C15.0041 10.2023 14.8754 9.93629 14.6709 9.75317C14.656 9.73636 14.6405 9.7199 14.6244 9.7038L11.7111 6.79049C11.3205 6.39992 10.6873 6.39992 10.2967 6.79049C9.90615 7.18106 9.90615 7.8143 10.2967 8.20487L11.5902 9.49834H6.00305C5.4507 9.49834 5.00293 9.94611 5.00293 10.4985C5.00293 11.0508 5.4507 11.4986 6.00305 11.4986H11.5894L10.2967 12.7912Z" fill="white"/>
</svg>
