<svg width="63" height="61" viewBox="0 0 63 61" fill="none" xmlns="http://www.w3.org/2000/svg">
<g filter="url(#filter0_d_1635_5016)">
<rect x="11.3423" y="11.0527" width="40" height="39" rx="5" fill="white"/>
<rect x="11.3423" y="11.0527" width="40" height="39" rx="5" fill="url(#paint0_linear_1635_5016)"/>
<path d="M31.3423 20.0527C25.8194 20.0527 21.3423 24.5298 21.3423 30.0527C21.3423 35.5756 25.8194 40.0527 31.3423 40.0527C36.8652 40.0527 41.3423 35.5756 41.3423 30.0527C41.3423 24.5298 36.8652 20.0527 31.3423 20.0527ZM32.2058 35.4745V36.8829H30.8586V35.4903C28.6479 35.1876 27.6798 33.3712 27.6798 33.3712L29.0559 32.2201C29.0559 32.2201 29.9346 33.7496 31.5239 33.7496C32.4019 33.7496 33.0679 33.2797 33.0679 32.4767C33.0679 30.5997 28.0108 30.8275 28.0108 27.3453C28.0108 25.8316 29.208 24.7411 30.8579 24.483V23.076H32.2051V24.483C33.3555 24.6344 34.7178 25.2399 34.7178 26.5423V27.5414H32.9317V27.057C32.9317 26.5575 32.2952 26.2245 31.5831 26.2245C30.6749 26.2245 30.0095 26.6786 30.0095 27.3143C30.0095 29.2367 35.0667 28.7675 35.0667 32.4162C35.0667 33.9161 33.9465 35.2165 32.2058 35.4745Z" fill="black"/>
<path d="M31.3423 20.0527C25.8194 20.0527 21.3423 24.5298 21.3423 30.0527C21.3423 35.5756 25.8194 40.0527 31.3423 40.0527C36.8652 40.0527 41.3423 35.5756 41.3423 30.0527C41.3423 24.5298 36.8652 20.0527 31.3423 20.0527ZM32.2058 35.4745V36.8829H30.8586V35.4903C28.6479 35.1876 27.6798 33.3712 27.6798 33.3712L29.0559 32.2201C29.0559 32.2201 29.9346 33.7496 31.5239 33.7496C32.4019 33.7496 33.0679 33.2797 33.0679 32.4767C33.0679 30.5997 28.0108 30.8275 28.0108 27.3453C28.0108 25.8316 29.208 24.7411 30.8579 24.483V23.076H32.2051V24.483C33.3555 24.6344 34.7178 25.2399 34.7178 26.5423V27.5414H32.9317V27.057C32.9317 26.5575 32.2952 26.2245 31.5831 26.2245C30.6749 26.2245 30.0095 26.6786 30.0095 27.3143C30.0095 29.2367 35.0667 28.7675 35.0667 32.4162C35.0667 33.9161 33.9465 35.2165 32.2058 35.4745Z" fill="white"/>
</g>
<defs>
<filter id="filter0_d_1635_5016" x="0.542285" y="0.252734" width="61.6" height="60.6" filterUnits="userSpaceOnUse" color-interpolation-filters="sRGB">
<feFlood flood-opacity="0" result="BackgroundImageFix"/>
<feColorMatrix in="SourceAlpha" type="matrix" values="0 0 0 0 0 0 0 0 0 0 0 0 0 0 0 0 0 0 127 0" result="hardAlpha"/>
<feOffset/>
<feGaussianBlur stdDeviation="5.4"/>
<feComposite in2="hardAlpha" operator="out"/>
<feColorMatrix type="matrix" values="0 0 0 0 0.191667 0 0 0 0 0.479953 0 0 0 0 1 0 0 0 1 0"/>
<feBlend mode="normal" in2="BackgroundImageFix" result="effect1_dropShadow_1635_5016"/>
<feBlend mode="normal" in="SourceGraphic" in2="effect1_dropShadow_1635_5016" result="shape"/>
</filter>
<linearGradient id="paint0_linear_1635_5016" x1="31.3423" y1="11.0527" x2="31.3423" y2="50.0527" gradientUnits="userSpaceOnUse">
<stop stop-color="#196BFE"/>
<stop offset="1" stop-color="#0F4098"/>
</linearGradient>
</defs>
</svg>
