<svg width="63" height="61" viewBox="0 0 63 61" fill="none" xmlns="http://www.w3.org/2000/svg">
<g filter="url(#filter0_d_1635_5023)">
<rect x="11.3423" y="11.0527" width="40" height="39" rx="5" fill="white"/>
<rect x="11.3423" y="11.0527" width="40" height="39" rx="5" fill="url(#paint0_linear_1635_5023)"/>
<path fill-rule="evenodd" clip-rule="evenodd" d="M21.3423 30.0527C21.3423 24.5299 25.8194 20.0527 31.3423 20.0527C36.8651 20.0527 41.3423 24.5299 41.3423 30.0527C41.3423 35.5756 36.8651 40.0527 31.3423 40.0527C25.8194 40.0527 21.3423 35.5756 21.3423 30.0527ZM35.0494 27.3456C35.4399 27.7362 35.4399 28.3693 35.0494 28.7598L31.3666 32.4426C30.8009 33.0083 29.8837 33.0083 29.318 32.4426L27.6352 30.7598C27.2447 30.3693 27.2447 29.7362 27.6352 29.3456C28.0257 28.9551 28.6589 28.9551 29.0494 29.3456L30.3423 30.6385L33.6352 27.3456C34.0257 26.9551 34.6589 26.9551 35.0494 27.3456Z" fill="white"/>
</g>
<defs>
<filter id="filter0_d_1635_5023" x="0.542285" y="0.252734" width="61.6" height="60.6" filterUnits="userSpaceOnUse" color-interpolation-filters="sRGB">
<feFlood flood-opacity="0" result="BackgroundImageFix"/>
<feColorMatrix in="SourceAlpha" type="matrix" values="0 0 0 0 0 0 0 0 0 0 0 0 0 0 0 0 0 0 127 0" result="hardAlpha"/>
<feOffset/>
<feGaussianBlur stdDeviation="5.4"/>
<feComposite in2="hardAlpha" operator="out"/>
<feColorMatrix type="matrix" values="0 0 0 0 0.191667 0 0 0 0 0.479953 0 0 0 0 1 0 0 0 1 0"/>
<feBlend mode="normal" in2="BackgroundImageFix" result="effect1_dropShadow_1635_5023"/>
<feBlend mode="normal" in="SourceGraphic" in2="effect1_dropShadow_1635_5023" result="shape"/>
</filter>
<linearGradient id="paint0_linear_1635_5023" x1="31.3423" y1="11.0527" x2="31.3423" y2="50.0527" gradientUnits="userSpaceOnUse">
<stop stop-color="#196BFE"/>
<stop offset="1" stop-color="#0F4098"/>
</linearGradient>
</defs>
</svg>
