<svg width="26" height="29" viewBox="0 0 26 29" fill="none" xmlns="http://www.w3.org/2000/svg">
<path fill-rule="evenodd" clip-rule="evenodd" d="M10.5117 25.8077C11.2024 26.577 12.0891 26.9997 13.0091 26.9997H13.0104C13.9344 26.9997 14.8251 26.577 15.5171 25.8063C15.8877 25.397 16.5197 25.3637 16.9291 25.733C17.3397 26.1023 17.3731 26.7357 17.0037 27.145C15.9264 28.341 14.5091 28.9997 13.0104 28.9997H13.0077C11.5131 28.9983 10.0984 28.3397 9.02506 27.1437C8.65573 26.7343 8.68906 26.101 9.09973 25.733C9.51039 25.3623 10.1424 25.3957 10.5117 25.8077ZM13.0755 0.333008C19.0021 0.333008 22.9835 4.94901 22.9835 9.25968C22.9835 11.477 23.5475 12.417 24.1461 13.4143C24.7381 14.3983 25.4088 15.5157 25.4088 17.6277C24.9435 23.0237 19.3101 23.4637 13.0755 23.4637C6.84079 23.4637 1.20613 23.0237 0.746111 17.713C0.742129 15.5157 1.4128 14.3983 2.0048 13.4143L2.21379 13.0625C2.72836 12.1782 3.16746 11.2161 3.16746 9.25968C3.16746 4.94901 7.14879 0.333008 13.0755 0.333008ZM13.0755 2.33301C8.41546 2.33301 5.16746 5.98368 5.16746 9.25968C5.16746 12.0317 4.39813 13.313 3.71813 14.4437C3.1728 15.3517 2.74213 16.069 2.74213 17.6277C2.9648 20.1423 4.62479 21.4637 13.0755 21.4637C21.4795 21.4637 23.1915 20.0837 23.4128 17.541C23.4088 16.069 22.9781 15.3517 22.4328 14.4437C21.7528 13.313 20.9835 12.0317 20.9835 9.25968C20.9835 5.98368 17.7355 2.33301 13.0755 2.33301Z" fill="#828282"/>
</svg>
