<svg width="76" height="76" viewBox="0 0 76 76" fill="none" xmlns="http://www.w3.org/2000/svg">
<circle cx="38" cy="38" r="38" fill="#2356B2" fill-opacity="0.58"/>
<path d="M39 29C39.2652 29 39.5196 28.8946 39.7071 28.7071C39.8946 28.5196 40 28.2652 40 28C40 27.7348 39.8946 27.4804 39.7071 27.2929C39.5196 27.1054 39.2652 27 39 27H33C32.7348 27 32.4804 27.1054 32.2929 27.2929C32.1054 27.4804 32 27.7348 32 28C32 28.2652 32.1054 28.5196 32.2929 28.7071C32.4804 28.8946 32.7348 29 33 29H39Z" fill="white"/>
<path d="M46 31.84V27.84C46.0053 27.2071 45.8853 26.5795 45.6471 25.9931C45.4089 25.4068 45.057 24.8734 44.6119 24.4235C44.1667 23.9737 43.6369 23.6164 43.0531 23.372C42.4693 23.1277 41.8429 23.0013 41.21 23H30.79C29.5204 23.0026 28.3036 23.5081 27.4059 24.4059C26.5081 25.3036 26.0026 26.5204 26 27.79V50.21C26.0026 51.4796 26.5081 52.6964 27.4059 53.5941C28.3036 54.4919 29.5204 54.9974 30.79 55H41.21C42.4796 54.9974 43.6964 54.4919 44.5941 53.5941C45.4919 52.6964 45.9974 51.4796 46 50.21V50.16C47.7803 49.3803 49.2948 48.0986 50.3583 46.4718C51.4218 44.845 51.9882 42.9436 51.9882 41C51.9882 39.0564 51.4218 37.155 50.3583 35.5282C49.2948 33.9014 47.7803 32.6197 46 31.84ZM41.21 53H30.79C30.05 53 29.3404 52.7061 28.8172 52.1828C28.2939 51.6596 28 50.95 28 50.21V27.79C28 27.05 28.2939 26.3404 28.8172 25.8172C29.3404 25.2939 30.05 25 30.79 25H41.21C41.95 25 42.6596 25.2939 43.1828 25.8172C43.7061 26.3404 44 27.05 44 27.79V31.2C43.3415 31.0677 42.6716 31.0007 42 31C39.3763 30.9997 36.8593 32.0389 35 33.89V33C35 32.7348 34.8946 32.4804 34.7071 32.2929C34.5196 32.1054 34.2652 32 34 32C33.7348 32 33.4804 32.1054 33.2929 32.2929C33.1054 32.4804 33 32.7348 33 33V49C33 49.2652 33.1054 49.5196 33.2929 49.7071C33.4804 49.8946 33.7348 50 34 50C34.2652 50 34.5196 49.8946 34.7071 49.7071C34.8946 49.5196 35 49.2652 35 49V48.11C36.8593 49.9611 39.3763 51.0003 42 51C42.6479 50.9982 43.2942 50.9345 43.93 50.81C43.7935 51.4301 43.4495 51.985 42.955 52.3832C42.4605 52.7813 41.8449 52.9989 41.21 53ZM42 49C40.5697 48.9987 39.1658 48.614 37.9347 47.8858C36.7035 47.1577 35.6901 46.1128 35 44.86V37.14C35.681 35.9038 36.677 34.8697 37.8868 34.1427C39.0966 33.4158 40.4772 33.0218 41.8884 33.0009C43.2997 32.9799 44.6913 33.3327 45.9222 34.0234C47.153 34.7141 48.1793 35.7182 48.8967 36.9337C49.6141 38.1492 49.9971 39.5328 50.007 40.9442C50.0168 42.3556 49.6531 43.7444 48.9527 44.9698C48.2523 46.1952 47.2402 47.2135 46.0191 47.9213C44.798 48.6291 43.4114 49.0013 42 49Z" fill="white"/>
<path d="M42 38H44C44.2652 38 44.5196 37.8946 44.7071 37.7071C44.8946 37.5196 45 37.2652 45 37C45 36.7348 44.8946 36.4804 44.7071 36.2929C44.5196 36.1054 44.2652 36 44 36H43C43 35.7348 42.8946 35.4804 42.7071 35.2929C42.5196 35.1054 42.2652 35 42 35C41.7348 35 41.4804 35.1054 41.2929 35.2929C41.1054 35.4804 41 35.7348 41 36V36.18C40.3386 36.42 39.7826 36.8848 39.4292 37.4931C39.0758 38.1015 38.9475 38.8147 39.0666 39.5081C39.1857 40.2015 39.5448 40.831 40.081 41.2865C40.6172 41.742 41.2965 41.9945 42 42C42.2652 42 42.5196 42.1054 42.7071 42.2929C42.8946 42.4804 43 42.7348 43 43C43 43.2652 42.8946 43.5196 42.7071 43.7071C42.5196 43.8946 42.2652 44 42 44H40C39.7348 44 39.4804 44.1054 39.2929 44.2929C39.1054 44.4804 39 44.7348 39 45C39 45.2652 39.1054 45.5196 39.2929 45.7071C39.4804 45.8946 39.7348 46 40 46H41C41 46.2652 41.1054 46.5196 41.2929 46.7071C41.4804 46.8946 41.7348 47 42 47C42.2652 47 42.5196 46.8946 42.7071 46.7071C42.8946 46.5196 43 46.2652 43 46V45.82C43.6614 45.58 44.2174 45.1152 44.5708 44.5069C44.9242 43.8985 45.0525 43.1853 44.9334 42.4919C44.8143 41.7985 44.4552 41.169 43.919 40.7135C43.3828 40.258 42.7035 40.0055 42 40C41.7348 40 41.4804 39.8946 41.2929 39.7071C41.1054 39.5196 41 39.2652 41 39C41 38.7348 41.1054 38.4804 41.2929 38.2929C41.4804 38.1054 41.7348 38 42 38Z" fill="white"/>
<path d="M54.9999 28H52.4099L52.7099 27.71C52.8982 27.5217 53.004 27.2663 53.004 27C53.004 26.7337 52.8982 26.4783 52.7099 26.29C52.5216 26.1017 52.2662 25.9959 51.9999 25.9959C51.7336 25.9959 51.4782 26.1017 51.2899 26.29L49.2899 28.29C49.1962 28.383 49.1218 28.4936 49.071 28.6154C49.0203 28.7373 48.9941 28.868 48.9941 29C48.9941 29.132 49.0203 29.2627 49.071 29.3846C49.1218 29.5064 49.1962 29.617 49.2899 29.71L51.2899 31.71C51.3829 31.8037 51.4935 31.8781 51.6154 31.9289C51.7372 31.9797 51.8679 32.0058 51.9999 32.0058C52.132 32.0058 52.2627 31.9797 52.3845 31.9289C52.5064 31.8781 52.617 31.8037 52.7099 31.71C52.8037 31.617 52.8781 31.5064 52.9288 31.3846C52.9796 31.2627 53.0057 31.132 53.0057 31C53.0057 30.868 52.9796 30.7373 52.9288 30.6154C52.8781 30.4936 52.8037 30.383 52.7099 30.29L52.4099 30H54.9999C55.2652 30 55.5195 29.8946 55.707 29.7071C55.8946 29.5196 55.9999 29.2652 55.9999 29C55.9999 28.7348 55.8946 28.4804 55.707 28.2929C55.5195 28.1054 55.2652 28 54.9999 28Z" fill="white"/>
</svg>
