<svg width="32" height="32" viewBox="0 0 32 32" fill="none" xmlns="http://www.w3.org/2000/svg">
<path d="M14 6C14.2652 6 14.5196 5.89464 14.7071 5.70711C14.8946 5.51957 15 5.26522 15 5C15 4.73478 14.8946 4.48043 14.7071 4.29289C14.5196 4.10536 14.2652 4 14 4H8C7.73478 4 7.48043 4.10536 7.29289 4.29289C7.10536 4.48043 7 4.73478 7 5C7 5.26522 7.10536 5.51957 7.29289 5.70711C7.48043 5.89464 7.73478 6 8 6H14Z" fill="white"/>
<path d="M21 8.84V4.84C21.0053 4.20714 20.8853 3.57948 20.6471 2.99315C20.4089 2.40681 20.057 1.87338 19.6119 1.42355C19.1667 0.973711 18.6369 0.616357 18.0531 0.372047C17.4693 0.127738 16.8429 0.00129652 16.21 0L5.79 0C4.52042 0.0026422 3.3036 0.50815 2.40588 1.40588C1.50815 2.3036 1.00264 3.52042 1 4.79V27.21C1.00264 28.4796 1.50815 29.6964 2.40588 30.5941C3.3036 31.4919 4.52042 31.9974 5.79 32H16.21C17.4796 31.9974 18.6964 31.4919 19.5941 30.5941C20.4919 29.6964 20.9974 28.4796 21 27.21V27.16C22.7803 26.3803 24.2948 25.0986 25.3583 23.4718C26.4218 21.845 26.9882 19.9436 26.9882 18C26.9882 16.0564 26.4218 14.155 25.3583 12.5282C24.2948 10.9014 22.7803 9.61972 21 8.84ZM16.21 30H5.79C5.05005 30 4.3404 29.7061 3.81717 29.1828C3.29395 28.6596 3 27.95 3 27.21V4.79C3 4.05005 3.29395 3.3404 3.81717 2.81717C4.3404 2.29395 5.05005 2 5.79 2H16.21C16.95 2 17.6596 2.29395 18.1828 2.81717C18.7061 3.3404 19 4.05005 19 4.79V8.2C18.3415 8.06765 17.6716 8.00066 17 8C14.3763 7.99973 11.8593 9.03887 10 10.89V10C10 9.73478 9.89464 9.48043 9.70711 9.29289C9.51957 9.10536 9.26522 9 9 9C8.73478 9 8.48043 9.10536 8.29289 9.29289C8.10536 9.48043 8 9.73478 8 10V26C8 26.2652 8.10536 26.5196 8.29289 26.7071C8.48043 26.8946 8.73478 27 9 27C9.26522 27 9.51957 26.8946 9.70711 26.7071C9.89464 26.5196 10 26.2652 10 26V25.11C11.8593 26.9611 14.3763 28.0003 17 28C17.6479 27.9982 18.2942 27.9345 18.93 27.81C18.7935 28.43 18.4495 28.985 17.955 29.3832C17.4605 29.7813 16.8449 29.9989 16.21 30ZM17 26C15.5697 25.9987 14.1658 25.614 12.9347 24.8858C11.7035 24.1577 10.6901 23.1128 10 21.86V14.14C10.681 12.9038 11.677 11.8697 12.8868 11.1427C14.0966 10.4158 15.4772 10.0218 16.8884 10.0009C18.2997 9.97993 19.6913 10.3327 20.9222 11.0234C22.153 11.7141 23.1793 12.7182 23.8967 13.9337C24.6141 15.1492 24.9971 16.5328 25.007 17.9442C25.0168 19.3556 24.6531 20.7444 23.9527 21.9698C23.2523 23.1952 22.2402 24.2135 21.0191 24.9213C19.798 25.6291 18.4114 26.0013 17 26Z" fill="white"/>
<path d="M17 15H19C19.2652 15 19.5196 14.8946 19.7071 14.7071C19.8946 14.5196 20 14.2652 20 14C20 13.7348 19.8946 13.4804 19.7071 13.2929C19.5196 13.1054 19.2652 13 19 13H18C18 12.7348 17.8946 12.4804 17.7071 12.2929C17.5196 12.1054 17.2652 12 17 12C16.7348 12 16.4804 12.1054 16.2929 12.2929C16.1054 12.4804 16 12.7348 16 13V13.18C15.3386 13.42 14.7826 13.8848 14.4292 14.4931C14.0758 15.1015 13.9475 15.8147 14.0666 16.5081C14.1857 17.2015 14.5448 17.831 15.081 18.2865C15.6172 18.742 16.2965 18.9945 17 19C17.2652 19 17.5196 19.1054 17.7071 19.2929C17.8946 19.4804 18 19.7348 18 20C18 20.2652 17.8946 20.5196 17.7071 20.7071C17.5196 20.8946 17.2652 21 17 21H15C14.7348 21 14.4804 21.1054 14.2929 21.2929C14.1054 21.4804 14 21.7348 14 22C14 22.2652 14.1054 22.5196 14.2929 22.7071C14.4804 22.8946 14.7348 23 15 23H16C16 23.2652 16.1054 23.5196 16.2929 23.7071C16.4804 23.8946 16.7348 24 17 24C17.2652 24 17.5196 23.8946 17.7071 23.7071C17.8946 23.5196 18 23.2652 18 23V22.82C18.6614 22.58 19.2174 22.1152 19.5708 21.5069C19.9242 20.8985 20.0525 20.1853 19.9334 19.4919C19.8143 18.7985 19.4552 18.169 18.919 17.7135C18.3828 17.258 17.7035 17.0055 17 17C16.7348 17 16.4804 16.8946 16.2929 16.7071C16.1054 16.5196 16 16.2652 16 16C16 15.7348 16.1054 15.4804 16.2929 15.2929C16.4804 15.1054 16.7348 15 17 15Z" fill="white"/>
<path d="M29.9999 5H27.4099L27.7099 4.71C27.8982 4.5217 28.004 4.2663 28.004 4C28.004 3.7337 27.8982 3.47831 27.7099 3.29C27.5216 3.1017 27.2662 2.99591 26.9999 2.99591C26.7336 2.99591 26.4782 3.1017 26.2899 3.29L24.2899 5.29C24.1962 5.38297 24.1218 5.49357 24.071 5.61543C24.0203 5.73728 23.9941 5.86799 23.9941 6C23.9941 6.13201 24.0203 6.26272 24.071 6.38458C24.1218 6.50644 24.1962 6.61704 24.2899 6.71L26.2899 8.71C26.3829 8.80373 26.4935 8.87812 26.6154 8.92889C26.7372 8.97966 26.8679 9.0058 26.9999 9.0058C27.132 9.0058 27.2627 8.97966 27.3845 8.92889C27.5064 8.87812 27.617 8.80373 27.7099 8.71C27.8037 8.61704 27.8781 8.50644 27.9288 8.38458C27.9796 8.26272 28.0057 8.13201 28.0057 8C28.0057 7.86799 27.9796 7.73728 27.9288 7.61543C27.8781 7.49357 27.8037 7.38297 27.7099 7.29L27.4099 7H29.9999C30.2652 7 30.5195 6.89465 30.707 6.70711C30.8946 6.51957 30.9999 6.26522 30.9999 6C30.9999 5.73479 30.8946 5.48043 30.707 5.2929C30.5195 5.10536 30.2652 5 29.9999 5Z" fill="white"/>
</svg>
