<svg width="28" height="29" viewBox="0 0 28 29" fill="none" xmlns="http://www.w3.org/2000/svg">
<path fill-rule="evenodd" clip-rule="evenodd" d="M13.6513 0.666992C20.8113 0.666992 26.6353 6.49099 26.6353 13.651C26.6353 17.0291 25.339 20.11 23.2175 22.4223L27.3919 26.5879C27.7825 26.9786 27.7839 27.6106 27.3932 28.0013C27.1985 28.1986 26.9412 28.2959 26.6852 28.2959C26.4305 28.2959 26.1745 28.1986 25.9785 28.0039L21.7538 23.791C19.5314 25.5708 16.7136 26.6363 13.6513 26.6363C6.49135 26.6363 0.666016 20.811 0.666016 13.651C0.666016 6.49099 6.49135 0.666992 13.6513 0.666992ZM13.6513 2.66699C7.59402 2.66699 2.66602 7.59366 2.66602 13.651C2.66602 19.7083 7.59402 24.6363 13.6513 24.6363C19.7073 24.6363 24.6353 19.7083 24.6353 13.651C24.6353 7.59366 19.7073 2.66699 13.6513 2.66699Z" fill="#828282"/>
</svg>
