<svg width="76" height="76" viewBox="0 0 76 76" fill="none" xmlns="http://www.w3.org/2000/svg">
<circle cx="38" cy="38" r="38" fill="#2356B2"/>
<path d="M42.3992 47.3C41.9992 47.3 41.5992 47.6 41.5992 48.1C41.5992 50 40.0992 51.5 38.1992 51.5H30.0992C28.1992 51.5 26.6992 50 26.6992 48.1V28C26.6992 26.1 28.1992 24.6 30.0992 24.6H38.1992C40.0992 24.6 41.5992 26.1 41.5992 28C41.5992 28.4 41.8992 28.8 42.3992 28.8C42.8992 28.8 43.1992 28.5 43.1992 28C43.1992 25.3 40.9992 23.1 38.2992 23.1H30.0992C27.3992 23.1 25.1992 25.3 25.1992 28V48C25.1992 50.7 27.3992 52.9 30.0992 52.9H38.1992C40.8992 52.9 43.0992 50.7 43.0992 48C43.0992 47.6 42.7992 47.3 42.3992 47.3ZM35.4992 48.7C35.4992 48 34.8992 47.4 34.1992 47.4C33.4992 47.4 32.8992 48 32.8992 48.7C32.8992 49.4 33.4992 50 34.1992 50C34.9992 50 35.4992 49.4 35.4992 48.7ZM49.7992 44C46.7992 45 43.5992 44.5 40.0992 44C36.4992 43.5 32.6992 42.9 29.2992 44.3C28.8992 44.5 28.6992 44.9 28.8992 45.3C29.0992 45.7 29.4992 45.9 29.8992 45.7C32.8992 44.4 36.2992 45 39.8992 45.5C41.8992 45.8 43.7992 46.1 45.7992 46.1C47.2992 46.1 48.7992 45.9 50.2992 45.4C50.6992 45.3 50.8992 44.8 50.7992 44.4C50.5992 44.1 50.1992 43.9 49.7992 44ZM42.0992 36.6C41.9992 36.4 41.8992 36.3 41.6992 36.2C41.4992 36.1 41.3992 36 41.1992 35.9C40.9992 35.8 40.7992 35.7 40.5992 35.7C40.5992 35.2 40.5992 34.8 40.5992 34.3C40.7992 34.3 40.8992 34.4 40.9992 34.5C41.0992 34.6 41.1992 34.7 41.2992 34.8C41.3992 34.9 41.3992 35 41.4992 35.1C41.5992 35.2 41.5992 35.2 41.6992 35.2C41.7992 35.2 41.8992 35.2 41.9992 35.1C42.0992 35 42.0992 34.9 42.0992 34.8C42.0992 34.6 42.0992 34.5 41.8992 34.3C41.7992 34.2 41.6992 34 41.4992 33.9C41.2992 33.8 41.1992 33.7 40.9992 33.7C40.7992 33.7 40.5992 33.6 40.4992 33.6C40.4992 33.5 40.4992 33.5 40.4992 33.4C40.4992 33.3 40.4992 33.3 40.3992 33.2C40.2992 33.1 40.2992 33.1 40.1992 33.1C40.0992 33.1 40.0992 33.1 39.9992 33.2C39.9992 33.2 39.8992 33.3 39.9992 33.4V33.5C39.7992 33.5 39.4992 33.6 39.2992 33.7C39.0992 33.8 38.8992 33.9 38.6992 34C38.4992 34.1 38.3992 34.3 38.3992 34.4C38.2992 34.6 38.2992 34.8 38.2992 35C38.2992 35.4 38.4992 35.6 38.7992 35.9C39.0992 36.1 39.4992 36.4 39.8992 36.5C39.8992 37 39.8992 37.5 39.8992 38C39.6992 38 39.5992 37.9 39.4992 37.9C39.3992 37.8 39.2992 37.8 39.2992 37.7C39.2992 37.6 39.1992 37.5 39.1992 37.4C39.1992 37.3 39.1992 37.2 39.0992 37.1C39.0992 37 38.9992 37 38.9992 36.9C38.8992 36.8 38.8992 36.8 38.6992 36.8C38.5992 36.8 38.4992 36.8 38.3992 36.9C38.2992 37 38.2992 37.1 38.2992 37.2C38.2992 37.3 38.2992 37.5 38.3992 37.7C38.4992 37.9 38.5992 38 38.6992 38.2C38.7992 38.3 38.9992 38.5 39.1992 38.6C39.3992 38.7 39.6992 38.7 39.9992 38.7C39.9992 38.8 39.9992 39 39.9992 39.1C39.9992 39.2 39.9992 39.2 40.0992 39.2C40.0992 39.2 40.1992 39.3 40.2992 39.3C40.3992 39.3 40.3992 39.3 40.4992 39.2C40.4992 39.2 40.5992 39.1 40.4992 39C40.4992 38.9 40.4992 38.7 40.4992 38.6C40.7992 38.6 40.9992 38.5 41.2992 38.4C41.4992 38.3 41.6992 38.2 41.8992 38.1C42.0992 38 42.1992 37.8 42.1992 37.7C42.2992 37.5 42.2992 37.4 42.2992 37.1C42.1992 37 42.1992 36.8 42.0992 36.6ZM39.5992 35.2C39.4992 35.1 39.3992 34.9 39.3992 34.8C39.3992 34.7 39.3992 34.7 39.3992 34.6C39.3992 34.5 39.4992 34.5 39.4992 34.4C39.5992 34.3 39.5992 34.3 39.6992 34.3C39.7992 34.3 39.8992 34.2 39.9992 34.2C39.9992 34.6 39.9992 35 39.9992 35.5C39.8992 35.4 39.7992 35.3 39.5992 35.2ZM41.2992 37.6C41.2992 37.7 41.1992 37.7 41.0992 37.8C40.9992 37.9 40.8992 37.9 40.7992 37.9C40.6992 37.9 40.5992 37.9 40.4992 38C40.4992 37.5 40.4992 37.1 40.4992 36.6C40.5992 36.6 40.6992 36.7 40.7992 36.7C40.8992 36.7 40.9992 36.8 41.0992 36.8C41.1992 36.9 41.1992 36.9 41.2992 37C41.3992 37.1 41.3992 37.2 41.3992 37.3C41.3992 37.4 41.3992 37.5 41.2992 37.6ZM50.4992 29.5C50.2992 29.4 49.9992 29.3 49.7992 29.4C48.5992 29.9 47.1992 30.2 45.4992 30.2C43.4992 30.2 41.3992 29.9 39.3992 29.5C37.3992 29.2 35.2992 28.8 33.3992 28.8C31.7992 28.8 30.4992 29 29.2992 29.5C28.9992 29.7 28.7992 30 28.7992 30.3V42.5C28.7992 42.7 28.8992 43 29.0992 43.1C29.2992 43.2 29.5992 43.3 29.7992 43.2C31.0992 42.7 32.4992 42.4 34.1992 42.4C35.9992 42.4 37.8992 42.7 39.7992 43C41.6992 43.3 43.6992 43.6 45.6992 43.6C47.3992 43.6 48.7992 43.4 50.1992 42.9C50.4992 42.8 50.6992 42.5 50.6992 42.2V30.1C50.7992 29.9 50.6992 29.6 50.4992 29.5ZM49.2992 41.6C48.2992 41.9 47.0992 42 45.7992 42C43.9992 42 41.9992 41.7 40.0992 41.4C38.1992 41.1 36.1992 40.8 34.2992 40.8C32.7992 40.8 31.4992 41 30.2992 41.3V30.8C31.1992 30.5 32.0992 30.4 33.2992 30.4C35.0992 30.4 36.9992 30.7 39.0992 31C41.1992 31.3 43.3992 31.7 45.4992 31.7C46.8992 31.7 48.1992 31.5 49.2992 31.2V41.6Z" fill="white"/>
</svg>
