<svg width="24" height="23" viewBox="0 0 24 23" fill="none" xmlns="http://www.w3.org/2000/svg">
<path d="M12 0.450684C5.787 0.450684 0.75 5.48731 0.75 11.7007C0.75 17.9141 5.787 22.9507 12 22.9507C18.213 22.9507 23.25 17.9137 23.25 11.7007C23.25 5.48731 18.213 0.450684 12 0.450684ZM13.1295 17.1412H10.8709V6.26018H13.1295V17.1412Z" fill="black"/>
<path d="M12 0.450684C5.787 0.450684 0.75 5.48731 0.75 11.7007C0.75 17.9141 5.787 22.9507 12 22.9507C18.213 22.9507 23.25 17.9137 23.25 11.7007C23.25 5.48731 18.213 0.450684 12 0.450684ZM13.1295 17.1412H10.8709V6.26018H13.1295V17.1412Z" fill="#323232"/>
</svg>
