<svg width="24" height="24" viewBox="0 0 24 24" fill="none" xmlns="http://www.w3.org/2000/svg">
<path fill-rule="evenodd" clip-rule="evenodd" d="M11.828 2.53823C11.1203 2.52545 10.4171 2.65235 9.7585 2.91167C9.09993 3.17098 8.49895 3.55762 7.98997 4.04946C7.481 4.5413 7.074 5.12868 6.79229 5.77799C6.51058 6.4273 6.35967 7.12579 6.34822 7.83349V15.2347C6.34822 15.6836 6.16986 16.1142 5.85239 16.4317C5.53492 16.7492 5.10433 16.9275 4.65536 16.9275H2.53929C1.86583 16.9275 1.21995 16.66 0.74374 16.1838C0.267531 15.7076 0 15.0617 0 14.3882L0 11.0025C0 10.3291 0.267531 9.68318 0.74374 9.20697C1.21995 8.73076 1.86583 8.46323 2.53929 8.46323H3.80893V7.80302C3.82437 6.76258 4.04463 5.73537 4.45711 4.78006C4.8696 3.82475 5.46623 2.96006 6.21293 2.23536C6.95964 1.51066 7.84179 0.940156 8.80901 0.556429C9.77623 0.172702 10.8096 -0.0167322 11.85 -0.00105369C12.8904 -0.0167322 13.9238 0.172702 14.891 0.556429C15.8582 0.940156 16.7404 1.51066 17.4871 2.23536C18.2338 2.96006 18.8304 3.82475 19.2429 4.78006C19.6554 5.73537 19.8756 6.76258 19.8911 7.80302V8.46323H21.1607C21.8342 8.46323 22.4801 8.73076 22.9563 9.20697C23.4325 9.68318 23.7 10.3291 23.7 11.0025V14.3882C23.7 15.0617 23.4325 15.7076 22.9563 16.1838C22.4801 16.66 21.8342 16.9275 21.1607 16.9275H19.8911V17.7739C19.8913 18.9179 19.4703 20.0219 18.7084 20.8753C17.9466 21.7286 16.8972 22.2716 15.7605 22.4005C15.5398 22.7946 15.2179 23.1227 14.8281 23.351C14.4382 23.5792 13.9946 23.6993 13.5429 23.6989H11.0036C10.3301 23.6989 9.68423 23.4314 9.20803 22.9552C8.73182 22.479 8.46429 21.8331 8.46429 21.1597C8.46429 20.4862 8.73182 19.8403 9.20803 19.3641C9.68423 18.8879 10.3301 18.6204 11.0036 18.6204H13.5429C14.4604 18.6204 15.2645 19.1062 15.7097 19.8358C16.1763 19.7286 16.5928 19.4663 16.891 19.0918C17.1893 18.7173 17.3517 18.2527 17.3518 17.7739V7.8318C17.3402 7.12046 17.1877 6.41847 16.9031 5.76643C16.6186 5.11439 16.2076 4.52521 15.6939 4.03297C15.1803 3.54073 14.5741 3.15518 13.9106 2.89862C13.247 2.64206 12.5392 2.51957 11.828 2.53823Z" fill="black"/>
<path fill-rule="evenodd" clip-rule="evenodd" d="M11.828 2.53823C11.1203 2.52545 10.4171 2.65235 9.7585 2.91167C9.09993 3.17098 8.49895 3.55762 7.98997 4.04946C7.481 4.5413 7.074 5.12868 6.79229 5.77799C6.51058 6.4273 6.35967 7.12579 6.34822 7.83349V15.2347C6.34822 15.6836 6.16986 16.1142 5.85239 16.4317C5.53492 16.7492 5.10433 16.9275 4.65536 16.9275H2.53929C1.86583 16.9275 1.21995 16.66 0.74374 16.1838C0.267531 15.7076 0 15.0617 0 14.3882L0 11.0025C0 10.3291 0.267531 9.68318 0.74374 9.20697C1.21995 8.73076 1.86583 8.46323 2.53929 8.46323H3.80893V7.80302C3.82437 6.76258 4.04463 5.73537 4.45711 4.78006C4.8696 3.82475 5.46623 2.96006 6.21293 2.23536C6.95964 1.51066 7.84179 0.940156 8.80901 0.556429C9.77623 0.172702 10.8096 -0.0167322 11.85 -0.00105369C12.8904 -0.0167322 13.9238 0.172702 14.891 0.556429C15.8582 0.940156 16.7404 1.51066 17.4871 2.23536C18.2338 2.96006 18.8304 3.82475 19.2429 4.78006C19.6554 5.73537 19.8756 6.76258 19.8911 7.80302V8.46323H21.1607C21.8342 8.46323 22.4801 8.73076 22.9563 9.20697C23.4325 9.68318 23.7 10.3291 23.7 11.0025V14.3882C23.7 15.0617 23.4325 15.7076 22.9563 16.1838C22.4801 16.66 21.8342 16.9275 21.1607 16.9275H19.8911V17.7739C19.8913 18.9179 19.4703 20.0219 18.7084 20.8753C17.9466 21.7286 16.8972 22.2716 15.7605 22.4005C15.5398 22.7946 15.2179 23.1227 14.8281 23.351C14.4382 23.5792 13.9946 23.6993 13.5429 23.6989H11.0036C10.3301 23.6989 9.68423 23.4314 9.20803 22.9552C8.73182 22.479 8.46429 21.8331 8.46429 21.1597C8.46429 20.4862 8.73182 19.8403 9.20803 19.3641C9.68423 18.8879 10.3301 18.6204 11.0036 18.6204H13.5429C14.4604 18.6204 15.2645 19.1062 15.7097 19.8358C16.1763 19.7286 16.5928 19.4663 16.891 19.0918C17.1893 18.7173 17.3517 18.2527 17.3518 17.7739V7.8318C17.3402 7.12046 17.1877 6.41847 16.9031 5.76643C16.6186 5.11439 16.2076 4.52521 15.6939 4.03297C15.1803 3.54073 14.5741 3.15518 13.9106 2.89862C13.247 2.64206 12.5392 2.51957 11.828 2.53823Z" fill="#323232"/>
</svg>
