<svg width="18" height="23" viewBox="0 0 18 23" fill="none" xmlns="http://www.w3.org/2000/svg">
<mask id="mask0_1725_8178" style="mask-type:luminance" maskUnits="userSpaceOnUse" x="0" y="0" width="18" height="23">
<path d="M1 2.7002C1 2.43498 1.10536 2.18062 1.29289 1.99309C1.48043 1.80555 1.73478 1.7002 2 1.7002H12L17 6.7002V20.7002C17 20.9654 16.8946 21.2198 16.7071 21.4073C16.5196 21.5948 16.2652 21.7002 16 21.7002H2C1.73478 21.7002 1.48043 21.5948 1.29289 21.4073C1.10536 21.2198 1 20.9654 1 20.7002V2.7002Z" fill="white" stroke="white" stroke-width="2" stroke-linejoin="round"/>
<path d="M5 9.70056H13M5 13.7006H13" stroke="black" stroke-width="2" stroke-linecap="round" stroke-linejoin="round"/>
</mask>
<g mask="url(#mask0_1725_8178)">
<path d="M-3 -0.299805H21V23.7002H-3V-0.299805Z" fill="black"/>
<path d="M-3 -0.299805H21V23.7002H-3V-0.299805Z" fill="#323232"/>
</g>
</svg>
