<svg width="20" height="23" viewBox="0 0 20 23" fill="none" xmlns="http://www.w3.org/2000/svg">
<path d="M17.4607 3.06235H12.9721C12.5211 1.8167 11.3398 0.914673 9.94385 0.914673C8.54786 0.914673 7.36664 1.8167 6.91563 3.06235H2.42698C1.24575 3.06235 0.279297 4.02881 0.279297 5.21003V20.2438C0.279297 21.425 1.24575 22.3915 2.42698 22.3915H17.4607C18.642 22.3915 19.6084 21.425 19.6084 20.2438V5.21003C19.6084 4.02881 18.642 3.06235 17.4607 3.06235ZM9.94385 2.79389C10.3841 2.79389 10.7492 3.159 10.7492 3.59927C10.7492 4.03955 10.3841 4.40465 9.94385 4.40465C9.50358 4.40465 9.13847 4.03955 9.13847 3.59927C9.13847 3.159 9.50358 2.79389 9.94385 2.79389ZM6.61495 18.0961H5.11158C4.8109 18.0961 4.57466 17.8599 4.57466 17.5592V16.0236C4.57466 15.884 4.62835 15.7444 4.73573 15.6478L10.9747 9.40875L13.2513 11.6853L6.99079 17.9458C6.88993 18.043 6.75505 18.097 6.61495 18.0961ZM15.152 9.79533L14.0137 10.9336L11.7372 8.65706L12.8754 7.51879C13.0902 7.30402 13.4231 7.30402 13.6379 7.51879L15.152 9.0329C15.3667 9.24767 15.3667 9.58056 15.152 9.79533Z" fill="#323232"/>
</svg>
