<svg width="171" height="82" viewBox="0 0 171 82" fill="none" xmlns="http://www.w3.org/2000/svg">
<path d="M132.46 47.0574C131.722 50.2725 131.653 53.6051 132.257 56.848C132.862 60.0909 134.128 63.1746 135.976 65.9071C134.969 68.2913 133.467 70.4347 131.57 72.1962C129.674 73.9577 127.425 75.2972 124.973 76.1264C112.576 80.1626 100.503 72.6676 94.3529 62.0582L93.9826 61.4168C96.3603 60.4452 98.4536 58.8878 100.068 56.8896C104.052 51.7608 101.377 41.3079 93.5003 43.1553C85.888 44.9419 86.585 52.9207 88.7854 59.0173C87.2339 59.3835 85.6547 59.621 84.064 59.7273C75.5785 60.2343 65.8359 56.9344 59.4968 50.6737C62.197 48.7483 64.2189 46.1454 64.7324 42.6968C65.5529 37.2934 59.7899 30.8773 54.1608 33.0094C46.7183 35.8096 50.5571 44.8394 54.0665 49.7222C51.2406 50.8542 48.248 51.515 45.2082 51.6784C39.9543 51.9271 34.7143 50.955 29.8992 48.8383C25.0842 46.7216 20.8251 43.518 17.4562 39.4787C16.4701 38.2861 15.5619 37.0312 14.7373 35.7217C17.5308 33.9684 20.1308 31.5204 20.7117 28.1673C20.9622 26.6254 20.7382 25.0437 20.0694 23.632C19.4005 22.2203 18.3184 21.0452 16.9665 20.2625C15.6653 19.6143 14.1649 19.4905 12.7751 19.9166C11.3853 20.3427 10.2122 21.2863 9.49807 22.5524C7.78855 25.4637 8.30054 29.3342 9.38224 32.3505C9.6248 33.0351 9.90208 33.7058 10.1957 34.3731C8.80437 34.9986 7.36963 35.5227 5.90273 35.9415C-4.29317 38.8715 -15.5984 36.8647 -24.5726 31.3618C-25.5049 30.7944 -26.4001 30.1751 -27.2731 29.5306C-26.5036 27.5605 -25.9284 25.52 -25.5554 23.4381C-24.3468 16.6439 -24.6204 5.29308 -31.9695 1.79027C-38.838 -1.48305 -42.7394 5.93741 -42.3757 11.7201C-41.9349 19.0648 -36.6745 25.7955 -31.2563 30.3765C-30.9968 30.5932 -30.7426 30.8007 -30.4811 31.0102C-32.5686 35.5691 -35.7306 39.5538 -39.6961 42.6224C-40.5678 43.3028 -39.412 44.8285 -38.5153 44.1703C-34.336 41.0916 -30.9307 37.0823 -28.5691 32.4597C-17.0993 40.6451 -1.24098 43.2058 11.7305 37.3172C18.463 49.1051 32.7379 56.3613 46.2199 55.1871C49.7397 54.8898 53.183 53.9946 56.402 52.54C62.0369 58.3387 69.448 62.0883 77.4579 63.1932C81.7631 63.8111 86.1453 63.6332 90.3863 62.6685L90.5532 62.9997C94.6925 70.6771 101.529 77.2491 109.985 79.8868C121.061 83.327 133.628 78.6312 138.776 69.3062C140.108 70.6159 141.608 71.7422 143.238 72.6552C151.821 77.48 162.72 75.8848 169.988 69.4592C171.865 67.8012 169.12 65.0364 167.25 66.6964C161.311 71.952 152.21 73.2544 145.204 69.3091C143.388 68.2878 141.766 66.9565 140.41 65.3756C141.29 62.2645 141.419 58.9886 140.786 55.8179C140.102 52.1809 138.329 48.8376 135.703 46.23C135.466 45.9868 135.17 45.8103 134.843 45.7183C134.516 45.6263 134.171 45.6221 133.842 45.706C133.514 45.7899 133.213 45.959 132.97 46.1962C132.727 46.4335 132.552 46.7306 132.46 47.0574ZM-36.9857 18.8341C-38.5608 16.2906 -39.4003 13.3606 -39.4112 10.3689C-39.3132 6.59214 -37.1484 2.61782 -32.8676 4.79501C-26.4112 8.0741 -27.1336 19.7312 -28.5685 25.5199C-28.7912 26.351 -29.0139 27.182 -29.2925 27.9904C-32.3748 25.4138 -34.979 22.3143 -36.9857 18.8341ZM12.4806 24.343C14.808 20.9467 17.8273 25.4039 17.3931 27.8048C17.0472 29.7027 15.3513 31.2622 13.8696 32.2826C13.6198 32.4635 13.3646 32.6352 13.1022 32.805C11.646 29.8278 10.9 26.5994 12.4497 24.3425L12.4806 24.343ZM54.5879 43.7584C53.442 41.2129 52.8976 35.0642 57.4843 36.5334C58.1797 36.7619 58.8209 37.1307 59.3683 37.6167C59.9157 38.1028 60.3576 38.6959 60.6669 39.3594C60.9761 40.0229 61.1461 40.7428 61.1662 41.4746C61.1864 42.2063 61.0564 42.9344 60.7843 43.614C60.0521 45.4241 58.7979 46.9754 57.1813 48.0705C56.1449 46.7377 55.2644 45.2908 54.557 43.7579L54.5879 43.7584ZM91.0736 54.1776C90.847 53.2464 90.8094 52.2792 90.9631 51.3333C91.1168 50.3873 91.4586 49.4818 91.9684 48.6702C93.8247 45.9919 97.2384 46.6355 98.1895 49.6478C99.5121 53.8749 96.2343 56.4821 92.2777 58.009C91.7241 56.7819 91.3099 55.4966 91.0428 54.1771L91.0736 54.1776ZM137.329 60.4528C136.257 57.967 135.696 55.2906 135.681 52.5833C136.944 55.0039 137.504 57.7298 137.298 60.4523L137.329 60.4528Z" fill="#196BFE"/>
</svg>
