<svg width="824" height="509" viewBox="0 0 824 509" fill="none" xmlns="http://www.w3.org/2000/svg">
<g clip-path="url(#clip0_1635_5276)">
<rect width="824" height="509" rx="20" fill="white"/>
<g clip-path="url(#clip1_1635_5276)">
<path d="M0 164.995H824V663.995H0V164.995Z" fill="#D7E4FF"/>
<path opacity="0.64" d="M1.84949 663.995H823.846V164.995H510.151C530.331 194.279 562.7 213.007 598.311 216.001C694.536 226.203 738.255 398.198 621.07 427.68C503.884 457.162 664.79 613.549 514.364 617.017C363.939 620.486 26.3039 575.345 0 650.019V659.71C0.469777 661.196 1.08941 662.632 1.84949 663.995Z" fill="#A5C5FF"/>
<path fill-rule="evenodd" clip-rule="evenodd" d="M121.344 331.634C121.4 372.852 155.041 406.252 196.556 406.308C238.083 406.28 271.741 372.863 271.769 331.634V290.828C271.769 249.587 238.095 216.154 196.556 216.154C155.018 216.154 121.344 249.587 121.344 290.828V331.634ZM143.743 290.727C143.771 261.779 167.4 238.32 196.556 238.292C225.72 238.32 249.364 261.771 249.42 290.727V331.532C250.021 350.664 240.084 368.605 223.488 378.347C206.892 388.09 186.271 388.09 169.675 378.347C153.079 368.605 143.142 350.664 143.743 331.532V290.727Z" fill="#7387F9"/>
<path d="M196.556 406.308L196.551 410.287L196.559 410.287L196.556 406.308ZM121.344 331.634H117.364L117.364 331.639L121.344 331.634ZM271.769 331.634L275.749 331.637V331.634H271.769ZM121.344 290.828H117.364H121.344ZM196.556 238.292L196.56 234.312L196.552 234.312L196.556 238.292ZM143.743 290.727L139.763 290.723V290.727H143.743ZM249.42 290.727H253.4L253.4 290.719L249.42 290.727ZM249.42 331.532H245.441V331.595L245.443 331.657L249.42 331.532ZM143.743 331.532L147.72 331.657L147.722 331.595V331.532H143.743ZM196.562 402.328C157.213 402.275 125.377 370.626 125.323 331.628L117.364 331.639C117.424 375.078 152.869 410.228 196.551 410.287L196.562 402.328ZM267.79 331.631C267.763 370.638 235.912 402.302 196.554 402.328L196.559 410.287C240.255 410.258 275.719 375.089 275.749 331.637L267.79 331.631ZM267.79 290.828V331.634H275.749V290.828H267.79ZM196.556 220.134C235.924 220.134 267.79 251.812 267.79 290.828H275.749C275.749 247.362 240.266 212.175 196.556 212.175V220.134ZM125.323 290.828C125.323 251.812 157.188 220.134 196.556 220.134V212.175C152.847 212.175 117.364 247.362 117.364 290.828H125.323ZM125.323 331.634V290.828H117.364V331.634H125.323ZM196.552 234.312C165.228 234.342 139.794 259.554 139.763 290.723L147.722 290.73C147.748 264.005 169.571 242.297 196.56 242.271L196.552 234.312ZM253.4 290.719C253.339 259.543 227.891 234.342 196.56 234.312L196.552 242.271C223.55 242.297 245.389 263.999 245.441 290.734L253.4 290.719ZM253.4 331.532V290.727H245.441V331.532H253.4ZM225.503 381.779C243.346 371.304 254.045 352.005 253.398 331.407L245.443 331.657C245.998 349.324 236.822 365.905 221.473 374.915L225.503 381.779ZM167.66 381.779C185.5 392.252 207.663 392.252 225.503 381.779L221.473 374.915C206.122 383.928 187.041 383.928 171.69 374.915L167.66 381.779ZM139.765 331.407C139.118 352.005 149.817 371.304 167.66 381.779L171.69 374.915C156.341 365.905 147.165 349.324 147.72 331.657L139.765 331.407ZM139.763 290.727V331.532H147.722V290.727H139.763Z" fill="#1C1C1C"/>
<rect x="91.4932" y="333.623" width="214.592" height="236.672" rx="41.3164" fill="#196BFE" stroke="#1C1C1C" stroke-width="7.95897"/>
<path d="M225.581 429.159C225.574 416.428 216.489 405.484 203.904 403.044C191.319 400.603 178.755 407.35 173.923 419.143C169.091 430.935 173.344 444.474 184.071 451.449L175.697 501.487H221.934L213.56 451.449C221.084 446.496 225.6 438.123 225.581 429.159Z" fill="#1C1C1C" stroke="#1C1C1C" stroke-width="7.95897" stroke-linecap="round"/>
</g>
<path d="M54.0539 82.2044H63.1098C63.5454 85.9076 67.4043 88.335 72.3835 88.335C77.3938 88.335 80.8169 85.9388 80.8169 82.6401C80.8169 79.7148 78.6697 78.0966 73.2548 76.8829L67.4043 75.607C59.1264 73.8332 55.0497 69.632 55.0497 63.0657C55.0497 54.7879 62.2073 49.3108 72.2279 49.3108C82.6841 49.3108 89.2504 54.6945 89.406 62.8168H80.5991C80.2879 59.0201 76.9581 56.7173 72.259 56.7173C67.6221 56.7173 64.5102 58.9268 64.5102 62.2566C64.5102 65.0263 66.6885 66.5823 71.8544 67.7648L77.3004 68.9162C86.294 70.8457 90.2151 74.7045 90.2151 81.5509C90.2151 90.2644 83.1509 95.7726 72.01 95.7726C61.2115 95.7726 54.334 90.6379 54.0539 82.2044ZM124.479 87.2147V94.9946H94.7287V50.0888H124.479V57.8376H104.127V68.6673H123.328V75.8871H104.127V87.2147H124.479ZM149.843 95.7726C136.773 95.7726 128.588 87.028 128.588 72.5261C128.588 58.0554 136.835 49.3108 149.843 49.3108C160.642 49.3108 168.857 56.1571 169.573 66.2088H160.424C159.552 60.7006 155.32 57.0907 149.843 57.0907C142.748 57.0907 138.173 63.0346 138.173 72.495C138.173 82.0799 142.686 87.9927 149.874 87.9927C155.445 87.9927 159.459 84.7251 160.455 79.4036H169.604C168.546 89.4242 160.86 95.7726 149.843 95.7726ZM183.547 50.0888V78.1899C183.547 83.9471 186.939 87.7126 192.976 87.7126C198.983 87.7126 202.375 83.9471 202.375 78.1899V50.0888H211.773V79.1235C211.773 89.0196 204.46 95.7726 192.976 95.7726C181.462 95.7726 174.149 89.0196 174.149 79.1235V50.0888H183.547ZM227.396 57.433V71.7481H235.487C240.217 71.7481 242.987 69.0407 242.987 64.5906C242.987 60.2338 240.062 57.433 235.394 57.433H227.396ZM227.396 78.5634V94.9946H217.998V50.0888H236.39C246.722 50.0888 252.634 55.5347 252.634 64.4039C252.634 70.161 249.647 75.1402 244.481 77.163L253.941 94.9946H243.298L234.927 78.5634H227.396ZM287.303 87.2147V94.9946H257.552V50.0888H287.303V57.8376H266.951V68.6673H286.152V75.8871H266.951V87.2147H287.303Z" fill="#2F2F2F"/>
<path d="M325.312 61.5571L327.57 53.6196H328.664L328.031 56.7056L325.602 64.9946H324.516L325.312 61.5571ZM322.977 53.6196L324.773 61.4009L325.312 64.9946H324.234L321.477 53.6196H322.977ZM331.586 61.3931L333.344 53.6196H334.852L332.102 64.9946H331.023L331.586 61.3931ZM328.828 53.6196L331.023 61.5571L331.82 64.9946H330.734L328.391 56.7056L327.75 53.6196H328.828ZM339.562 65.1509C338.974 65.1509 338.44 65.0519 337.961 64.854C337.487 64.6509 337.078 64.367 336.734 64.0024C336.396 63.6379 336.135 63.2056 335.953 62.7056C335.771 62.2056 335.68 61.6587 335.68 61.0649V60.7368C335.68 60.0493 335.781 59.4373 335.984 58.9009C336.188 58.3592 336.464 57.9009 336.812 57.5259C337.161 57.1509 337.557 56.867 338 56.6743C338.443 56.4816 338.901 56.3853 339.375 56.3853C339.979 56.3853 340.5 56.4894 340.938 56.6978C341.38 56.9061 341.742 57.1978 342.023 57.5728C342.305 57.9425 342.513 58.38 342.648 58.8853C342.784 59.3853 342.852 59.9321 342.852 60.5259V61.1743H336.539V59.9946H341.406V59.8853C341.385 59.5103 341.307 59.1457 341.172 58.7915C341.042 58.4373 340.833 58.1457 340.547 57.9165C340.26 57.6873 339.87 57.5728 339.375 57.5728C339.047 57.5728 338.745 57.6431 338.469 57.7837C338.193 57.9191 337.956 58.1222 337.758 58.3931C337.56 58.6639 337.406 58.9946 337.297 59.3853C337.188 59.7759 337.133 60.2264 337.133 60.7368V61.0649C337.133 61.466 337.188 61.8436 337.297 62.1978C337.411 62.5467 337.576 62.854 337.789 63.1196C338.008 63.3853 338.271 63.5936 338.578 63.7446C338.891 63.8957 339.245 63.9712 339.641 63.9712C340.151 63.9712 340.583 63.867 340.938 63.6587C341.292 63.4504 341.602 63.1717 341.867 62.8228L342.742 63.5181C342.56 63.7941 342.328 64.0571 342.047 64.3071C341.766 64.5571 341.419 64.7603 341.008 64.9165C340.602 65.0728 340.12 65.1509 339.562 65.1509ZM351.078 63.6899L353.391 56.5415H354.867L351.828 64.9946H350.859L351.078 63.6899ZM349.148 56.5415L351.531 63.729L351.695 64.9946H350.727L347.664 56.5415H349.148ZM361.117 63.5493V59.1978C361.117 58.8644 361.049 58.5754 360.914 58.3306C360.784 58.0806 360.586 57.8879 360.32 57.7524C360.055 57.617 359.727 57.5493 359.336 57.5493C358.971 57.5493 358.651 57.6118 358.375 57.7368C358.104 57.8618 357.891 58.0259 357.734 58.229C357.583 58.4321 357.508 58.6509 357.508 58.8853H356.062C356.062 58.5832 356.141 58.2837 356.297 57.9868C356.453 57.6899 356.677 57.4217 356.969 57.1821C357.266 56.9373 357.62 56.7446 358.031 56.604C358.448 56.4582 358.911 56.3853 359.422 56.3853C360.036 56.3853 360.578 56.4894 361.047 56.6978C361.521 56.9061 361.891 57.2212 362.156 57.6431C362.427 58.0597 362.562 58.5832 362.562 59.2134V63.1509C362.562 63.4321 362.586 63.7316 362.633 64.0493C362.685 64.367 362.76 64.6405 362.859 64.8696V64.9946H361.352C361.279 64.828 361.221 64.6066 361.18 64.3306C361.138 64.0493 361.117 63.7889 361.117 63.5493ZM361.367 59.8696L361.383 60.8853H359.922C359.51 60.8853 359.143 60.9191 358.82 60.9868C358.497 61.0493 358.227 61.1457 358.008 61.2759C357.789 61.4061 357.622 61.5701 357.508 61.7681C357.393 61.9608 357.336 62.1873 357.336 62.4478C357.336 62.7134 357.396 62.9556 357.516 63.1743C357.635 63.3931 357.815 63.5675 358.055 63.6978C358.299 63.8228 358.599 63.8853 358.953 63.8853C359.396 63.8853 359.786 63.7915 360.125 63.604C360.464 63.4165 360.732 63.1873 360.93 62.9165C361.133 62.6457 361.242 62.3826 361.258 62.1274L361.875 62.8228C361.839 63.0415 361.74 63.2837 361.578 63.5493C361.417 63.8149 361.201 64.0701 360.93 64.3149C360.664 64.5545 360.346 64.755 359.977 64.9165C359.612 65.0728 359.201 65.1509 358.742 65.1509C358.169 65.1509 357.667 65.0389 357.234 64.8149C356.807 64.591 356.474 64.2915 356.234 63.9165C356 63.5363 355.883 63.1118 355.883 62.6431C355.883 62.1899 355.971 61.7915 356.148 61.4478C356.326 61.0988 356.581 60.8097 356.914 60.5806C357.247 60.3462 357.648 60.1691 358.117 60.0493C358.586 59.9295 359.109 59.8696 359.688 59.8696H361.367ZM366.406 52.9946V64.9946H364.953V52.9946H366.406ZM373.898 63.0415V56.5415H375.352V64.9946H373.969L373.898 63.0415ZM374.172 61.2603L374.773 61.2446C374.773 61.8071 374.714 62.328 374.594 62.8071C374.479 63.2811 374.292 63.6925 374.031 64.0415C373.771 64.3905 373.43 64.6639 373.008 64.8618C372.586 65.0545 372.073 65.1509 371.469 65.1509C371.057 65.1509 370.68 65.091 370.336 64.9712C369.997 64.8514 369.706 64.6665 369.461 64.4165C369.216 64.1665 369.026 63.841 368.891 63.4399C368.76 63.0389 368.695 62.5571 368.695 61.9946V56.5415H370.141V62.0103C370.141 62.3905 370.182 62.7056 370.266 62.9556C370.354 63.2004 370.471 63.3957 370.617 63.5415C370.768 63.6821 370.935 63.7811 371.117 63.8384C371.305 63.8957 371.497 63.9243 371.695 63.9243C372.31 63.9243 372.797 63.8071 373.156 63.5728C373.516 63.3332 373.773 63.0129 373.93 62.6118C374.091 62.2056 374.172 61.755 374.172 61.2603ZM381.062 65.1509C380.474 65.1509 379.94 65.0519 379.461 64.854C378.987 64.6509 378.578 64.367 378.234 64.0024C377.896 63.6379 377.635 63.2056 377.453 62.7056C377.271 62.2056 377.18 61.6587 377.18 61.0649V60.7368C377.18 60.0493 377.281 59.4373 377.484 58.9009C377.688 58.3592 377.964 57.9009 378.312 57.5259C378.661 57.1509 379.057 56.867 379.5 56.6743C379.943 56.4816 380.401 56.3853 380.875 56.3853C381.479 56.3853 382 56.4894 382.438 56.6978C382.88 56.9061 383.242 57.1978 383.523 57.5728C383.805 57.9425 384.013 58.38 384.148 58.8853C384.284 59.3853 384.352 59.9321 384.352 60.5259V61.1743H378.039V59.9946H382.906V59.8853C382.885 59.5103 382.807 59.1457 382.672 58.7915C382.542 58.4373 382.333 58.1457 382.047 57.9165C381.76 57.6873 381.37 57.5728 380.875 57.5728C380.547 57.5728 380.245 57.6431 379.969 57.7837C379.693 57.9191 379.456 58.1222 379.258 58.3931C379.06 58.6639 378.906 58.9946 378.797 59.3853C378.688 59.7759 378.633 60.2264 378.633 60.7368V61.0649C378.633 61.466 378.688 61.8436 378.797 62.1978C378.911 62.5467 379.076 62.854 379.289 63.1196C379.508 63.3853 379.771 63.5936 380.078 63.7446C380.391 63.8957 380.745 63.9712 381.141 63.9712C381.651 63.9712 382.083 63.867 382.438 63.6587C382.792 63.4504 383.102 63.1717 383.367 62.8228L384.242 63.5181C384.06 63.7941 383.828 64.0571 383.547 64.3071C383.266 64.5571 382.919 64.7603 382.508 64.9165C382.102 65.0728 381.62 65.1509 381.062 65.1509ZM389.625 60.8618V60.6821C389.625 60.0728 389.714 59.5076 389.891 58.9868C390.068 58.4608 390.323 58.005 390.656 57.6196C390.99 57.229 391.393 56.9269 391.867 56.7134C392.341 56.4946 392.872 56.3853 393.461 56.3853C394.055 56.3853 394.589 56.4946 395.062 56.7134C395.542 56.9269 395.948 57.229 396.281 57.6196C396.62 58.005 396.878 58.4608 397.055 58.9868C397.232 59.5076 397.32 60.0728 397.32 60.6821V60.8618C397.32 61.4712 397.232 62.0363 397.055 62.5571C396.878 63.078 396.62 63.5337 396.281 63.9243C395.948 64.3097 395.544 64.6118 395.07 64.8306C394.602 65.0441 394.07 65.1509 393.477 65.1509C392.883 65.1509 392.349 65.0441 391.875 64.8306C391.401 64.6118 390.995 64.3097 390.656 63.9243C390.323 63.5337 390.068 63.078 389.891 62.5571C389.714 62.0363 389.625 61.4712 389.625 60.8618ZM391.07 60.6821V60.8618C391.07 61.2837 391.12 61.6821 391.219 62.0571C391.318 62.4269 391.466 62.755 391.664 63.0415C391.867 63.328 392.12 63.5545 392.422 63.7212C392.724 63.8826 393.076 63.9634 393.477 63.9634C393.872 63.9634 394.219 63.8826 394.516 63.7212C394.818 63.5545 395.068 63.328 395.266 63.0415C395.464 62.755 395.612 62.4269 395.711 62.0571C395.815 61.6821 395.867 61.2837 395.867 60.8618V60.6821C395.867 60.2655 395.815 59.8722 395.711 59.5024C395.612 59.1274 395.461 58.7967 395.258 58.5103C395.06 58.2186 394.81 57.9894 394.508 57.8228C394.211 57.6561 393.862 57.5728 393.461 57.5728C393.065 57.5728 392.716 57.6561 392.414 57.8228C392.117 57.9894 391.867 58.2186 391.664 58.5103C391.466 58.7967 391.318 59.1274 391.219 59.5024C391.12 59.8722 391.07 60.2655 391.07 60.6821ZM404.305 63.0415V56.5415H405.758V64.9946H404.375L404.305 63.0415ZM404.578 61.2603L405.18 61.2446C405.18 61.8071 405.12 62.328 405 62.8071C404.885 63.2811 404.698 63.6925 404.438 64.0415C404.177 64.3905 403.836 64.6639 403.414 64.8618C402.992 65.0545 402.479 65.1509 401.875 65.1509C401.464 65.1509 401.086 65.091 400.742 64.9712C400.404 64.8514 400.112 64.6665 399.867 64.4165C399.622 64.1665 399.432 63.841 399.297 63.4399C399.167 63.0389 399.102 62.5571 399.102 61.9946V56.5415H400.547V62.0103C400.547 62.3905 400.589 62.7056 400.672 62.9556C400.76 63.2004 400.878 63.3957 401.023 63.5415C401.174 63.6821 401.341 63.7811 401.523 63.8384C401.711 63.8957 401.904 63.9243 402.102 63.9243C402.716 63.9243 403.203 63.8071 403.562 63.5728C403.922 63.3332 404.18 63.0129 404.336 62.6118C404.497 62.2056 404.578 61.755 404.578 61.2603ZM409.406 57.8696V64.9946H407.961V56.5415H409.367L409.406 57.8696ZM412.047 56.4946L412.039 57.8384C411.919 57.8123 411.805 57.7967 411.695 57.7915C411.591 57.7811 411.471 57.7759 411.336 57.7759C411.003 57.7759 410.708 57.828 410.453 57.9321C410.198 58.0363 409.982 58.1821 409.805 58.3696C409.628 58.5571 409.487 58.7811 409.383 59.0415C409.284 59.2967 409.219 59.578 409.188 59.8853L408.781 60.1196C408.781 59.6092 408.831 59.13 408.93 58.6821C409.034 58.2342 409.193 57.8384 409.406 57.4946C409.62 57.1457 409.891 56.8748 410.219 56.6821C410.552 56.4842 410.948 56.3853 411.406 56.3853C411.51 56.3853 411.63 56.3983 411.766 56.4243C411.901 56.4451 411.995 56.4686 412.047 56.4946ZM420.734 63.9634C421.078 63.9634 421.396 63.8931 421.688 63.7524C421.979 63.6118 422.219 63.4191 422.406 63.1743C422.594 62.9243 422.701 62.6405 422.727 62.3228H424.102C424.076 62.8228 423.906 63.2889 423.594 63.7212C423.286 64.1483 422.883 64.4946 422.383 64.7603C421.883 65.0207 421.333 65.1509 420.734 65.1509C420.099 65.1509 419.544 65.0389 419.07 64.8149C418.602 64.591 418.211 64.2837 417.898 63.8931C417.591 63.5024 417.359 63.0545 417.203 62.5493C417.052 62.0389 416.977 61.4998 416.977 60.9321V60.604C416.977 60.0363 417.052 59.4998 417.203 58.9946C417.359 58.4842 417.591 58.0337 417.898 57.6431C418.211 57.2524 418.602 56.9451 419.07 56.7212C419.544 56.4972 420.099 56.3853 420.734 56.3853C421.396 56.3853 421.974 56.5207 422.469 56.7915C422.964 57.0571 423.352 57.4217 423.633 57.8853C423.919 58.3436 424.076 58.8644 424.102 59.4478H422.727C422.701 59.0988 422.602 58.7837 422.43 58.5024C422.263 58.2212 422.034 57.9972 421.742 57.8306C421.456 57.6587 421.12 57.5728 420.734 57.5728C420.292 57.5728 419.919 57.6613 419.617 57.8384C419.32 58.0103 419.083 58.2446 418.906 58.5415C418.734 58.8332 418.609 59.1587 418.531 59.5181C418.458 59.8722 418.422 60.2342 418.422 60.604V60.9321C418.422 61.3019 418.458 61.6665 418.531 62.0259C418.604 62.3853 418.727 62.7108 418.898 63.0024C419.076 63.2941 419.312 63.5285 419.609 63.7056C419.911 63.8774 420.286 63.9634 420.734 63.9634ZM430.898 63.0415V56.5415H432.352V64.9946H430.969L430.898 63.0415ZM431.172 61.2603L431.773 61.2446C431.773 61.8071 431.714 62.328 431.594 62.8071C431.479 63.2811 431.292 63.6925 431.031 64.0415C430.771 64.3905 430.43 64.6639 430.008 64.8618C429.586 65.0545 429.073 65.1509 428.469 65.1509C428.057 65.1509 427.68 65.091 427.336 64.9712C426.997 64.8514 426.706 64.6665 426.461 64.4165C426.216 64.1665 426.026 63.841 425.891 63.4399C425.76 63.0389 425.695 62.5571 425.695 61.9946V56.5415H427.141V62.0103C427.141 62.3905 427.182 62.7056 427.266 62.9556C427.354 63.2004 427.471 63.3957 427.617 63.5415C427.768 63.6821 427.935 63.7811 428.117 63.8384C428.305 63.8957 428.497 63.9243 428.695 63.9243C429.31 63.9243 429.797 63.8071 430.156 63.5728C430.516 63.3332 430.773 63.0129 430.93 62.6118C431.091 62.2056 431.172 61.755 431.172 61.2603ZM439.477 62.7524C439.477 62.5441 439.43 62.3514 439.336 62.1743C439.247 61.992 439.062 61.828 438.781 61.6821C438.505 61.5311 438.089 61.4009 437.531 61.2915C437.062 61.1925 436.638 61.0754 436.258 60.9399C435.883 60.8045 435.562 60.6405 435.297 60.4478C435.036 60.255 434.836 60.0285 434.695 59.7681C434.555 59.5076 434.484 59.203 434.484 58.854C434.484 58.5207 434.557 58.2056 434.703 57.9087C434.854 57.6118 435.065 57.3488 435.336 57.1196C435.612 56.8905 435.943 56.7108 436.328 56.5806C436.714 56.4504 437.143 56.3853 437.617 56.3853C438.294 56.3853 438.872 56.505 439.352 56.7446C439.831 56.9842 440.198 57.3045 440.453 57.7056C440.708 58.1014 440.836 58.5415 440.836 59.0259H439.391C439.391 58.7915 439.32 58.5649 439.18 58.3462C439.044 58.1222 438.844 57.9373 438.578 57.7915C438.318 57.6457 437.997 57.5728 437.617 57.5728C437.216 57.5728 436.891 57.6353 436.641 57.7603C436.396 57.88 436.216 58.0337 436.102 58.2212C435.992 58.4087 435.938 58.6066 435.938 58.8149C435.938 58.9712 435.964 59.1118 436.016 59.2368C436.073 59.3566 436.172 59.4686 436.312 59.5728C436.453 59.6717 436.651 59.7655 436.906 59.854C437.161 59.9425 437.487 60.0311 437.883 60.1196C438.576 60.2759 439.146 60.4634 439.594 60.6821C440.042 60.9009 440.375 61.1691 440.594 61.4868C440.812 61.8045 440.922 62.1899 440.922 62.6431C440.922 63.0129 440.844 63.3514 440.688 63.6587C440.536 63.966 440.315 64.2316 440.023 64.4556C439.737 64.6743 439.393 64.8462 438.992 64.9712C438.596 65.091 438.151 65.1509 437.656 65.1509C436.911 65.1509 436.281 65.0181 435.766 64.7524C435.25 64.4868 434.859 64.1431 434.594 63.7212C434.328 63.2993 434.195 62.854 434.195 62.3853H435.648C435.669 62.7811 435.784 63.0962 435.992 63.3306C436.201 63.5597 436.456 63.7238 436.758 63.8228C437.06 63.9165 437.359 63.9634 437.656 63.9634C438.052 63.9634 438.383 63.9113 438.648 63.8071C438.919 63.703 439.125 63.5597 439.266 63.3774C439.406 63.1951 439.477 62.9868 439.477 62.7524ZM446.359 56.5415V57.6509H441.789V56.5415H446.359ZM443.336 54.4868H444.781V62.9009C444.781 63.1873 444.826 63.4035 444.914 63.5493C445.003 63.6951 445.117 63.7915 445.258 63.8384C445.398 63.8853 445.549 63.9087 445.711 63.9087C445.831 63.9087 445.956 63.8983 446.086 63.8774C446.221 63.8514 446.323 63.8306 446.391 63.8149L446.398 64.9946C446.284 65.0311 446.133 65.0649 445.945 65.0962C445.763 65.1326 445.542 65.1509 445.281 65.1509C444.927 65.1509 444.602 65.0806 444.305 64.9399C444.008 64.7993 443.771 64.5649 443.594 64.2368C443.422 63.9035 443.336 63.4556 443.336 62.8931V54.4868ZM447.516 60.8618V60.6821C447.516 60.0728 447.604 59.5076 447.781 58.9868C447.958 58.4608 448.214 58.005 448.547 57.6196C448.88 57.229 449.284 56.9269 449.758 56.7134C450.232 56.4946 450.763 56.3853 451.352 56.3853C451.945 56.3853 452.479 56.4946 452.953 56.7134C453.432 56.9269 453.839 57.229 454.172 57.6196C454.51 58.005 454.768 58.4608 454.945 58.9868C455.122 59.5076 455.211 60.0728 455.211 60.6821V60.8618C455.211 61.4712 455.122 62.0363 454.945 62.5571C454.768 63.078 454.51 63.5337 454.172 63.9243C453.839 64.3097 453.435 64.6118 452.961 64.8306C452.492 65.0441 451.961 65.1509 451.367 65.1509C450.773 65.1509 450.24 65.0441 449.766 64.8306C449.292 64.6118 448.885 64.3097 448.547 63.9243C448.214 63.5337 447.958 63.078 447.781 62.5571C447.604 62.0363 447.516 61.4712 447.516 60.8618ZM448.961 60.6821V60.8618C448.961 61.2837 449.01 61.6821 449.109 62.0571C449.208 62.4269 449.357 62.755 449.555 63.0415C449.758 63.328 450.01 63.5545 450.312 63.7212C450.615 63.8826 450.966 63.9634 451.367 63.9634C451.763 63.9634 452.109 63.8826 452.406 63.7212C452.708 63.5545 452.958 63.328 453.156 63.0415C453.354 62.755 453.503 62.4269 453.602 62.0571C453.706 61.6821 453.758 61.2837 453.758 60.8618V60.6821C453.758 60.2655 453.706 59.8722 453.602 59.5024C453.503 59.1274 453.352 58.7967 453.148 58.5103C452.951 58.2186 452.701 57.9894 452.398 57.8228C452.102 57.6561 451.753 57.5728 451.352 57.5728C450.956 57.5728 450.607 57.6561 450.305 57.8228C450.008 57.9894 449.758 58.2186 449.555 58.5103C449.357 58.7967 449.208 59.1274 449.109 59.5024C449.01 59.8722 448.961 60.2655 448.961 60.6821ZM458.461 58.2212V64.9946H457.008V56.5415H458.383L458.461 58.2212ZM458.164 60.4478L457.492 60.4243C457.497 59.8462 457.573 59.3123 457.719 58.8228C457.865 58.328 458.081 57.8983 458.367 57.5337C458.654 57.1691 459.01 56.8879 459.438 56.6899C459.865 56.4868 460.359 56.3853 460.922 56.3853C461.318 56.3853 461.682 56.4425 462.016 56.5571C462.349 56.6665 462.638 56.841 462.883 57.0806C463.128 57.3201 463.318 57.6274 463.453 58.0024C463.589 58.3774 463.656 58.8306 463.656 59.3618V64.9946H462.211V59.4321C462.211 58.9894 462.135 58.6353 461.984 58.3696C461.839 58.104 461.63 57.9113 461.359 57.7915C461.089 57.6665 460.771 57.604 460.406 57.604C459.979 57.604 459.622 57.6795 459.336 57.8306C459.049 57.9816 458.82 58.1899 458.648 58.4556C458.477 58.7212 458.352 59.0259 458.273 59.3696C458.201 59.7082 458.164 60.0675 458.164 60.4478ZM463.641 59.6509L462.672 59.9478C462.677 59.4842 462.753 59.0389 462.898 58.6118C463.049 58.1847 463.266 57.8045 463.547 57.4712C463.833 57.1379 464.185 56.8748 464.602 56.6821C465.018 56.4842 465.495 56.3853 466.031 56.3853C466.484 56.3853 466.885 56.4451 467.234 56.5649C467.589 56.6847 467.885 56.8696 468.125 57.1196C468.37 57.3644 468.555 57.6795 468.68 58.0649C468.805 58.4504 468.867 58.9087 468.867 59.4399V64.9946H467.414V59.4243C467.414 58.9504 467.339 58.5832 467.188 58.3228C467.042 58.0571 466.833 57.8722 466.562 57.7681C466.297 57.6587 465.979 57.604 465.609 57.604C465.292 57.604 465.01 57.6587 464.766 57.7681C464.521 57.8774 464.315 58.0285 464.148 58.2212C463.982 58.4087 463.854 58.6248 463.766 58.8696C463.682 59.1144 463.641 59.3748 463.641 59.6509ZM474.562 65.1509C473.974 65.1509 473.44 65.0519 472.961 64.854C472.487 64.6509 472.078 64.367 471.734 64.0024C471.396 63.6379 471.135 63.2056 470.953 62.7056C470.771 62.2056 470.68 61.6587 470.68 61.0649V60.7368C470.68 60.0493 470.781 59.4373 470.984 58.9009C471.188 58.3592 471.464 57.9009 471.812 57.5259C472.161 57.1509 472.557 56.867 473 56.6743C473.443 56.4816 473.901 56.3853 474.375 56.3853C474.979 56.3853 475.5 56.4894 475.938 56.6978C476.38 56.9061 476.742 57.1978 477.023 57.5728C477.305 57.9425 477.513 58.38 477.648 58.8853C477.784 59.3853 477.852 59.9321 477.852 60.5259V61.1743H471.539V59.9946H476.406V59.8853C476.385 59.5103 476.307 59.1457 476.172 58.7915C476.042 58.4373 475.833 58.1457 475.547 57.9165C475.26 57.6873 474.87 57.5728 474.375 57.5728C474.047 57.5728 473.745 57.6431 473.469 57.7837C473.193 57.9191 472.956 58.1222 472.758 58.3931C472.56 58.6639 472.406 58.9946 472.297 59.3853C472.188 59.7759 472.133 60.2264 472.133 60.7368V61.0649C472.133 61.466 472.188 61.8436 472.297 62.1978C472.411 62.5467 472.576 62.854 472.789 63.1196C473.008 63.3853 473.271 63.5936 473.578 63.7446C473.891 63.8957 474.245 63.9712 474.641 63.9712C475.151 63.9712 475.583 63.867 475.938 63.6587C476.292 63.4504 476.602 63.1717 476.867 62.8228L477.742 63.5181C477.56 63.7941 477.328 64.0571 477.047 64.3071C476.766 64.5571 476.419 64.7603 476.008 64.9165C475.602 65.0728 475.12 65.1509 474.562 65.1509ZM480.984 57.8696V64.9946H479.539V56.5415H480.945L480.984 57.8696ZM483.625 56.4946L483.617 57.8384C483.497 57.8123 483.383 57.7967 483.273 57.7915C483.169 57.7811 483.049 57.7759 482.914 57.7759C482.581 57.7759 482.286 57.828 482.031 57.9321C481.776 58.0363 481.56 58.1821 481.383 58.3696C481.206 58.5571 481.065 58.7811 480.961 59.0415C480.862 59.2967 480.797 59.578 480.766 59.8853L480.359 60.1196C480.359 59.6092 480.409 59.13 480.508 58.6821C480.612 58.2342 480.771 57.8384 480.984 57.4946C481.198 57.1457 481.469 56.8748 481.797 56.6821C482.13 56.4842 482.526 56.3853 482.984 56.3853C483.089 56.3853 483.208 56.3983 483.344 56.4243C483.479 56.4451 483.573 56.4686 483.625 56.4946ZM489.883 62.7524C489.883 62.5441 489.836 62.3514 489.742 62.1743C489.654 61.992 489.469 61.828 489.188 61.6821C488.911 61.5311 488.495 61.4009 487.938 61.2915C487.469 61.1925 487.044 61.0754 486.664 60.9399C486.289 60.8045 485.969 60.6405 485.703 60.4478C485.443 60.255 485.242 60.0285 485.102 59.7681C484.961 59.5076 484.891 59.203 484.891 58.854C484.891 58.5207 484.964 58.2056 485.109 57.9087C485.26 57.6118 485.471 57.3488 485.742 57.1196C486.018 56.8905 486.349 56.7108 486.734 56.5806C487.12 56.4504 487.549 56.3853 488.023 56.3853C488.701 56.3853 489.279 56.505 489.758 56.7446C490.237 56.9842 490.604 57.3045 490.859 57.7056C491.115 58.1014 491.242 58.5415 491.242 59.0259H489.797C489.797 58.7915 489.727 58.5649 489.586 58.3462C489.451 58.1222 489.25 57.9373 488.984 57.7915C488.724 57.6457 488.404 57.5728 488.023 57.5728C487.622 57.5728 487.297 57.6353 487.047 57.7603C486.802 57.88 486.622 58.0337 486.508 58.2212C486.398 58.4087 486.344 58.6066 486.344 58.8149C486.344 58.9712 486.37 59.1118 486.422 59.2368C486.479 59.3566 486.578 59.4686 486.719 59.5728C486.859 59.6717 487.057 59.7655 487.312 59.854C487.568 59.9425 487.893 60.0311 488.289 60.1196C488.982 60.2759 489.552 60.4634 490 60.6821C490.448 60.9009 490.781 61.1691 491 61.4868C491.219 61.8045 491.328 62.1899 491.328 62.6431C491.328 63.0129 491.25 63.3514 491.094 63.6587C490.943 63.966 490.721 64.2316 490.43 64.4556C490.143 64.6743 489.799 64.8462 489.398 64.9712C489.003 65.091 488.557 65.1509 488.062 65.1509C487.318 65.1509 486.688 65.0181 486.172 64.7524C485.656 64.4868 485.266 64.1431 485 63.7212C484.734 63.2993 484.602 62.854 484.602 62.3853H486.055C486.076 62.7811 486.19 63.0962 486.398 63.3306C486.607 63.5597 486.862 63.7238 487.164 63.8228C487.466 63.9165 487.766 63.9634 488.062 63.9634C488.458 63.9634 488.789 63.9113 489.055 63.8071C489.326 63.703 489.531 63.5597 489.672 63.3774C489.812 63.1951 489.883 62.9868 489.883 62.7524ZM502.117 62.7524C502.117 62.5441 502.07 62.3514 501.977 62.1743C501.888 61.992 501.703 61.828 501.422 61.6821C501.146 61.5311 500.729 61.4009 500.172 61.2915C499.703 61.1925 499.279 61.0754 498.898 60.9399C498.523 60.8045 498.203 60.6405 497.938 60.4478C497.677 60.255 497.477 60.0285 497.336 59.7681C497.195 59.5076 497.125 59.203 497.125 58.854C497.125 58.5207 497.198 58.2056 497.344 57.9087C497.495 57.6118 497.706 57.3488 497.977 57.1196C498.253 56.8905 498.583 56.7108 498.969 56.5806C499.354 56.4504 499.784 56.3853 500.258 56.3853C500.935 56.3853 501.513 56.505 501.992 56.7446C502.471 56.9842 502.839 57.3045 503.094 57.7056C503.349 58.1014 503.477 58.5415 503.477 59.0259H502.031C502.031 58.7915 501.961 58.5649 501.82 58.3462C501.685 58.1222 501.484 57.9373 501.219 57.7915C500.958 57.6457 500.638 57.5728 500.258 57.5728C499.857 57.5728 499.531 57.6353 499.281 57.7603C499.036 57.88 498.857 58.0337 498.742 58.2212C498.633 58.4087 498.578 58.6066 498.578 58.8149C498.578 58.9712 498.604 59.1118 498.656 59.2368C498.714 59.3566 498.812 59.4686 498.953 59.5728C499.094 59.6717 499.292 59.7655 499.547 59.854C499.802 59.9425 500.128 60.0311 500.523 60.1196C501.216 60.2759 501.786 60.4634 502.234 60.6821C502.682 60.9009 503.016 61.1691 503.234 61.4868C503.453 61.8045 503.562 62.1899 503.562 62.6431C503.562 63.0129 503.484 63.3514 503.328 63.6587C503.177 63.966 502.956 64.2316 502.664 64.4556C502.378 64.6743 502.034 64.8462 501.633 64.9712C501.237 65.091 500.792 65.1509 500.297 65.1509C499.552 65.1509 498.922 65.0181 498.406 64.7524C497.891 64.4868 497.5 64.1431 497.234 63.7212C496.969 63.2993 496.836 62.854 496.836 62.3853H498.289C498.31 62.7811 498.424 63.0962 498.633 63.3306C498.841 63.5597 499.096 63.7238 499.398 63.8228C499.701 63.9165 500 63.9634 500.297 63.9634C500.693 63.9634 501.023 63.9113 501.289 63.8071C501.56 63.703 501.766 63.5597 501.906 63.3774C502.047 63.1951 502.117 62.9868 502.117 62.7524ZM508.969 65.1509C508.38 65.1509 507.846 65.0519 507.367 64.854C506.893 64.6509 506.484 64.367 506.141 64.0024C505.802 63.6379 505.542 63.2056 505.359 62.7056C505.177 62.2056 505.086 61.6587 505.086 61.0649V60.7368C505.086 60.0493 505.188 59.4373 505.391 58.9009C505.594 58.3592 505.87 57.9009 506.219 57.5259C506.568 57.1509 506.964 56.867 507.406 56.6743C507.849 56.4816 508.307 56.3853 508.781 56.3853C509.385 56.3853 509.906 56.4894 510.344 56.6978C510.786 56.9061 511.148 57.1978 511.43 57.5728C511.711 57.9425 511.919 58.38 512.055 58.8853C512.19 59.3853 512.258 59.9321 512.258 60.5259V61.1743H505.945V59.9946H510.812V59.8853C510.792 59.5103 510.714 59.1457 510.578 58.7915C510.448 58.4373 510.24 58.1457 509.953 57.9165C509.667 57.6873 509.276 57.5728 508.781 57.5728C508.453 57.5728 508.151 57.6431 507.875 57.7837C507.599 57.9191 507.362 58.1222 507.164 58.3931C506.966 58.6639 506.812 58.9946 506.703 59.3853C506.594 59.7759 506.539 60.2264 506.539 60.7368V61.0649C506.539 61.466 506.594 61.8436 506.703 62.1978C506.818 62.5467 506.982 62.854 507.195 63.1196C507.414 63.3853 507.677 63.5936 507.984 63.7446C508.297 63.8957 508.651 63.9712 509.047 63.9712C509.557 63.9712 509.99 63.867 510.344 63.6587C510.698 63.4504 511.008 63.1717 511.273 62.8228L512.148 63.5181C511.966 63.7941 511.734 64.0571 511.453 64.3071C511.172 64.5571 510.826 64.7603 510.414 64.9165C510.008 65.0728 509.526 65.1509 508.969 65.1509ZM515.391 57.8696V64.9946H513.945V56.5415H515.352L515.391 57.8696ZM518.031 56.4946L518.023 57.8384C517.904 57.8123 517.789 57.7967 517.68 57.7915C517.576 57.7811 517.456 57.7759 517.32 57.7759C516.987 57.7759 516.693 57.828 516.438 57.9321C516.182 58.0363 515.966 58.1821 515.789 58.3696C515.612 58.5571 515.471 58.7811 515.367 59.0415C515.268 59.2967 515.203 59.578 515.172 59.8853L514.766 60.1196C514.766 59.6092 514.815 59.13 514.914 58.6821C515.018 58.2342 515.177 57.8384 515.391 57.4946C515.604 57.1457 515.875 56.8748 516.203 56.6821C516.536 56.4842 516.932 56.3853 517.391 56.3853C517.495 56.3853 517.615 56.3983 517.75 56.4243C517.885 56.4451 517.979 56.4686 518.031 56.4946ZM520.938 56.5415V64.9946H519.484V56.5415H520.938ZM519.375 54.2993C519.375 54.0649 519.445 53.867 519.586 53.7056C519.732 53.5441 519.945 53.4634 520.227 53.4634C520.503 53.4634 520.714 53.5441 520.859 53.7056C521.01 53.867 521.086 54.0649 521.086 54.2993C521.086 54.5233 521.01 54.716 520.859 54.8774C520.714 55.0337 520.503 55.1118 520.227 55.1118C519.945 55.1118 519.732 55.0337 519.586 54.8774C519.445 54.716 519.375 54.5233 519.375 54.2993ZM522.875 60.8618V60.6821C522.875 60.0728 522.964 59.5076 523.141 58.9868C523.318 58.4608 523.573 58.005 523.906 57.6196C524.24 57.229 524.643 56.9269 525.117 56.7134C525.591 56.4946 526.122 56.3853 526.711 56.3853C527.305 56.3853 527.839 56.4946 528.312 56.7134C528.792 56.9269 529.198 57.229 529.531 57.6196C529.87 58.005 530.128 58.4608 530.305 58.9868C530.482 59.5076 530.57 60.0728 530.57 60.6821V60.8618C530.57 61.4712 530.482 62.0363 530.305 62.5571C530.128 63.078 529.87 63.5337 529.531 63.9243C529.198 64.3097 528.794 64.6118 528.32 64.8306C527.852 65.0441 527.32 65.1509 526.727 65.1509C526.133 65.1509 525.599 65.0441 525.125 64.8306C524.651 64.6118 524.245 64.3097 523.906 63.9243C523.573 63.5337 523.318 63.078 523.141 62.5571C522.964 62.0363 522.875 61.4712 522.875 60.8618ZM524.32 60.6821V60.8618C524.32 61.2837 524.37 61.6821 524.469 62.0571C524.568 62.4269 524.716 62.755 524.914 63.0415C525.117 63.328 525.37 63.5545 525.672 63.7212C525.974 63.8826 526.326 63.9634 526.727 63.9634C527.122 63.9634 527.469 63.8826 527.766 63.7212C528.068 63.5545 528.318 63.328 528.516 63.0415C528.714 62.755 528.862 62.4269 528.961 62.0571C529.065 61.6821 529.117 61.2837 529.117 60.8618V60.6821C529.117 60.2655 529.065 59.8722 528.961 59.5024C528.862 59.1274 528.711 58.7967 528.508 58.5103C528.31 58.2186 528.06 57.9894 527.758 57.8228C527.461 57.6561 527.112 57.5728 526.711 57.5728C526.315 57.5728 525.966 57.6561 525.664 57.8228C525.367 57.9894 525.117 58.2186 524.914 58.5103C524.716 58.7967 524.568 59.1274 524.469 59.5024C524.37 59.8722 524.32 60.2655 524.32 60.6821ZM537.555 63.0415V56.5415H539.008V64.9946H537.625L537.555 63.0415ZM537.828 61.2603L538.43 61.2446C538.43 61.8071 538.37 62.328 538.25 62.8071C538.135 63.2811 537.948 63.6925 537.688 64.0415C537.427 64.3905 537.086 64.6639 536.664 64.8618C536.242 65.0545 535.729 65.1509 535.125 65.1509C534.714 65.1509 534.336 65.091 533.992 64.9712C533.654 64.8514 533.362 64.6665 533.117 64.4165C532.872 64.1665 532.682 63.841 532.547 63.4399C532.417 63.0389 532.352 62.5571 532.352 61.9946V56.5415H533.797V62.0103C533.797 62.3905 533.839 62.7056 533.922 62.9556C534.01 63.2004 534.128 63.3957 534.273 63.5415C534.424 63.6821 534.591 63.7811 534.773 63.8384C534.961 63.8957 535.154 63.9243 535.352 63.9243C535.966 63.9243 536.453 63.8071 536.812 63.5728C537.172 63.3332 537.43 63.0129 537.586 62.6118C537.747 62.2056 537.828 61.755 537.828 61.2603ZM546.133 62.7524C546.133 62.5441 546.086 62.3514 545.992 62.1743C545.904 61.992 545.719 61.828 545.438 61.6821C545.161 61.5311 544.745 61.4009 544.188 61.2915C543.719 61.1925 543.294 61.0754 542.914 60.9399C542.539 60.8045 542.219 60.6405 541.953 60.4478C541.693 60.255 541.492 60.0285 541.352 59.7681C541.211 59.5076 541.141 59.203 541.141 58.854C541.141 58.5207 541.214 58.2056 541.359 57.9087C541.51 57.6118 541.721 57.3488 541.992 57.1196C542.268 56.8905 542.599 56.7108 542.984 56.5806C543.37 56.4504 543.799 56.3853 544.273 56.3853C544.951 56.3853 545.529 56.505 546.008 56.7446C546.487 56.9842 546.854 57.3045 547.109 57.7056C547.365 58.1014 547.492 58.5415 547.492 59.0259H546.047C546.047 58.7915 545.977 58.5649 545.836 58.3462C545.701 58.1222 545.5 57.9373 545.234 57.7915C544.974 57.6457 544.654 57.5728 544.273 57.5728C543.872 57.5728 543.547 57.6353 543.297 57.7603C543.052 57.88 542.872 58.0337 542.758 58.2212C542.648 58.4087 542.594 58.6066 542.594 58.8149C542.594 58.9712 542.62 59.1118 542.672 59.2368C542.729 59.3566 542.828 59.4686 542.969 59.5728C543.109 59.6717 543.307 59.7655 543.562 59.854C543.818 59.9425 544.143 60.0311 544.539 60.1196C545.232 60.2759 545.802 60.4634 546.25 60.6821C546.698 60.9009 547.031 61.1691 547.25 61.4868C547.469 61.8045 547.578 62.1899 547.578 62.6431C547.578 63.0129 547.5 63.3514 547.344 63.6587C547.193 63.966 546.971 64.2316 546.68 64.4556C546.393 64.6743 546.049 64.8462 545.648 64.9712C545.253 65.091 544.807 65.1509 544.312 65.1509C543.568 65.1509 542.938 65.0181 542.422 64.7524C541.906 64.4868 541.516 64.1431 541.25 63.7212C540.984 63.2993 540.852 62.854 540.852 62.3853H542.305C542.326 62.7811 542.44 63.0962 542.648 63.3306C542.857 63.5597 543.112 63.7238 543.414 63.8228C543.716 63.9165 544.016 63.9634 544.312 63.9634C544.708 63.9634 545.039 63.9113 545.305 63.8071C545.576 63.703 545.781 63.5597 545.922 63.3774C546.062 63.1951 546.133 62.9868 546.133 62.7524ZM551.047 52.9946V64.9946H549.594V52.9946H551.047ZM555.742 64.1196L558.094 56.5415H559.641L556.25 66.2993C556.172 66.5076 556.068 66.7316 555.938 66.9712C555.812 67.216 555.651 67.4478 555.453 67.6665C555.255 67.8853 555.016 68.0623 554.734 68.1978C554.458 68.3384 554.128 68.4087 553.742 68.4087C553.628 68.4087 553.482 68.3931 553.305 68.3618C553.128 68.3306 553.003 68.3045 552.93 68.2837L552.922 67.1118C552.964 67.117 553.029 67.1222 553.117 67.1274C553.211 67.1379 553.276 67.1431 553.312 67.1431C553.641 67.1431 553.919 67.0988 554.148 67.0103C554.378 66.9269 554.57 66.7837 554.727 66.5806C554.888 66.3826 555.026 66.1092 555.141 65.7603L555.742 64.1196ZM554.016 56.5415L556.211 63.104L556.586 64.6274L555.547 65.1587L552.438 56.5415H554.016ZM560.125 64.229C560.125 63.9842 560.201 63.7785 560.352 63.6118C560.508 63.4399 560.732 63.354 561.023 63.354C561.315 63.354 561.536 63.4399 561.688 63.6118C561.844 63.7785 561.922 63.9842 561.922 64.229C561.922 64.4686 561.844 64.6717 561.688 64.8384C561.536 65.005 561.315 65.0884 561.023 65.0884C560.732 65.0884 560.508 65.005 560.352 64.8384C560.201 64.6717 560.125 64.4686 560.125 64.229ZM577.258 53.6196V64.9946H575.742L570.016 56.2212V64.9946H568.508V53.6196H570.016L575.766 62.4165V53.6196H577.258ZM583.219 65.1509C582.63 65.1509 582.096 65.0519 581.617 64.854C581.143 64.6509 580.734 64.367 580.391 64.0024C580.052 63.6379 579.792 63.2056 579.609 62.7056C579.427 62.2056 579.336 61.6587 579.336 61.0649V60.7368C579.336 60.0493 579.438 59.4373 579.641 58.9009C579.844 58.3592 580.12 57.9009 580.469 57.5259C580.818 57.1509 581.214 56.867 581.656 56.6743C582.099 56.4816 582.557 56.3853 583.031 56.3853C583.635 56.3853 584.156 56.4894 584.594 56.6978C585.036 56.9061 585.398 57.1978 585.68 57.5728C585.961 57.9425 586.169 58.38 586.305 58.8853C586.44 59.3853 586.508 59.9321 586.508 60.5259V61.1743H580.195V59.9946H585.062V59.8853C585.042 59.5103 584.964 59.1457 584.828 58.7915C584.698 58.4373 584.49 58.1457 584.203 57.9165C583.917 57.6873 583.526 57.5728 583.031 57.5728C582.703 57.5728 582.401 57.6431 582.125 57.7837C581.849 57.9191 581.612 58.1222 581.414 58.3931C581.216 58.6639 581.062 58.9946 580.953 59.3853C580.844 59.7759 580.789 60.2264 580.789 60.7368V61.0649C580.789 61.466 580.844 61.8436 580.953 62.1978C581.068 62.5467 581.232 62.854 581.445 63.1196C581.664 63.3853 581.927 63.5936 582.234 63.7446C582.547 63.8957 582.901 63.9712 583.297 63.9712C583.807 63.9712 584.24 63.867 584.594 63.6587C584.948 63.4504 585.258 63.1717 585.523 62.8228L586.398 63.5181C586.216 63.7941 585.984 64.0571 585.703 64.3071C585.422 64.5571 585.076 64.7603 584.664 64.9165C584.258 65.0728 583.776 65.1509 583.219 65.1509ZM590.336 63.4946L592.508 56.5415H593.461L593.273 57.9243L591.062 64.9946H590.133L590.336 63.4946ZM588.875 56.5415L590.727 63.5728L590.859 64.9946H589.883L587.43 56.5415H588.875ZM595.539 63.5181L597.305 56.5415H598.742L596.289 64.9946H595.32L595.539 63.5181ZM593.672 56.5415L595.797 63.3774L596.039 64.9946H595.117L592.844 57.9087L592.656 56.5415H593.672ZM603.734 65.1509C603.146 65.1509 602.612 65.0519 602.133 64.854C601.659 64.6509 601.25 64.367 600.906 64.0024C600.568 63.6379 600.307 63.2056 600.125 62.7056C599.943 62.2056 599.852 61.6587 599.852 61.0649V60.7368C599.852 60.0493 599.953 59.4373 600.156 58.9009C600.359 58.3592 600.635 57.9009 600.984 57.5259C601.333 57.1509 601.729 56.867 602.172 56.6743C602.615 56.4816 603.073 56.3853 603.547 56.3853C604.151 56.3853 604.672 56.4894 605.109 56.6978C605.552 56.9061 605.914 57.1978 606.195 57.5728C606.477 57.9425 606.685 58.38 606.82 58.8853C606.956 59.3853 607.023 59.9321 607.023 60.5259V61.1743H600.711V59.9946H605.578V59.8853C605.557 59.5103 605.479 59.1457 605.344 58.7915C605.214 58.4373 605.005 58.1457 604.719 57.9165C604.432 57.6873 604.042 57.5728 603.547 57.5728C603.219 57.5728 602.917 57.6431 602.641 57.7837C602.365 57.9191 602.128 58.1222 601.93 58.3931C601.732 58.6639 601.578 58.9946 601.469 59.3853C601.359 59.7759 601.305 60.2264 601.305 60.7368V61.0649C601.305 61.466 601.359 61.8436 601.469 62.1978C601.583 62.5467 601.747 62.854 601.961 63.1196C602.18 63.3853 602.443 63.5936 602.75 63.7446C603.062 63.8957 603.417 63.9712 603.812 63.9712C604.323 63.9712 604.755 63.867 605.109 63.6587C605.464 63.4504 605.773 63.1717 606.039 62.8228L606.914 63.5181C606.732 63.7941 606.5 64.0571 606.219 64.3071C605.938 64.5571 605.591 64.7603 605.18 64.9165C604.773 65.0728 604.292 65.1509 603.734 65.1509ZM613.633 62.7524C613.633 62.5441 613.586 62.3514 613.492 62.1743C613.404 61.992 613.219 61.828 612.938 61.6821C612.661 61.5311 612.245 61.4009 611.688 61.2915C611.219 61.1925 610.794 61.0754 610.414 60.9399C610.039 60.8045 609.719 60.6405 609.453 60.4478C609.193 60.255 608.992 60.0285 608.852 59.7681C608.711 59.5076 608.641 59.203 608.641 58.854C608.641 58.5207 608.714 58.2056 608.859 57.9087C609.01 57.6118 609.221 57.3488 609.492 57.1196C609.768 56.8905 610.099 56.7108 610.484 56.5806C610.87 56.4504 611.299 56.3853 611.773 56.3853C612.451 56.3853 613.029 56.505 613.508 56.7446C613.987 56.9842 614.354 57.3045 614.609 57.7056C614.865 58.1014 614.992 58.5415 614.992 59.0259H613.547C613.547 58.7915 613.477 58.5649 613.336 58.3462C613.201 58.1222 613 57.9373 612.734 57.7915C612.474 57.6457 612.154 57.5728 611.773 57.5728C611.372 57.5728 611.047 57.6353 610.797 57.7603C610.552 57.88 610.372 58.0337 610.258 58.2212C610.148 58.4087 610.094 58.6066 610.094 58.8149C610.094 58.9712 610.12 59.1118 610.172 59.2368C610.229 59.3566 610.328 59.4686 610.469 59.5728C610.609 59.6717 610.807 59.7655 611.062 59.854C611.318 59.9425 611.643 60.0311 612.039 60.1196C612.732 60.2759 613.302 60.4634 613.75 60.6821C614.198 60.9009 614.531 61.1691 614.75 61.4868C614.969 61.8045 615.078 62.1899 615.078 62.6431C615.078 63.0129 615 63.3514 614.844 63.6587C614.693 63.966 614.471 64.2316 614.18 64.4556C613.893 64.6743 613.549 64.8462 613.148 64.9712C612.753 65.091 612.307 65.1509 611.812 65.1509C611.068 65.1509 610.438 65.0181 609.922 64.7524C609.406 64.4868 609.016 64.1431 608.75 63.7212C608.484 63.2993 608.352 62.854 608.352 62.3853H609.805C609.826 62.7811 609.94 63.0962 610.148 63.3306C610.357 63.5597 610.612 63.7238 610.914 63.8228C611.216 63.9165 611.516 63.9634 611.812 63.9634C612.208 63.9634 612.539 63.9113 612.805 63.8071C613.076 63.703 613.281 63.5597 613.422 63.3774C613.562 63.1951 613.633 62.9868 613.633 62.7524ZM620.516 56.5415V57.6509H615.945V56.5415H620.516ZM617.492 54.4868H618.938V62.9009C618.938 63.1873 618.982 63.4035 619.07 63.5493C619.159 63.6951 619.273 63.7915 619.414 63.8384C619.555 63.8853 619.706 63.9087 619.867 63.9087C619.987 63.9087 620.112 63.8983 620.242 63.8774C620.378 63.8514 620.479 63.8306 620.547 63.8149L620.555 64.9946C620.44 65.0311 620.289 65.0649 620.102 65.0962C619.919 65.1326 619.698 65.1509 619.438 65.1509C619.083 65.1509 618.758 65.0806 618.461 64.9399C618.164 64.7993 617.927 64.5649 617.75 64.2368C617.578 63.9035 617.492 63.4556 617.492 62.8931V54.4868ZM325.484 87.9634C325.828 87.9634 326.146 87.8931 326.438 87.7524C326.729 87.6118 326.969 87.4191 327.156 87.1743C327.344 86.9243 327.451 86.6405 327.477 86.3228H328.852C328.826 86.8228 328.656 87.2889 328.344 87.7212C328.036 88.1483 327.633 88.4946 327.133 88.7603C326.633 89.0207 326.083 89.1509 325.484 89.1509C324.849 89.1509 324.294 89.0389 323.82 88.8149C323.352 88.591 322.961 88.2837 322.648 87.8931C322.341 87.5024 322.109 87.0545 321.953 86.5493C321.802 86.0389 321.727 85.4998 321.727 84.9321V84.604C321.727 84.0363 321.802 83.4998 321.953 82.9946C322.109 82.4842 322.341 82.0337 322.648 81.6431C322.961 81.2524 323.352 80.9451 323.82 80.7212C324.294 80.4972 324.849 80.3853 325.484 80.3853C326.146 80.3853 326.724 80.5207 327.219 80.7915C327.714 81.0571 328.102 81.4217 328.383 81.8853C328.669 82.3436 328.826 82.8644 328.852 83.4478H327.477C327.451 83.0988 327.352 82.7837 327.18 82.5024C327.013 82.2212 326.784 81.9972 326.492 81.8306C326.206 81.6587 325.87 81.5728 325.484 81.5728C325.042 81.5728 324.669 81.6613 324.367 81.8384C324.07 82.0103 323.833 82.2446 323.656 82.5415C323.484 82.8332 323.359 83.1587 323.281 83.5181C323.208 83.8722 323.172 84.2342 323.172 84.604V84.9321C323.172 85.3019 323.208 85.6665 323.281 86.0259C323.354 86.3853 323.477 86.7108 323.648 87.0024C323.826 87.2941 324.062 87.5285 324.359 87.7056C324.661 87.8774 325.036 87.9634 325.484 87.9634ZM332.852 88.1196L335.203 80.5415H336.75L333.359 90.2993C333.281 90.5076 333.177 90.7316 333.047 90.9712C332.922 91.216 332.76 91.4478 332.562 91.6665C332.365 91.8853 332.125 92.0623 331.844 92.1978C331.568 92.3384 331.237 92.4087 330.852 92.4087C330.737 92.4087 330.591 92.3931 330.414 92.3618C330.237 92.3306 330.112 92.3045 330.039 92.2837L330.031 91.1118C330.073 91.117 330.138 91.1222 330.227 91.1274C330.32 91.1379 330.385 91.1431 330.422 91.1431C330.75 91.1431 331.029 91.0988 331.258 91.0103C331.487 90.9269 331.68 90.7837 331.836 90.5806C331.997 90.3826 332.135 90.1092 332.25 89.7603L332.852 88.1196ZM331.125 80.5415L333.32 87.104L333.695 88.6274L332.656 89.1587L329.547 80.5415H331.125ZM338.047 76.9946H339.5V87.354L339.375 88.9946H338.047V76.9946ZM345.211 84.6978V84.8618C345.211 85.4764 345.138 86.0467 344.992 86.5728C344.846 87.0936 344.633 87.5467 344.352 87.9321C344.07 88.3175 343.727 88.617 343.32 88.8306C342.914 89.0441 342.448 89.1509 341.922 89.1509C341.385 89.1509 340.914 89.0597 340.508 88.8774C340.107 88.6899 339.768 88.4217 339.492 88.0728C339.216 87.7238 338.995 87.3019 338.828 86.8071C338.667 86.3123 338.555 85.755 338.492 85.1353V84.4165C338.555 83.7915 338.667 83.2316 338.828 82.7368C338.995 82.242 339.216 81.8201 339.492 81.4712C339.768 81.117 340.107 80.8488 340.508 80.6665C340.909 80.479 341.375 80.3853 341.906 80.3853C342.438 80.3853 342.909 80.4894 343.32 80.6978C343.732 80.9009 344.076 81.1925 344.352 81.5728C344.633 81.953 344.846 82.4087 344.992 82.9399C345.138 83.466 345.211 84.0519 345.211 84.6978ZM343.758 84.8618V84.6978C343.758 84.2759 343.719 83.88 343.641 83.5103C343.562 83.1353 343.438 82.8071 343.266 82.5259C343.094 82.2394 342.867 82.0155 342.586 81.854C342.305 81.6873 341.958 81.604 341.547 81.604C341.182 81.604 340.865 81.6665 340.594 81.7915C340.328 81.9165 340.102 82.0858 339.914 82.2993C339.727 82.5076 339.573 82.7472 339.453 83.0181C339.339 83.2837 339.253 83.5597 339.195 83.8462V85.729C339.279 86.0936 339.414 86.4451 339.602 86.7837C339.794 87.117 340.049 87.3905 340.367 87.604C340.69 87.8175 341.089 87.9243 341.562 87.9243C341.953 87.9243 342.286 87.8462 342.562 87.6899C342.844 87.5285 343.07 87.3071 343.242 87.0259C343.419 86.7446 343.549 86.4191 343.633 86.0493C343.716 85.6795 343.758 85.2837 343.758 84.8618ZM350.547 89.1509C349.958 89.1509 349.424 89.0519 348.945 88.854C348.471 88.6509 348.062 88.367 347.719 88.0024C347.38 87.6379 347.12 87.2056 346.938 86.7056C346.755 86.2056 346.664 85.6587 346.664 85.0649V84.7368C346.664 84.0493 346.766 83.4373 346.969 82.9009C347.172 82.3592 347.448 81.9009 347.797 81.5259C348.146 81.1509 348.542 80.867 348.984 80.6743C349.427 80.4816 349.885 80.3853 350.359 80.3853C350.964 80.3853 351.484 80.4894 351.922 80.6978C352.365 80.9061 352.727 81.1978 353.008 81.5728C353.289 81.9425 353.497 82.38 353.633 82.8853C353.768 83.3853 353.836 83.9321 353.836 84.5259V85.1743H347.523V83.9946H352.391V83.8853C352.37 83.5103 352.292 83.1457 352.156 82.7915C352.026 82.4373 351.818 82.1457 351.531 81.9165C351.245 81.6873 350.854 81.5728 350.359 81.5728C350.031 81.5728 349.729 81.6431 349.453 81.7837C349.177 81.9191 348.94 82.1222 348.742 82.3931C348.544 82.6639 348.391 82.9946 348.281 83.3853C348.172 83.7759 348.117 84.2264 348.117 84.7368V85.0649C348.117 85.466 348.172 85.8436 348.281 86.1978C348.396 86.5467 348.56 86.854 348.773 87.1196C348.992 87.3853 349.255 87.5936 349.562 87.7446C349.875 87.8957 350.229 87.9712 350.625 87.9712C351.135 87.9712 351.568 87.867 351.922 87.6587C352.276 87.4504 352.586 87.1717 352.852 86.8228L353.727 87.5181C353.544 87.7941 353.312 88.0571 353.031 88.3071C352.75 88.5571 352.404 88.7603 351.992 88.9165C351.586 89.0728 351.104 89.1509 350.547 89.1509ZM356.969 81.8696V88.9946H355.523V80.5415H356.93L356.969 81.8696ZM359.609 80.4946L359.602 81.8384C359.482 81.8123 359.367 81.7967 359.258 81.7915C359.154 81.7811 359.034 81.7759 358.898 81.7759C358.565 81.7759 358.271 81.828 358.016 81.9321C357.76 82.0363 357.544 82.1821 357.367 82.3696C357.19 82.5571 357.049 82.7811 356.945 83.0415C356.846 83.2967 356.781 83.578 356.75 83.8853L356.344 84.1196C356.344 83.6092 356.393 83.13 356.492 82.6821C356.596 82.2342 356.755 81.8384 356.969 81.4946C357.182 81.1457 357.453 80.8748 357.781 80.6821C358.115 80.4842 358.51 80.3853 358.969 80.3853C359.073 80.3853 359.193 80.3983 359.328 80.4243C359.464 80.4451 359.557 80.4686 359.609 80.4946ZM365.867 86.7524C365.867 86.5441 365.82 86.3514 365.727 86.1743C365.638 85.992 365.453 85.828 365.172 85.6821C364.896 85.5311 364.479 85.4009 363.922 85.2915C363.453 85.1925 363.029 85.0754 362.648 84.9399C362.273 84.8045 361.953 84.6405 361.688 84.4478C361.427 84.255 361.227 84.0285 361.086 83.7681C360.945 83.5076 360.875 83.203 360.875 82.854C360.875 82.5207 360.948 82.2056 361.094 81.9087C361.245 81.6118 361.456 81.3488 361.727 81.1196C362.003 80.8905 362.333 80.7108 362.719 80.5806C363.104 80.4504 363.534 80.3853 364.008 80.3853C364.685 80.3853 365.263 80.505 365.742 80.7446C366.221 80.9842 366.589 81.3045 366.844 81.7056C367.099 82.1014 367.227 82.5415 367.227 83.0259H365.781C365.781 82.7915 365.711 82.5649 365.57 82.3462C365.435 82.1222 365.234 81.9373 364.969 81.7915C364.708 81.6457 364.388 81.5728 364.008 81.5728C363.607 81.5728 363.281 81.6353 363.031 81.7603C362.786 81.88 362.607 82.0337 362.492 82.2212C362.383 82.4087 362.328 82.6066 362.328 82.8149C362.328 82.9712 362.354 83.1118 362.406 83.2368C362.464 83.3566 362.562 83.4686 362.703 83.5728C362.844 83.6717 363.042 83.7655 363.297 83.854C363.552 83.9425 363.878 84.0311 364.273 84.1196C364.966 84.2759 365.536 84.4634 365.984 84.6821C366.432 84.9009 366.766 85.1691 366.984 85.4868C367.203 85.8045 367.312 86.1899 367.312 86.6431C367.312 87.0129 367.234 87.3514 367.078 87.6587C366.927 87.966 366.706 88.2316 366.414 88.4556C366.128 88.6743 365.784 88.8462 365.383 88.9712C364.987 89.091 364.542 89.1509 364.047 89.1509C363.302 89.1509 362.672 89.0181 362.156 88.7524C361.641 88.4868 361.25 88.1431 360.984 87.7212C360.719 87.2993 360.586 86.854 360.586 86.3853H362.039C362.06 86.7811 362.174 87.0962 362.383 87.3306C362.591 87.5597 362.846 87.7238 363.148 87.8228C363.451 87.9165 363.75 87.9634 364.047 87.9634C364.443 87.9634 364.773 87.9113 365.039 87.8071C365.31 87.703 365.516 87.5597 365.656 87.3774C365.797 87.1951 365.867 86.9868 365.867 86.7524ZM372.719 89.1509C372.13 89.1509 371.596 89.0519 371.117 88.854C370.643 88.6509 370.234 88.367 369.891 88.0024C369.552 87.6379 369.292 87.2056 369.109 86.7056C368.927 86.2056 368.836 85.6587 368.836 85.0649V84.7368C368.836 84.0493 368.938 83.4373 369.141 82.9009C369.344 82.3592 369.62 81.9009 369.969 81.5259C370.318 81.1509 370.714 80.867 371.156 80.6743C371.599 80.4816 372.057 80.3853 372.531 80.3853C373.135 80.3853 373.656 80.4894 374.094 80.6978C374.536 80.9061 374.898 81.1978 375.18 81.5728C375.461 81.9425 375.669 82.38 375.805 82.8853C375.94 83.3853 376.008 83.9321 376.008 84.5259V85.1743H369.695V83.9946H374.562V83.8853C374.542 83.5103 374.464 83.1457 374.328 82.7915C374.198 82.4373 373.99 82.1457 373.703 81.9165C373.417 81.6873 373.026 81.5728 372.531 81.5728C372.203 81.5728 371.901 81.6431 371.625 81.7837C371.349 81.9191 371.112 82.1222 370.914 82.3931C370.716 82.6639 370.562 82.9946 370.453 83.3853C370.344 83.7759 370.289 84.2264 370.289 84.7368V85.0649C370.289 85.466 370.344 85.8436 370.453 86.1978C370.568 86.5467 370.732 86.854 370.945 87.1196C371.164 87.3853 371.427 87.5936 371.734 87.7446C372.047 87.8957 372.401 87.9712 372.797 87.9712C373.307 87.9712 373.74 87.867 374.094 87.6587C374.448 87.4504 374.758 87.1717 375.023 86.8228L375.898 87.5181C375.716 87.7941 375.484 88.0571 375.203 88.3071C374.922 88.5571 374.576 88.7603 374.164 88.9165C373.758 89.0728 373.276 89.1509 372.719 89.1509ZM381.078 87.9634C381.422 87.9634 381.74 87.8931 382.031 87.7524C382.323 87.6118 382.562 87.4191 382.75 87.1743C382.938 86.9243 383.044 86.6405 383.07 86.3228H384.445C384.419 86.8228 384.25 87.2889 383.938 87.7212C383.63 88.1483 383.227 88.4946 382.727 88.7603C382.227 89.0207 381.677 89.1509 381.078 89.1509C380.443 89.1509 379.888 89.0389 379.414 88.8149C378.945 88.591 378.555 88.2837 378.242 87.8931C377.935 87.5024 377.703 87.0545 377.547 86.5493C377.396 86.0389 377.32 85.4998 377.32 84.9321V84.604C377.32 84.0363 377.396 83.4998 377.547 82.9946C377.703 82.4842 377.935 82.0337 378.242 81.6431C378.555 81.2524 378.945 80.9451 379.414 80.7212C379.888 80.4972 380.443 80.3853 381.078 80.3853C381.74 80.3853 382.318 80.5207 382.812 80.7915C383.307 81.0571 383.695 81.4217 383.977 81.8853C384.263 82.3436 384.419 82.8644 384.445 83.4478H383.07C383.044 83.0988 382.945 82.7837 382.773 82.5024C382.607 82.2212 382.378 81.9972 382.086 81.8306C381.799 81.6587 381.464 81.5728 381.078 81.5728C380.635 81.5728 380.263 81.6613 379.961 81.8384C379.664 82.0103 379.427 82.2446 379.25 82.5415C379.078 82.8332 378.953 83.1587 378.875 83.5181C378.802 83.8722 378.766 84.2342 378.766 84.604V84.9321C378.766 85.3019 378.802 85.6665 378.875 86.0259C378.948 86.3853 379.07 86.7108 379.242 87.0024C379.419 87.2941 379.656 87.5285 379.953 87.7056C380.255 87.8774 380.63 87.9634 381.078 87.9634ZM391.242 87.0415V80.5415H392.695V88.9946H391.312L391.242 87.0415ZM391.516 85.2603L392.117 85.2446C392.117 85.8071 392.057 86.328 391.938 86.8071C391.823 87.2811 391.635 87.6925 391.375 88.0415C391.115 88.3905 390.773 88.6639 390.352 88.8618C389.93 89.0545 389.417 89.1509 388.812 89.1509C388.401 89.1509 388.023 89.091 387.68 88.9712C387.341 88.8514 387.049 88.6665 386.805 88.4165C386.56 88.1665 386.37 87.841 386.234 87.4399C386.104 87.0389 386.039 86.5571 386.039 85.9946V80.5415H387.484V86.0103C387.484 86.3905 387.526 86.7056 387.609 86.9556C387.698 87.2004 387.815 87.3957 387.961 87.5415C388.112 87.6821 388.279 87.7811 388.461 87.8384C388.648 87.8957 388.841 87.9243 389.039 87.9243C389.654 87.9243 390.141 87.8071 390.5 87.5728C390.859 87.3332 391.117 87.0129 391.273 86.6118C391.435 86.2056 391.516 85.755 391.516 85.2603ZM396.344 81.8696V88.9946H394.898V80.5415H396.305L396.344 81.8696ZM398.984 80.4946L398.977 81.8384C398.857 81.8123 398.742 81.7967 398.633 81.7915C398.529 81.7811 398.409 81.7759 398.273 81.7759C397.94 81.7759 397.646 81.828 397.391 81.9321C397.135 82.0363 396.919 82.1821 396.742 82.3696C396.565 82.5571 396.424 82.7811 396.32 83.0415C396.221 83.2967 396.156 83.578 396.125 83.8853L395.719 84.1196C395.719 83.6092 395.768 83.13 395.867 82.6821C395.971 82.2342 396.13 81.8384 396.344 81.4946C396.557 81.1457 396.828 80.8748 397.156 80.6821C397.49 80.4842 397.885 80.3853 398.344 80.3853C398.448 80.3853 398.568 80.3983 398.703 80.4243C398.839 80.4451 398.932 80.4686 398.984 80.4946ZM401.891 80.5415V88.9946H400.438V80.5415H401.891ZM400.328 78.2993C400.328 78.0649 400.398 77.867 400.539 77.7056C400.685 77.5441 400.898 77.4634 401.18 77.4634C401.456 77.4634 401.667 77.5441 401.812 77.7056C401.964 77.867 402.039 78.0649 402.039 78.2993C402.039 78.5233 401.964 78.716 401.812 78.8774C401.667 79.0337 401.456 79.1118 401.18 79.1118C400.898 79.1118 400.685 79.0337 400.539 78.8774C400.398 78.716 400.328 78.5233 400.328 78.2993ZM407.75 80.5415V81.6509H403.18V80.5415H407.75ZM404.727 78.4868H406.172V86.9009C406.172 87.1873 406.216 87.4035 406.305 87.5493C406.393 87.6951 406.508 87.7915 406.648 87.8384C406.789 87.8853 406.94 87.9087 407.102 87.9087C407.221 87.9087 407.346 87.8983 407.477 87.8774C407.612 87.8514 407.714 87.8306 407.781 87.8149L407.789 88.9946C407.674 89.0311 407.523 89.0649 407.336 89.0962C407.154 89.1326 406.932 89.1509 406.672 89.1509C406.318 89.1509 405.992 89.0806 405.695 88.9399C405.398 88.7993 405.161 88.5649 404.984 88.2368C404.812 87.9035 404.727 87.4556 404.727 86.8931V78.4868ZM411.82 88.1196L414.172 80.5415H415.719L412.328 90.2993C412.25 90.5076 412.146 90.7316 412.016 90.9712C411.891 91.216 411.729 91.4478 411.531 91.6665C411.333 91.8853 411.094 92.0623 410.812 92.1978C410.536 92.3384 410.206 92.4087 409.82 92.4087C409.706 92.4087 409.56 92.3931 409.383 92.3618C409.206 92.3306 409.081 92.3045 409.008 92.2837L409 91.1118C409.042 91.117 409.107 91.1222 409.195 91.1274C409.289 91.1379 409.354 91.1431 409.391 91.1431C409.719 91.1431 409.997 91.0988 410.227 91.0103C410.456 90.9269 410.648 90.7837 410.805 90.5806C410.966 90.3826 411.104 90.1092 411.219 89.7603L411.82 88.1196ZM410.094 80.5415L412.289 87.104L412.664 88.6274L411.625 89.1587L408.516 80.5415H410.094ZM424.531 80.5415V81.6509H419.961V80.5415H424.531ZM421.508 78.4868H422.953V86.9009C422.953 87.1873 422.997 87.4035 423.086 87.5493C423.174 87.6951 423.289 87.7915 423.43 87.8384C423.57 87.8853 423.721 87.9087 423.883 87.9087C424.003 87.9087 424.128 87.8983 424.258 87.8774C424.393 87.8514 424.495 87.8306 424.562 87.8149L424.57 88.9946C424.456 89.0311 424.305 89.0649 424.117 89.0962C423.935 89.1326 423.714 89.1509 423.453 89.1509C423.099 89.1509 422.773 89.0806 422.477 88.9399C422.18 88.7993 421.943 88.5649 421.766 88.2368C421.594 87.9035 421.508 87.4556 421.508 86.8931V78.4868ZM425.688 84.8618V84.6821C425.688 84.0728 425.776 83.5076 425.953 82.9868C426.13 82.4608 426.385 82.005 426.719 81.6196C427.052 81.229 427.456 80.9269 427.93 80.7134C428.404 80.4946 428.935 80.3853 429.523 80.3853C430.117 80.3853 430.651 80.4946 431.125 80.7134C431.604 80.9269 432.01 81.229 432.344 81.6196C432.682 82.005 432.94 82.4608 433.117 82.9868C433.294 83.5076 433.383 84.0728 433.383 84.6821V84.8618C433.383 85.4712 433.294 86.0363 433.117 86.5571C432.94 87.078 432.682 87.5337 432.344 87.9243C432.01 88.3097 431.607 88.6118 431.133 88.8306C430.664 89.0441 430.133 89.1509 429.539 89.1509C428.945 89.1509 428.411 89.0441 427.938 88.8306C427.464 88.6118 427.057 88.3097 426.719 87.9243C426.385 87.5337 426.13 87.078 425.953 86.5571C425.776 86.0363 425.688 85.4712 425.688 84.8618ZM427.133 84.6821V84.8618C427.133 85.2837 427.182 85.6821 427.281 86.0571C427.38 86.4269 427.529 86.755 427.727 87.0415C427.93 87.328 428.182 87.5545 428.484 87.7212C428.786 87.8826 429.138 87.9634 429.539 87.9634C429.935 87.9634 430.281 87.8826 430.578 87.7212C430.88 87.5545 431.13 87.328 431.328 87.0415C431.526 86.755 431.674 86.4269 431.773 86.0571C431.878 85.6821 431.93 85.2837 431.93 84.8618V84.6821C431.93 84.2655 431.878 83.8722 431.773 83.5024C431.674 83.1274 431.523 82.7967 431.32 82.5103C431.122 82.2186 430.872 81.9894 430.57 81.8228C430.273 81.6561 429.924 81.5728 429.523 81.5728C429.128 81.5728 428.779 81.6561 428.477 81.8228C428.18 81.9894 427.93 82.2186 427.727 82.5103C427.529 82.7967 427.38 83.1274 427.281 83.5024C427.182 83.8722 427.133 84.2655 427.133 84.6821ZM440.609 82.1665V92.2446H439.156V80.5415H440.484L440.609 82.1665ZM446.305 84.6978V84.8618C446.305 85.4764 446.232 86.0467 446.086 86.5728C445.94 87.0936 445.727 87.5467 445.445 87.9321C445.169 88.3175 444.828 88.617 444.422 88.8306C444.016 89.0441 443.549 89.1509 443.023 89.1509C442.487 89.1509 442.013 89.0623 441.602 88.8853C441.19 88.7082 440.841 88.4504 440.555 88.1118C440.268 87.7733 440.039 87.367 439.867 86.8931C439.701 86.4191 439.586 85.8853 439.523 85.2915V84.4165C439.586 83.7915 439.703 83.2316 439.875 82.7368C440.047 82.242 440.273 81.8201 440.555 81.4712C440.841 81.117 441.188 80.8488 441.594 80.6665C442 80.479 442.469 80.3853 443 80.3853C443.531 80.3853 444.003 80.4894 444.414 80.6978C444.826 80.9009 445.172 81.1925 445.453 81.5728C445.734 81.953 445.945 82.4087 446.086 82.9399C446.232 83.466 446.305 84.0519 446.305 84.6978ZM444.852 84.8618V84.6978C444.852 84.2759 444.807 83.88 444.719 83.5103C444.63 83.1353 444.492 82.8071 444.305 82.5259C444.122 82.2394 443.888 82.0155 443.602 81.854C443.315 81.6873 442.974 81.604 442.578 81.604C442.214 81.604 441.896 81.6665 441.625 81.7915C441.359 81.9165 441.133 82.0858 440.945 82.2993C440.758 82.5076 440.604 82.7472 440.484 83.0181C440.37 83.2837 440.284 83.5597 440.227 83.8462V85.8696C440.331 86.2342 440.477 86.578 440.664 86.9009C440.852 87.2186 441.102 87.4764 441.414 87.6743C441.727 87.867 442.12 87.9634 442.594 87.9634C442.984 87.9634 443.32 87.8826 443.602 87.7212C443.888 87.5545 444.122 87.328 444.305 87.0415C444.492 86.755 444.63 86.4269 444.719 86.0571C444.807 85.6821 444.852 85.2837 444.852 84.8618ZM449.594 81.8696V88.9946H448.148V80.5415H449.555L449.594 81.8696ZM452.234 80.4946L452.227 81.8384C452.107 81.8123 451.992 81.7967 451.883 81.7915C451.779 81.7811 451.659 81.7759 451.523 81.7759C451.19 81.7759 450.896 81.828 450.641 81.9321C450.385 82.0363 450.169 82.1821 449.992 82.3696C449.815 82.5571 449.674 82.7811 449.57 83.0415C449.471 83.2967 449.406 83.578 449.375 83.8853L448.969 84.1196C448.969 83.6092 449.018 83.13 449.117 82.6821C449.221 82.2342 449.38 81.8384 449.594 81.4946C449.807 81.1457 450.078 80.8748 450.406 80.6821C450.74 80.4842 451.135 80.3853 451.594 80.3853C451.698 80.3853 451.818 80.3983 451.953 80.4243C452.089 80.4451 452.182 80.4686 452.234 80.4946ZM453.031 84.8618V84.6821C453.031 84.0728 453.12 83.5076 453.297 82.9868C453.474 82.4608 453.729 82.005 454.062 81.6196C454.396 81.229 454.799 80.9269 455.273 80.7134C455.747 80.4946 456.279 80.3853 456.867 80.3853C457.461 80.3853 457.995 80.4946 458.469 80.7134C458.948 80.9269 459.354 81.229 459.688 81.6196C460.026 82.005 460.284 82.4608 460.461 82.9868C460.638 83.5076 460.727 84.0728 460.727 84.6821V84.8618C460.727 85.4712 460.638 86.0363 460.461 86.5571C460.284 87.078 460.026 87.5337 459.688 87.9243C459.354 88.3097 458.951 88.6118 458.477 88.8306C458.008 89.0441 457.477 89.1509 456.883 89.1509C456.289 89.1509 455.755 89.0441 455.281 88.8306C454.807 88.6118 454.401 88.3097 454.062 87.9243C453.729 87.5337 453.474 87.078 453.297 86.5571C453.12 86.0363 453.031 85.4712 453.031 84.8618ZM454.477 84.6821V84.8618C454.477 85.2837 454.526 85.6821 454.625 86.0571C454.724 86.4269 454.872 86.755 455.07 87.0415C455.273 87.328 455.526 87.5545 455.828 87.7212C456.13 87.8826 456.482 87.9634 456.883 87.9634C457.279 87.9634 457.625 87.8826 457.922 87.7212C458.224 87.5545 458.474 87.328 458.672 87.0415C458.87 86.755 459.018 86.4269 459.117 86.0571C459.221 85.6821 459.273 85.2837 459.273 84.8618V84.6821C459.273 84.2655 459.221 83.8722 459.117 83.5024C459.018 83.1274 458.867 82.7967 458.664 82.5103C458.466 82.2186 458.216 81.9894 457.914 81.8228C457.617 81.6561 457.268 81.5728 456.867 81.5728C456.471 81.5728 456.122 81.6561 455.82 81.8228C455.523 81.9894 455.273 82.2186 455.07 82.5103C454.872 82.7967 454.724 83.1274 454.625 83.5024C454.526 83.8722 454.477 84.2655 454.477 84.6821ZM466.078 80.5415V81.6509H461.508V80.5415H466.078ZM463.055 78.4868H464.5V86.9009C464.5 87.1873 464.544 87.4035 464.633 87.5493C464.721 87.6951 464.836 87.7915 464.977 87.8384C465.117 87.8853 465.268 87.9087 465.43 87.9087C465.549 87.9087 465.674 87.8983 465.805 87.8774C465.94 87.8514 466.042 87.8306 466.109 87.8149L466.117 88.9946C466.003 89.0311 465.852 89.0649 465.664 89.0962C465.482 89.1326 465.26 89.1509 465 89.1509C464.646 89.1509 464.32 89.0806 464.023 88.9399C463.727 88.7993 463.49 88.5649 463.312 88.2368C463.141 87.9035 463.055 87.4556 463.055 86.8931V78.4868ZM471.281 89.1509C470.693 89.1509 470.159 89.0519 469.68 88.854C469.206 88.6509 468.797 88.367 468.453 88.0024C468.115 87.6379 467.854 87.2056 467.672 86.7056C467.49 86.2056 467.398 85.6587 467.398 85.0649V84.7368C467.398 84.0493 467.5 83.4373 467.703 82.9009C467.906 82.3592 468.182 81.9009 468.531 81.5259C468.88 81.1509 469.276 80.867 469.719 80.6743C470.161 80.4816 470.62 80.3853 471.094 80.3853C471.698 80.3853 472.219 80.4894 472.656 80.6978C473.099 80.9061 473.461 81.1978 473.742 81.5728C474.023 81.9425 474.232 82.38 474.367 82.8853C474.503 83.3853 474.57 83.9321 474.57 84.5259V85.1743H468.258V83.9946H473.125V83.8853C473.104 83.5103 473.026 83.1457 472.891 82.7915C472.76 82.4373 472.552 82.1457 472.266 81.9165C471.979 81.6873 471.589 81.5728 471.094 81.5728C470.766 81.5728 470.464 81.6431 470.188 81.7837C469.911 81.9191 469.674 82.1222 469.477 82.3931C469.279 82.6639 469.125 82.9946 469.016 83.3853C468.906 83.7759 468.852 84.2264 468.852 84.7368V85.0649C468.852 85.466 468.906 85.8436 469.016 86.1978C469.13 86.5467 469.294 86.854 469.508 87.1196C469.727 87.3853 469.99 87.5936 470.297 87.7446C470.609 87.8957 470.964 87.9712 471.359 87.9712C471.87 87.9712 472.302 87.867 472.656 87.6587C473.01 87.4504 473.32 87.1717 473.586 86.8228L474.461 87.5181C474.279 87.7941 474.047 88.0571 473.766 88.3071C473.484 88.5571 473.138 88.7603 472.727 88.9165C472.32 89.0728 471.839 89.1509 471.281 89.1509ZM479.641 87.9634C479.984 87.9634 480.302 87.8931 480.594 87.7524C480.885 87.6118 481.125 87.4191 481.312 87.1743C481.5 86.9243 481.607 86.6405 481.633 86.3228H483.008C482.982 86.8228 482.812 87.2889 482.5 87.7212C482.193 88.1483 481.789 88.4946 481.289 88.7603C480.789 89.0207 480.24 89.1509 479.641 89.1509C479.005 89.1509 478.451 89.0389 477.977 88.8149C477.508 88.591 477.117 88.2837 476.805 87.8931C476.497 87.5024 476.266 87.0545 476.109 86.5493C475.958 86.0389 475.883 85.4998 475.883 84.9321V84.604C475.883 84.0363 475.958 83.4998 476.109 82.9946C476.266 82.4842 476.497 82.0337 476.805 81.6431C477.117 81.2524 477.508 80.9451 477.977 80.7212C478.451 80.4972 479.005 80.3853 479.641 80.3853C480.302 80.3853 480.88 80.5207 481.375 80.7915C481.87 81.0571 482.258 81.4217 482.539 81.8853C482.826 82.3436 482.982 82.8644 483.008 83.4478H481.633C481.607 83.0988 481.508 82.7837 481.336 82.5024C481.169 82.2212 480.94 81.9972 480.648 81.8306C480.362 81.6587 480.026 81.5728 479.641 81.5728C479.198 81.5728 478.826 81.6613 478.523 81.8384C478.227 82.0103 477.99 82.2446 477.812 82.5415C477.641 82.8332 477.516 83.1587 477.438 83.5181C477.365 83.8722 477.328 84.2342 477.328 84.604V84.9321C477.328 85.3019 477.365 85.6665 477.438 86.0259C477.51 86.3853 477.633 86.7108 477.805 87.0024C477.982 87.2941 478.219 87.5285 478.516 87.7056C478.818 87.8774 479.193 87.9634 479.641 87.9634ZM488.172 80.5415V81.6509H483.602V80.5415H488.172ZM485.148 78.4868H486.594V86.9009C486.594 87.1873 486.638 87.4035 486.727 87.5493C486.815 87.6951 486.93 87.7915 487.07 87.8384C487.211 87.8853 487.362 87.9087 487.523 87.9087C487.643 87.9087 487.768 87.8983 487.898 87.8774C488.034 87.8514 488.135 87.8306 488.203 87.8149L488.211 88.9946C488.096 89.0311 487.945 89.0649 487.758 89.0962C487.576 89.1326 487.354 89.1509 487.094 89.1509C486.74 89.1509 486.414 89.0806 486.117 88.9399C485.82 88.7993 485.583 88.5649 485.406 88.2368C485.234 87.9035 485.148 87.4556 485.148 86.8931V78.4868ZM496.211 88.1196L498.562 80.5415H500.109L496.719 90.2993C496.641 90.5076 496.536 90.7316 496.406 90.9712C496.281 91.216 496.12 91.4478 495.922 91.6665C495.724 91.8853 495.484 92.0623 495.203 92.1978C494.927 92.3384 494.596 92.4087 494.211 92.4087C494.096 92.4087 493.951 92.3931 493.773 92.3618C493.596 92.3306 493.471 92.3045 493.398 92.2837L493.391 91.1118C493.432 91.117 493.497 91.1222 493.586 91.1274C493.68 91.1379 493.745 91.1431 493.781 91.1431C494.109 91.1431 494.388 91.0988 494.617 91.0103C494.846 90.9269 495.039 90.7837 495.195 90.5806C495.357 90.3826 495.495 90.1092 495.609 89.7603L496.211 88.1196ZM494.484 80.5415L496.68 87.104L497.055 88.6274L496.016 89.1587L492.906 80.5415H494.484ZM500.906 84.8618V84.6821C500.906 84.0728 500.995 83.5076 501.172 82.9868C501.349 82.4608 501.604 82.005 501.938 81.6196C502.271 81.229 502.674 80.9269 503.148 80.7134C503.622 80.4946 504.154 80.3853 504.742 80.3853C505.336 80.3853 505.87 80.4946 506.344 80.7134C506.823 80.9269 507.229 81.229 507.562 81.6196C507.901 82.005 508.159 82.4608 508.336 82.9868C508.513 83.5076 508.602 84.0728 508.602 84.6821V84.8618C508.602 85.4712 508.513 86.0363 508.336 86.5571C508.159 87.078 507.901 87.5337 507.562 87.9243C507.229 88.3097 506.826 88.6118 506.352 88.8306C505.883 89.0441 505.352 89.1509 504.758 89.1509C504.164 89.1509 503.63 89.0441 503.156 88.8306C502.682 88.6118 502.276 88.3097 501.938 87.9243C501.604 87.5337 501.349 87.078 501.172 86.5571C500.995 86.0363 500.906 85.4712 500.906 84.8618ZM502.352 84.6821V84.8618C502.352 85.2837 502.401 85.6821 502.5 86.0571C502.599 86.4269 502.747 86.755 502.945 87.0415C503.148 87.328 503.401 87.5545 503.703 87.7212C504.005 87.8826 504.357 87.9634 504.758 87.9634C505.154 87.9634 505.5 87.8826 505.797 87.7212C506.099 87.5545 506.349 87.328 506.547 87.0415C506.745 86.755 506.893 86.4269 506.992 86.0571C507.096 85.6821 507.148 85.2837 507.148 84.8618V84.6821C507.148 84.2655 507.096 83.8722 506.992 83.5024C506.893 83.1274 506.742 82.7967 506.539 82.5103C506.341 82.2186 506.091 81.9894 505.789 81.8228C505.492 81.6561 505.143 81.5728 504.742 81.5728C504.346 81.5728 503.997 81.6561 503.695 81.8228C503.398 81.9894 503.148 82.2186 502.945 82.5103C502.747 82.7967 502.599 83.1274 502.5 83.5024C502.401 83.8722 502.352 84.2655 502.352 84.6821ZM515.586 87.0415V80.5415H517.039V88.9946H515.656L515.586 87.0415ZM515.859 85.2603L516.461 85.2446C516.461 85.8071 516.401 86.328 516.281 86.8071C516.167 87.2811 515.979 87.6925 515.719 88.0415C515.458 88.3905 515.117 88.6639 514.695 88.8618C514.273 89.0545 513.76 89.1509 513.156 89.1509C512.745 89.1509 512.367 89.091 512.023 88.9712C511.685 88.8514 511.393 88.6665 511.148 88.4165C510.904 88.1665 510.714 87.841 510.578 87.4399C510.448 87.0389 510.383 86.5571 510.383 85.9946V80.5415H511.828V86.0103C511.828 86.3905 511.87 86.7056 511.953 86.9556C512.042 87.2004 512.159 87.3957 512.305 87.5415C512.456 87.6821 512.622 87.7811 512.805 87.8384C512.992 87.8957 513.185 87.9243 513.383 87.9243C513.997 87.9243 514.484 87.8071 514.844 87.5728C515.203 87.3332 515.461 87.0129 515.617 86.6118C515.779 86.2056 515.859 85.755 515.859 85.2603ZM520.688 81.8696V88.9946H519.242V80.5415H520.648L520.688 81.8696ZM523.328 80.4946L523.32 81.8384C523.201 81.8123 523.086 81.7967 522.977 81.7915C522.872 81.7811 522.753 81.7759 522.617 81.7759C522.284 81.7759 521.99 81.828 521.734 81.9321C521.479 82.0363 521.263 82.1821 521.086 82.3696C520.909 82.5571 520.768 82.7811 520.664 83.0415C520.565 83.2967 520.5 83.578 520.469 83.8853L520.062 84.1196C520.062 83.6092 520.112 83.13 520.211 82.6821C520.315 82.2342 520.474 81.8384 520.688 81.4946C520.901 81.1457 521.172 80.8748 521.5 80.6821C521.833 80.4842 522.229 80.3853 522.688 80.3853C522.792 80.3853 522.911 80.3983 523.047 80.4243C523.182 80.4451 523.276 80.4686 523.328 80.4946ZM533.961 87.354V76.9946H535.414V88.9946H534.086L533.961 87.354ZM528.273 84.8618V84.6978C528.273 84.0519 528.352 83.466 528.508 82.9399C528.669 82.4087 528.896 81.953 529.188 81.5728C529.484 81.1925 529.836 80.9009 530.242 80.6978C530.654 80.4894 531.112 80.3853 531.617 80.3853C532.148 80.3853 532.612 80.479 533.008 80.6665C533.409 80.8488 533.747 81.117 534.023 81.4712C534.305 81.8201 534.526 82.242 534.688 82.7368C534.849 83.2316 534.961 83.7915 535.023 84.4165V85.1353C534.966 85.755 534.854 86.3123 534.688 86.8071C534.526 87.3019 534.305 87.7238 534.023 88.0728C533.747 88.4217 533.409 88.6899 533.008 88.8774C532.607 89.0597 532.138 89.1509 531.602 89.1509C531.107 89.1509 530.654 89.0441 530.242 88.8306C529.836 88.617 529.484 88.3175 529.188 87.9321C528.896 87.5467 528.669 87.0936 528.508 86.5728C528.352 86.0467 528.273 85.4764 528.273 84.8618ZM529.727 84.6978V84.8618C529.727 85.2837 529.768 85.6795 529.852 86.0493C529.94 86.4191 530.076 86.7446 530.258 87.0259C530.44 87.3071 530.672 87.5285 530.953 87.6899C531.234 87.8462 531.57 87.9243 531.961 87.9243C532.44 87.9243 532.833 87.8228 533.141 87.6196C533.453 87.4165 533.703 87.1483 533.891 86.8149C534.078 86.4816 534.224 86.1196 534.328 85.729V83.8462C534.266 83.5597 534.174 83.2837 534.055 83.0181C533.94 82.7472 533.789 82.5076 533.602 82.2993C533.419 82.0858 533.193 81.9165 532.922 81.7915C532.656 81.6665 532.341 81.604 531.977 81.604C531.581 81.604 531.24 81.6873 530.953 81.854C530.672 82.0155 530.44 82.2394 530.258 82.5259C530.076 82.8071 529.94 83.1353 529.852 83.5103C529.768 83.88 529.727 84.2759 529.727 84.6978ZM542.648 87.5493V83.1978C542.648 82.8644 542.581 82.5754 542.445 82.3306C542.315 82.0806 542.117 81.8879 541.852 81.7524C541.586 81.617 541.258 81.5493 540.867 81.5493C540.503 81.5493 540.182 81.6118 539.906 81.7368C539.635 81.8618 539.422 82.0259 539.266 82.229C539.115 82.4321 539.039 82.6509 539.039 82.8853H537.594C537.594 82.5832 537.672 82.2837 537.828 81.9868C537.984 81.6899 538.208 81.4217 538.5 81.1821C538.797 80.9373 539.151 80.7446 539.562 80.604C539.979 80.4582 540.443 80.3853 540.953 80.3853C541.568 80.3853 542.109 80.4894 542.578 80.6978C543.052 80.9061 543.422 81.2212 543.688 81.6431C543.958 82.0597 544.094 82.5832 544.094 83.2134V87.1509C544.094 87.4321 544.117 87.7316 544.164 88.0493C544.216 88.367 544.292 88.6405 544.391 88.8696V88.9946H542.883C542.81 88.828 542.753 88.6066 542.711 88.3306C542.669 88.0493 542.648 87.7889 542.648 87.5493ZM542.898 83.8696L542.914 84.8853H541.453C541.042 84.8853 540.674 84.9191 540.352 84.9868C540.029 85.0493 539.758 85.1457 539.539 85.2759C539.32 85.4061 539.154 85.5701 539.039 85.7681C538.924 85.9608 538.867 86.1873 538.867 86.4478C538.867 86.7134 538.927 86.9556 539.047 87.1743C539.167 87.3931 539.346 87.5675 539.586 87.6978C539.831 87.8228 540.13 87.8853 540.484 87.8853C540.927 87.8853 541.318 87.7915 541.656 87.604C541.995 87.4165 542.263 87.1873 542.461 86.9165C542.664 86.6457 542.773 86.3826 542.789 86.1274L543.406 86.8228C543.37 87.0415 543.271 87.2837 543.109 87.5493C542.948 87.8149 542.732 88.0701 542.461 88.3149C542.195 88.5545 541.878 88.755 541.508 88.9165C541.143 89.0728 540.732 89.1509 540.273 89.1509C539.701 89.1509 539.198 89.0389 538.766 88.8149C538.339 88.591 538.005 88.2915 537.766 87.9165C537.531 87.5363 537.414 87.1118 537.414 86.6431C537.414 86.1899 537.503 85.7915 537.68 85.4478C537.857 85.0988 538.112 84.8097 538.445 84.5806C538.779 84.3462 539.18 84.1691 539.648 84.0493C540.117 83.9295 540.641 83.8696 541.219 83.8696H542.898ZM549.906 80.5415V81.6509H545.336V80.5415H549.906ZM546.883 78.4868H548.328V86.9009C548.328 87.1873 548.372 87.4035 548.461 87.5493C548.549 87.6951 548.664 87.7915 548.805 87.8384C548.945 87.8853 549.096 87.9087 549.258 87.9087C549.378 87.9087 549.503 87.8983 549.633 87.8774C549.768 87.8514 549.87 87.8306 549.938 87.8149L549.945 88.9946C549.831 89.0311 549.68 89.0649 549.492 89.0962C549.31 89.1326 549.089 89.1509 548.828 89.1509C548.474 89.1509 548.148 89.0806 547.852 88.9399C547.555 88.7993 547.318 88.5649 547.141 88.2368C546.969 87.9035 546.883 87.4556 546.883 86.8931V78.4868ZM556.586 87.5493V83.1978C556.586 82.8644 556.518 82.5754 556.383 82.3306C556.253 82.0806 556.055 81.8879 555.789 81.7524C555.523 81.617 555.195 81.5493 554.805 81.5493C554.44 81.5493 554.12 81.6118 553.844 81.7368C553.573 81.8618 553.359 82.0259 553.203 82.229C553.052 82.4321 552.977 82.6509 552.977 82.8853H551.531C551.531 82.5832 551.609 82.2837 551.766 81.9868C551.922 81.6899 552.146 81.4217 552.438 81.1821C552.734 80.9373 553.089 80.7446 553.5 80.604C553.917 80.4582 554.38 80.3853 554.891 80.3853C555.505 80.3853 556.047 80.4894 556.516 80.6978C556.99 80.9061 557.359 81.2212 557.625 81.6431C557.896 82.0597 558.031 82.5832 558.031 83.2134V87.1509C558.031 87.4321 558.055 87.7316 558.102 88.0493C558.154 88.367 558.229 88.6405 558.328 88.8696V88.9946H556.82C556.747 88.828 556.69 88.6066 556.648 88.3306C556.607 88.0493 556.586 87.7889 556.586 87.5493ZM556.836 83.8696L556.852 84.8853H555.391C554.979 84.8853 554.612 84.9191 554.289 84.9868C553.966 85.0493 553.695 85.1457 553.477 85.2759C553.258 85.4061 553.091 85.5701 552.977 85.7681C552.862 85.9608 552.805 86.1873 552.805 86.4478C552.805 86.7134 552.865 86.9556 552.984 87.1743C553.104 87.3931 553.284 87.5675 553.523 87.6978C553.768 87.8228 554.068 87.8853 554.422 87.8853C554.865 87.8853 555.255 87.7915 555.594 87.604C555.932 87.4165 556.201 87.1873 556.398 86.9165C556.602 86.6457 556.711 86.3826 556.727 86.1274L557.344 86.8228C557.307 87.0415 557.208 87.2837 557.047 87.5493C556.885 87.8149 556.669 88.0701 556.398 88.3149C556.133 88.5545 555.815 88.755 555.445 88.9165C555.081 89.0728 554.669 89.1509 554.211 89.1509C553.638 89.1509 553.135 89.0389 552.703 88.8149C552.276 88.591 551.943 88.2915 551.703 87.9165C551.469 87.5363 551.352 87.1118 551.352 86.6431C551.352 86.1899 551.44 85.7915 551.617 85.4478C551.794 85.0988 552.049 84.8097 552.383 84.5806C552.716 84.3462 553.117 84.1691 553.586 84.0493C554.055 83.9295 554.578 83.8696 555.156 83.8696H556.836ZM569.258 87.5493V83.1978C569.258 82.8644 569.19 82.5754 569.055 82.3306C568.924 82.0806 568.727 81.8879 568.461 81.7524C568.195 81.617 567.867 81.5493 567.477 81.5493C567.112 81.5493 566.792 81.6118 566.516 81.7368C566.245 81.8618 566.031 82.0259 565.875 82.229C565.724 82.4321 565.648 82.6509 565.648 82.8853H564.203C564.203 82.5832 564.281 82.2837 564.438 81.9868C564.594 81.6899 564.818 81.4217 565.109 81.1821C565.406 80.9373 565.76 80.7446 566.172 80.604C566.589 80.4582 567.052 80.3853 567.562 80.3853C568.177 80.3853 568.719 80.4894 569.188 80.6978C569.661 80.9061 570.031 81.2212 570.297 81.6431C570.568 82.0597 570.703 82.5832 570.703 83.2134V87.1509C570.703 87.4321 570.727 87.7316 570.773 88.0493C570.826 88.367 570.901 88.6405 571 88.8696V88.9946H569.492C569.419 88.828 569.362 88.6066 569.32 88.3306C569.279 88.0493 569.258 87.7889 569.258 87.5493ZM569.508 83.8696L569.523 84.8853H568.062C567.651 84.8853 567.284 84.9191 566.961 84.9868C566.638 85.0493 566.367 85.1457 566.148 85.2759C565.93 85.4061 565.763 85.5701 565.648 85.7681C565.534 85.9608 565.477 86.1873 565.477 86.4478C565.477 86.7134 565.536 86.9556 565.656 87.1743C565.776 87.3931 565.956 87.5675 566.195 87.6978C566.44 87.8228 566.74 87.8853 567.094 87.8853C567.536 87.8853 567.927 87.7915 568.266 87.604C568.604 87.4165 568.872 87.1873 569.07 86.9165C569.273 86.6457 569.383 86.3826 569.398 86.1274L570.016 86.8228C569.979 87.0415 569.88 87.2837 569.719 87.5493C569.557 87.8149 569.341 88.0701 569.07 88.3149C568.805 88.5545 568.487 88.755 568.117 88.9165C567.753 89.0728 567.341 89.1509 566.883 89.1509C566.31 89.1509 565.807 89.0389 565.375 88.8149C564.948 88.591 564.615 88.2915 564.375 87.9165C564.141 87.5363 564.023 87.1118 564.023 86.6431C564.023 86.1899 564.112 85.7915 564.289 85.4478C564.466 85.0988 564.721 84.8097 565.055 84.5806C565.388 84.3462 565.789 84.1691 566.258 84.0493C566.727 83.9295 567.25 83.8696 567.828 83.8696H569.508ZM574.422 82.3462V88.9946H572.977V80.5415H574.344L574.422 82.3462ZM574.078 84.4478L573.477 84.4243C573.482 83.8462 573.568 83.3123 573.734 82.8228C573.901 82.328 574.135 81.8983 574.438 81.5337C574.74 81.1691 575.099 80.8879 575.516 80.6899C575.938 80.4868 576.404 80.3853 576.914 80.3853C577.331 80.3853 577.706 80.4425 578.039 80.5571C578.372 80.6665 578.656 80.8436 578.891 81.0884C579.13 81.3332 579.312 81.6509 579.438 82.0415C579.562 82.4269 579.625 82.8983 579.625 83.4556V88.9946H578.172V83.4399C578.172 82.9972 578.107 82.6431 577.977 82.3774C577.846 82.1066 577.656 81.9113 577.406 81.7915C577.156 81.6665 576.849 81.604 576.484 81.604C576.125 81.604 575.797 81.6795 575.5 81.8306C575.208 81.9816 574.956 82.1899 574.742 82.4556C574.534 82.7212 574.37 83.0259 574.25 83.3696C574.135 83.7082 574.078 84.0675 574.078 84.4478ZM587.148 87.354V76.9946H588.602V88.9946H587.273L587.148 87.354ZM581.461 84.8618V84.6978C581.461 84.0519 581.539 83.466 581.695 82.9399C581.857 82.4087 582.083 81.953 582.375 81.5728C582.672 81.1925 583.023 80.9009 583.43 80.6978C583.841 80.4894 584.299 80.3853 584.805 80.3853C585.336 80.3853 585.799 80.479 586.195 80.6665C586.596 80.8488 586.935 81.117 587.211 81.4712C587.492 81.8201 587.714 82.242 587.875 82.7368C588.036 83.2316 588.148 83.7915 588.211 84.4165V85.1353C588.154 85.755 588.042 86.3123 587.875 86.8071C587.714 87.3019 587.492 87.7238 587.211 88.0728C586.935 88.4217 586.596 88.6899 586.195 88.8774C585.794 89.0597 585.326 89.1509 584.789 89.1509C584.294 89.1509 583.841 89.0441 583.43 88.8306C583.023 88.617 582.672 88.3175 582.375 87.9321C582.083 87.5467 581.857 87.0936 581.695 86.5728C581.539 86.0467 581.461 85.4764 581.461 84.8618ZM582.914 84.6978V84.8618C582.914 85.2837 582.956 85.6795 583.039 86.0493C583.128 86.4191 583.263 86.7446 583.445 87.0259C583.628 87.3071 583.859 87.5285 584.141 87.6899C584.422 87.8462 584.758 87.9243 585.148 87.9243C585.628 87.9243 586.021 87.8228 586.328 87.6196C586.641 87.4165 586.891 87.1483 587.078 86.8149C587.266 86.4816 587.411 86.1196 587.516 85.729V83.8462C587.453 83.5597 587.362 83.2837 587.242 83.0181C587.128 82.7472 586.977 82.5076 586.789 82.2993C586.607 82.0858 586.38 81.9165 586.109 81.7915C585.844 81.6665 585.529 81.604 585.164 81.604C584.768 81.604 584.427 81.6873 584.141 81.854C583.859 82.0155 583.628 82.2394 583.445 82.5259C583.263 82.8071 583.128 83.1353 583.039 83.5103C582.956 83.88 582.914 84.2759 582.914 84.6978ZM596.977 88.9946H595.531V79.6509C595.531 79.0415 595.641 78.5285 595.859 78.1118C596.083 77.6899 596.404 77.3722 596.82 77.1587C597.237 76.9399 597.732 76.8306 598.305 76.8306C598.471 76.8306 598.638 76.841 598.805 76.8618C598.977 76.8826 599.143 76.9139 599.305 76.9556L599.227 78.1353C599.117 78.1092 598.992 78.091 598.852 78.0806C598.716 78.0701 598.581 78.0649 598.445 78.0649C598.138 78.0649 597.872 78.1274 597.648 78.2524C597.43 78.3722 597.263 78.5493 597.148 78.7837C597.034 79.0181 596.977 79.3071 596.977 79.6509V88.9946ZM598.773 80.5415V81.6509H594.195V80.5415H598.773ZM605.555 87.0415V80.5415H607.008V88.9946H605.625L605.555 87.0415ZM605.828 85.2603L606.43 85.2446C606.43 85.8071 606.37 86.328 606.25 86.8071C606.135 87.2811 605.948 87.6925 605.688 88.0415C605.427 88.3905 605.086 88.6639 604.664 88.8618C604.242 89.0545 603.729 89.1509 603.125 89.1509C602.714 89.1509 602.336 89.091 601.992 88.9712C601.654 88.8514 601.362 88.6665 601.117 88.4165C600.872 88.1665 600.682 87.841 600.547 87.4399C600.417 87.0389 600.352 86.5571 600.352 85.9946V80.5415H601.797V86.0103C601.797 86.3905 601.839 86.7056 601.922 86.9556C602.01 87.2004 602.128 87.3957 602.273 87.5415C602.424 87.6821 602.591 87.7811 602.773 87.8384C602.961 87.8957 603.154 87.9243 603.352 87.9243C603.966 87.9243 604.453 87.8071 604.812 87.5728C605.172 87.3332 605.43 87.0129 605.586 86.6118C605.747 86.2056 605.828 85.755 605.828 85.2603ZM610.656 82.3462V88.9946H609.211V80.5415H610.578L610.656 82.3462ZM610.312 84.4478L609.711 84.4243C609.716 83.8462 609.802 83.3123 609.969 82.8228C610.135 82.328 610.37 81.8983 610.672 81.5337C610.974 81.1691 611.333 80.8879 611.75 80.6899C612.172 80.4868 612.638 80.3853 613.148 80.3853C613.565 80.3853 613.94 80.4425 614.273 80.5571C614.607 80.6665 614.891 80.8436 615.125 81.0884C615.365 81.3332 615.547 81.6509 615.672 82.0415C615.797 82.4269 615.859 82.8983 615.859 83.4556V88.9946H614.406V83.4399C614.406 82.9972 614.341 82.6431 614.211 82.3774C614.081 82.1066 613.891 81.9113 613.641 81.7915C613.391 81.6665 613.083 81.604 612.719 81.604C612.359 81.604 612.031 81.6795 611.734 81.8306C611.443 81.9816 611.19 82.1899 610.977 82.4556C610.768 82.7212 610.604 83.0259 610.484 83.3696C610.37 83.7082 610.312 84.0675 610.312 84.4478ZM623.383 87.354V76.9946H624.836V88.9946H623.508L623.383 87.354ZM617.695 84.8618V84.6978C617.695 84.0519 617.773 83.466 617.93 82.9399C618.091 82.4087 618.318 81.953 618.609 81.5728C618.906 81.1925 619.258 80.9009 619.664 80.6978C620.076 80.4894 620.534 80.3853 621.039 80.3853C621.57 80.3853 622.034 80.479 622.43 80.6665C622.831 80.8488 623.169 81.117 623.445 81.4712C623.727 81.8201 623.948 82.242 624.109 82.7368C624.271 83.2316 624.383 83.7915 624.445 84.4165V85.1353C624.388 85.755 624.276 86.3123 624.109 86.8071C623.948 87.3019 623.727 87.7238 623.445 88.0728C623.169 88.4217 622.831 88.6899 622.43 88.8774C622.029 89.0597 621.56 89.1509 621.023 89.1509C620.529 89.1509 620.076 89.0441 619.664 88.8306C619.258 88.617 618.906 88.3175 618.609 87.9321C618.318 87.5467 618.091 87.0936 617.93 86.5728C617.773 86.0467 617.695 85.4764 617.695 84.8618ZM619.148 84.6978V84.8618C619.148 85.2837 619.19 85.6795 619.273 86.0493C619.362 86.4191 619.497 86.7446 619.68 87.0259C619.862 87.3071 620.094 87.5285 620.375 87.6899C620.656 87.8462 620.992 87.9243 621.383 87.9243C621.862 87.9243 622.255 87.8228 622.562 87.6196C622.875 87.4165 623.125 87.1483 623.312 86.8149C623.5 86.4816 623.646 86.1196 623.75 85.729V83.8462C623.688 83.5597 623.596 83.2837 623.477 83.0181C623.362 82.7472 623.211 82.5076 623.023 82.2993C622.841 82.0858 622.615 81.9165 622.344 81.7915C622.078 81.6665 621.763 81.604 621.398 81.604C621.003 81.604 620.661 81.6873 620.375 81.854C620.094 82.0155 619.862 82.2394 619.68 82.5259C619.497 82.8071 619.362 83.1353 619.273 83.5103C619.19 83.88 619.148 84.2759 619.148 84.6978ZM627.109 88.229C627.109 87.9842 627.185 87.7785 627.336 87.6118C627.492 87.4399 627.716 87.354 628.008 87.354C628.299 87.354 628.521 87.4399 628.672 87.6118C628.828 87.7785 628.906 87.9842 628.906 88.229C628.906 88.4686 628.828 88.6717 628.672 88.8384C628.521 89.005 628.299 89.0884 628.008 89.0884C627.716 89.0884 627.492 89.005 627.336 88.8384C627.185 88.6717 627.109 88.4686 627.109 88.229Z" fill="#000C2A"/>
</g>
<rect x="0.5" y="0.5" width="823" height="508" rx="19.5" stroke="#2F2F2F" stroke-opacity="0.53"/>
<defs>
<clipPath id="clip0_1635_5276">
<rect width="824" height="509" rx="20" fill="white"/>
</clipPath>
<clipPath id="clip1_1635_5276">
<rect y="164.995" width="824" height="499" rx="20" fill="white"/>
</clipPath>
</defs>
</svg>
