<svg width="483" height="509" viewBox="0 0 483 509" fill="none" xmlns="http://www.w3.org/2000/svg">
<rect width="483" height="509" rx="20" fill="white"/>
<rect x="0.5" y="0.5" width="482" height="508" rx="19.5" stroke="#2F2F2F" stroke-opacity="0.53"/>
<circle cx="241.5" cy="181.918" r="109.424" fill="#2F2F2F"/>
<path fill-rule="evenodd" clip-rule="evenodd" d="M193.768 161.788C193.768 144.856 207.494 131.129 224.427 131.129C241.36 131.129 255.086 144.856 255.086 161.788C255.086 178.721 241.36 192.448 224.427 192.448C207.494 192.448 193.768 178.721 193.768 161.788Z" fill="#196BFE"/>
<path d="M257.592 179.252C257.282 179.839 257.414 180.572 257.947 180.967C261.91 183.9 266.813 185.635 272.122 185.635C285.291 185.635 295.968 174.958 295.968 161.788C295.968 148.619 285.291 137.942 272.122 137.942C266.813 137.942 261.91 139.677 257.947 142.61C257.414 143.005 257.282 143.738 257.592 144.325C260.344 149.54 261.902 155.482 261.902 161.788C261.902 168.095 260.344 174.037 257.592 179.252Z" fill="#196BFE"/>
<path fill-rule="evenodd" clip-rule="evenodd" d="M191.32 204.025C199.716 200.381 210.732 199.261 224.423 199.261C238.126 199.261 249.151 200.383 257.55 204.035C266.7 208.014 272.26 214.79 275.175 224.357C276.541 228.842 273.173 233.327 268.531 233.327H180.329C175.682 233.327 172.306 228.836 173.676 224.343C176.595 214.773 182.164 207.999 191.32 204.025Z" fill="#196BFE"/>
<path d="M260.661 192.696C257.841 192.871 257.675 196.66 260.267 197.787C267.369 200.876 272.717 205.422 276.552 211.225C279.699 215.987 284.586 219.7 290.293 219.7H302.425C307.243 219.7 310.759 214.912 309.064 210.236C308.966 209.967 308.865 209.699 308.76 209.434C306.427 203.543 302.428 199.207 296.507 196.443C290.949 193.848 283.99 192.777 275.791 192.453L275.657 192.448H275.522C270.693 192.448 265.649 192.386 260.661 192.696Z" fill="#196BFE"/>
<path d="M52.0781 360.061H55.5312C55.7812 362.295 57.9531 363.764 60.9219 363.764C63.7656 363.764 65.8125 362.295 65.8125 360.28C65.8125 358.53 64.5781 357.483 61.6562 356.764L58.7344 356.061C54.5938 355.061 52.6719 353.123 52.6719 349.983C52.6719 346.092 56.0625 343.42 60.875 343.42C65.6406 343.42 68.9062 346.092 69.0156 349.983H65.6094C65.4062 347.733 63.5469 346.373 60.8281 346.373C58.1094 346.373 56.25 347.748 56.25 349.748C56.25 351.342 57.4375 352.28 60.3438 352.998L62.8281 353.608C67.4531 354.701 69.375 356.561 69.375 359.858C69.375 364.076 66.0156 366.717 60.6719 366.717C55.6719 366.717 52.2969 364.139 52.0781 360.061ZM78.3444 352.326C75.985 352.326 74.3288 354.123 74.1569 356.608H82.3756C82.2975 354.092 80.7038 352.326 78.3444 352.326ZM82.36 361.514H85.5631C85.0944 364.514 82.2506 366.655 78.485 366.655C73.6569 366.655 70.735 363.389 70.735 358.201C70.735 353.045 73.7038 349.608 78.3444 349.608C82.9069 349.608 85.7506 352.826 85.7506 357.811V358.967H74.1413V359.17C74.1413 362.03 75.86 363.92 78.5631 363.92C80.485 363.92 81.9069 362.951 82.36 361.514ZM93.4856 363.951C95.845 363.951 97.6888 362.326 97.6888 360.186V358.889L93.6419 359.139C91.6263 359.28 90.4856 360.17 90.4856 361.576C90.4856 363.014 91.6731 363.951 93.4856 363.951ZM92.5481 366.623C89.3294 366.623 87.0794 364.623 87.0794 361.67C87.0794 358.795 89.2825 357.03 93.1888 356.811L97.6888 356.545V355.28C97.6888 353.451 96.4544 352.358 94.3919 352.358C92.4388 352.358 91.22 353.295 90.9231 354.764H87.7356C87.9231 351.795 90.4544 349.608 94.5169 349.608C98.5013 349.608 101.048 351.717 101.048 355.014V366.342H97.8138V363.639H97.7356C96.7825 365.467 94.7044 366.623 92.5481 366.623ZM103.689 366.342V349.905H106.908V352.67H106.986C107.721 350.842 109.439 349.623 111.658 349.623C113.939 349.623 115.596 350.795 116.252 352.842H116.33C117.174 350.842 119.111 349.623 121.455 349.623C124.705 349.623 126.83 351.78 126.83 355.045V366.342H123.439V355.858C123.439 353.733 122.299 352.514 120.299 352.514C118.299 352.514 116.908 353.998 116.908 356.076V366.342H113.596V355.608C113.596 353.717 112.393 352.514 110.486 352.514C108.486 352.514 107.064 354.076 107.064 356.186V366.342H103.689ZM129.581 366.342V343.795H132.956V366.342H129.581ZM142.659 352.326C140.3 352.326 138.644 354.123 138.472 356.608H146.691C146.613 354.092 145.019 352.326 142.659 352.326ZM146.675 361.514H149.878C149.409 364.514 146.566 366.655 142.8 366.655C137.972 366.655 135.05 363.389 135.05 358.201C135.05 353.045 138.019 349.608 142.659 349.608C147.222 349.608 150.066 352.826 150.066 357.811V358.967H138.456V359.17C138.456 362.03 140.175 363.92 142.878 363.92C144.8 363.92 146.222 362.951 146.675 361.514ZM151.754 354.561C151.754 351.623 154.348 349.608 158.191 349.608C161.848 349.608 164.41 351.655 164.519 354.576H161.348C161.191 353.092 159.988 352.17 158.098 352.17C156.269 352.17 155.051 353.061 155.051 354.358C155.051 355.373 155.863 356.061 157.566 356.483L160.332 357.123C163.644 357.92 164.894 359.17 164.894 361.592C164.894 364.592 162.098 366.655 158.066 366.655C154.176 366.655 151.598 364.639 151.332 361.623H154.676C154.941 363.201 156.16 364.076 158.223 364.076C160.254 364.076 161.504 363.233 161.504 361.905C161.504 360.858 160.879 360.28 159.16 359.842L156.223 359.123C153.254 358.405 151.754 356.858 151.754 354.561ZM166.582 354.561C166.582 351.623 169.176 349.608 173.02 349.608C176.676 349.608 179.239 351.655 179.348 354.576H176.176C176.02 353.092 174.817 352.17 172.926 352.17C171.098 352.17 169.879 353.061 169.879 354.358C169.879 355.373 170.692 356.061 172.395 356.483L175.161 357.123C178.473 357.92 179.723 359.17 179.723 361.592C179.723 364.592 176.926 366.655 172.895 366.655C169.004 366.655 166.426 364.639 166.161 361.623H169.504C169.77 363.201 170.989 364.076 173.051 364.076C175.082 364.076 176.332 363.233 176.332 361.905C176.332 360.858 175.707 360.28 173.989 359.842L171.051 359.123C168.082 358.405 166.582 356.858 166.582 354.561ZM197.49 366.717C191.162 366.717 187.162 362.248 187.162 355.061C187.162 347.92 191.193 343.42 197.49 343.42C202.599 343.42 206.459 346.561 207.053 351.264H203.584C202.959 348.373 200.553 346.483 197.49 346.483C193.396 346.483 190.74 349.842 190.74 355.061C190.74 360.326 193.365 363.655 197.506 363.655C200.646 363.655 202.881 362.045 203.584 359.326H207.068C206.209 363.983 202.678 366.717 197.49 366.717ZM223.272 349.905V366.342H220.038V363.561H219.959C219.053 365.53 217.381 366.639 214.866 366.639C211.288 366.639 209.1 364.311 209.1 360.545V349.905H212.475V359.889C212.475 362.389 213.663 363.733 215.991 363.733C218.428 363.733 219.897 362.045 219.897 359.483V349.905H223.272ZM225.679 354.561C225.679 351.623 228.273 349.608 232.116 349.608C235.773 349.608 238.335 351.655 238.444 354.576H235.273C235.116 353.092 233.913 352.17 232.023 352.17C230.194 352.17 228.976 353.061 228.976 354.358C228.976 355.373 229.788 356.061 231.491 356.483L234.257 357.123C237.569 357.92 238.819 359.17 238.819 361.592C238.819 364.592 236.023 366.655 231.991 366.655C228.101 366.655 225.523 364.639 225.257 361.623H228.601C228.866 363.201 230.085 364.076 232.148 364.076C234.179 364.076 235.429 363.233 235.429 361.905C235.429 360.858 234.804 360.28 233.085 359.842L230.148 359.123C227.179 358.405 225.679 356.858 225.679 354.561ZM241.789 346.014H245.179V349.905H248.304V352.576H245.179V361.639C245.179 363.061 245.804 363.701 247.179 363.701C247.523 363.701 248.07 363.67 248.289 363.623V366.295C247.914 366.389 247.164 366.451 246.414 366.451C243.086 366.451 241.789 365.186 241.789 362.014V352.576H239.398V349.905H241.789V346.014ZM257.102 366.655C252.399 366.655 249.305 363.42 249.305 358.123C249.305 352.842 252.414 349.608 257.102 349.608C261.789 349.608 264.899 352.842 264.899 358.123C264.899 363.42 261.805 366.655 257.102 366.655ZM257.102 363.873C259.758 363.873 261.461 361.78 261.461 358.123C261.461 354.483 259.742 352.389 257.102 352.389C254.461 352.389 252.742 354.483 252.742 358.123C252.742 361.78 254.461 363.873 257.102 363.873ZM266.868 366.342V349.905H270.087V352.67H270.165C270.899 350.842 272.618 349.623 274.837 349.623C277.118 349.623 278.774 350.795 279.431 352.842H279.509C280.352 350.842 282.29 349.623 284.634 349.623C287.884 349.623 290.009 351.78 290.009 355.045V366.342H286.618V355.858C286.618 353.733 285.477 352.514 283.477 352.514C281.477 352.514 280.087 353.998 280.087 356.076V366.342H276.774V355.608C276.774 353.717 275.571 352.514 273.665 352.514C271.665 352.514 270.243 354.076 270.243 356.186V366.342H266.868ZM299.509 352.326C297.15 352.326 295.494 354.123 295.322 356.608H303.541C303.462 354.092 301.869 352.326 299.509 352.326ZM303.525 361.514H306.728C306.259 364.514 303.416 366.655 299.65 366.655C294.822 366.655 291.9 363.389 291.9 358.201C291.9 353.045 294.869 349.608 299.509 349.608C304.072 349.608 306.916 352.826 306.916 357.811V358.967H295.306V359.17C295.306 362.03 297.025 363.92 299.728 363.92C301.65 363.92 303.072 362.951 303.525 361.514ZM308.901 366.342V349.905H312.119V352.701H312.198C312.744 350.78 314.213 349.639 316.151 349.639C316.635 349.639 317.057 349.717 317.307 349.764V352.905C317.041 352.795 316.448 352.717 315.791 352.717C313.619 352.717 312.276 354.17 312.276 356.498V366.342H308.901ZM324.027 360.061H327.48C327.73 362.295 329.902 363.764 332.871 363.764C335.714 363.764 337.761 362.295 337.761 360.28C337.761 358.53 336.527 357.483 333.605 356.764L330.683 356.061C326.543 355.061 324.621 353.123 324.621 349.983C324.621 346.092 328.011 343.42 332.824 343.42C337.589 343.42 340.855 346.092 340.964 349.983H337.558C337.355 347.733 335.496 346.373 332.777 346.373C330.058 346.373 328.199 347.748 328.199 349.748C328.199 351.342 329.386 352.28 332.293 352.998L334.777 353.608C339.402 354.701 341.324 356.561 341.324 359.858C341.324 364.076 337.964 366.717 332.621 366.717C327.621 366.717 324.246 364.139 324.027 360.061ZM357.512 349.905V366.342H354.277V363.561H354.199C353.293 365.53 351.621 366.639 349.106 366.639C345.527 366.639 343.34 364.311 343.34 360.545V349.905H346.715V359.889C346.715 362.389 347.902 363.733 350.231 363.733C352.668 363.733 354.137 362.045 354.137 359.483V349.905H357.512ZM368.778 349.639C372.95 349.639 375.7 352.92 375.7 358.123C375.7 363.326 372.966 366.623 368.841 366.623C366.481 366.623 364.606 365.467 363.669 363.639H363.591V371.78H360.216V349.905H363.481V352.733H363.544C364.513 350.842 366.403 349.639 368.778 349.639ZM367.888 363.764C370.559 363.764 372.231 361.576 372.231 358.123C372.231 354.686 370.559 352.483 367.888 352.483C365.309 352.483 363.575 354.733 363.575 358.123C363.575 361.545 365.294 363.764 367.888 363.764ZM386.232 349.639C390.404 349.639 393.154 352.92 393.154 358.123C393.154 363.326 390.419 366.623 386.294 366.623C383.935 366.623 382.06 365.467 381.122 363.639H381.044V371.78H377.669V349.905H380.935V352.733H380.997C381.966 350.842 383.857 349.639 386.232 349.639ZM385.341 363.764C388.013 363.764 389.685 361.576 389.685 358.123C389.685 354.686 388.013 352.483 385.341 352.483C382.763 352.483 381.029 354.733 381.029 358.123C381.029 361.545 382.747 363.764 385.341 363.764ZM402.186 366.655C397.483 366.655 394.389 363.42 394.389 358.123C394.389 352.842 397.498 349.608 402.186 349.608C406.873 349.608 409.983 352.842 409.983 358.123C409.983 363.42 406.889 366.655 402.186 366.655ZM402.186 363.873C404.842 363.873 406.545 361.78 406.545 358.123C406.545 354.483 404.826 352.389 402.186 352.389C399.545 352.389 397.826 354.483 397.826 358.123C397.826 361.78 399.545 363.873 402.186 363.873ZM411.952 366.342V349.905H415.171V352.701H415.249C415.796 350.78 417.264 349.639 419.202 349.639C419.686 349.639 420.108 349.717 420.358 349.764V352.905C420.092 352.795 419.499 352.717 418.842 352.717C416.671 352.717 415.327 354.17 415.327 356.498V366.342H411.952ZM422.796 346.014H426.187V349.905H429.312V352.576H426.187V361.639C426.187 363.061 426.812 363.701 428.187 363.701C428.531 363.701 429.078 363.67 429.296 363.623V366.295C428.921 366.389 428.171 366.451 427.421 366.451C424.093 366.451 422.796 365.186 422.796 362.014V352.576H420.406V349.905H422.796V346.014Z" fill="#2F2F2F"/>
<path d="M71.6016 394.967V406.342H70.0938V394.967H71.6016ZM76.3672 400.084V401.319H71.2734V400.084H76.3672ZM77.1406 394.967V396.201H71.2734V394.967H77.1406ZM79.9609 399.217V406.342H78.5156V397.889H79.9219L79.9609 399.217ZM82.6016 397.842L82.5938 399.186C82.474 399.16 82.3594 399.144 82.25 399.139C82.1458 399.128 82.026 399.123 81.8906 399.123C81.5573 399.123 81.263 399.175 81.0078 399.28C80.7526 399.384 80.5365 399.53 80.3594 399.717C80.1823 399.905 80.0417 400.128 79.9375 400.389C79.8385 400.644 79.7734 400.925 79.7422 401.233L79.3359 401.467C79.3359 400.957 79.3854 400.477 79.4844 400.03C79.5885 399.582 79.7474 399.186 79.9609 398.842C80.1745 398.493 80.4453 398.222 80.7734 398.03C81.1068 397.832 81.5026 397.733 81.9609 397.733C82.0651 397.733 82.1849 397.746 82.3203 397.772C82.4557 397.793 82.5495 397.816 82.6016 397.842ZM85.5078 397.889V406.342H84.0547V397.889H85.5078ZM83.9453 395.647C83.9453 395.412 84.0156 395.214 84.1562 395.053C84.3021 394.892 84.5156 394.811 84.7969 394.811C85.0729 394.811 85.2839 394.892 85.4297 395.053C85.5807 395.214 85.6562 395.412 85.6562 395.647C85.6562 395.871 85.5807 396.063 85.4297 396.225C85.2839 396.381 85.0729 396.459 84.7969 396.459C84.5156 396.459 84.3021 396.381 84.1562 396.225C84.0156 396.063 83.9453 395.871 83.9453 395.647ZM91.3359 406.498C90.7474 406.498 90.2135 406.399 89.7344 406.201C89.2604 405.998 88.8516 405.714 88.5078 405.35C88.1693 404.985 87.9089 404.553 87.7266 404.053C87.5443 403.553 87.4531 403.006 87.4531 402.412V402.084C87.4531 401.397 87.5547 400.785 87.7578 400.248C87.9609 399.707 88.237 399.248 88.5859 398.873C88.9349 398.498 89.3307 398.214 89.7734 398.022C90.2161 397.829 90.6745 397.733 91.1484 397.733C91.7526 397.733 92.2734 397.837 92.7109 398.045C93.1536 398.253 93.5156 398.545 93.7969 398.92C94.0781 399.29 94.2865 399.727 94.4219 400.233C94.5573 400.733 94.625 401.28 94.625 401.873V402.522H88.3125V401.342H93.1797V401.233C93.1589 400.858 93.0807 400.493 92.9453 400.139C92.8151 399.785 92.6068 399.493 92.3203 399.264C92.0339 399.035 91.6432 398.92 91.1484 398.92C90.8203 398.92 90.5182 398.99 90.2422 399.131C89.9661 399.267 89.7292 399.47 89.5312 399.74C89.3333 400.011 89.1797 400.342 89.0703 400.733C88.9609 401.123 88.9062 401.574 88.9062 402.084V402.412C88.9062 402.813 88.9609 403.191 89.0703 403.545C89.1849 403.894 89.349 404.201 89.5625 404.467C89.7812 404.733 90.0443 404.941 90.3516 405.092C90.6641 405.243 91.0182 405.319 91.4141 405.319C91.9245 405.319 92.3568 405.214 92.7109 405.006C93.0651 404.798 93.375 404.519 93.6406 404.17L94.5156 404.865C94.3333 405.142 94.1016 405.405 93.8203 405.655C93.5391 405.905 93.1927 406.108 92.7812 406.264C92.375 406.42 91.8932 406.498 91.3359 406.498ZM97.7578 399.694V406.342H96.3125V397.889H97.6797L97.7578 399.694ZM97.4141 401.795L96.8125 401.772C96.8177 401.194 96.9036 400.66 97.0703 400.17C97.237 399.675 97.4714 399.246 97.7734 398.881C98.0755 398.517 98.4349 398.235 98.8516 398.037C99.2734 397.834 99.7396 397.733 100.25 397.733C100.667 397.733 101.042 397.79 101.375 397.905C101.708 398.014 101.992 398.191 102.227 398.436C102.466 398.681 102.648 398.998 102.773 399.389C102.898 399.774 102.961 400.246 102.961 400.803V406.342H101.508V400.787C101.508 400.345 101.443 399.99 101.312 399.725C101.182 399.454 100.992 399.259 100.742 399.139C100.492 399.014 100.185 398.951 99.8203 398.951C99.4609 398.951 99.1328 399.027 98.8359 399.178C98.5443 399.329 98.2917 399.537 98.0781 399.803C97.8698 400.069 97.7057 400.373 97.5859 400.717C97.4714 401.056 97.4141 401.415 97.4141 401.795ZM110.484 404.701V394.342H111.938V406.342H110.609L110.484 404.701ZM104.797 402.209V402.045C104.797 401.399 104.875 400.813 105.031 400.287C105.193 399.756 105.419 399.3 105.711 398.92C106.008 398.54 106.359 398.248 106.766 398.045C107.177 397.837 107.635 397.733 108.141 397.733C108.672 397.733 109.135 397.826 109.531 398.014C109.932 398.196 110.271 398.464 110.547 398.819C110.828 399.168 111.049 399.589 111.211 400.084C111.372 400.579 111.484 401.139 111.547 401.764V402.483C111.49 403.102 111.378 403.66 111.211 404.155C111.049 404.649 110.828 405.071 110.547 405.42C110.271 405.769 109.932 406.037 109.531 406.225C109.13 406.407 108.661 406.498 108.125 406.498C107.63 406.498 107.177 406.392 106.766 406.178C106.359 405.964 106.008 405.665 105.711 405.28C105.419 404.894 105.193 404.441 105.031 403.92C104.875 403.394 104.797 402.824 104.797 402.209ZM106.25 402.045V402.209C106.25 402.631 106.292 403.027 106.375 403.397C106.464 403.767 106.599 404.092 106.781 404.373C106.964 404.655 107.195 404.876 107.477 405.037C107.758 405.194 108.094 405.272 108.484 405.272C108.964 405.272 109.357 405.17 109.664 404.967C109.977 404.764 110.227 404.496 110.414 404.162C110.602 403.829 110.747 403.467 110.852 403.076V401.194C110.789 400.907 110.698 400.631 110.578 400.365C110.464 400.095 110.312 399.855 110.125 399.647C109.943 399.433 109.716 399.264 109.445 399.139C109.18 399.014 108.865 398.951 108.5 398.951C108.104 398.951 107.763 399.035 107.477 399.201C107.195 399.363 106.964 399.587 106.781 399.873C106.599 400.155 106.464 400.483 106.375 400.858C106.292 401.227 106.25 401.623 106.25 402.045ZM115.758 394.342V406.342H114.305V394.342H115.758ZM120.453 405.467L122.805 397.889H124.352L120.961 407.647C120.883 407.855 120.779 408.079 120.648 408.319C120.523 408.563 120.362 408.795 120.164 409.014C119.966 409.233 119.727 409.41 119.445 409.545C119.169 409.686 118.839 409.756 118.453 409.756C118.339 409.756 118.193 409.74 118.016 409.709C117.839 409.678 117.714 409.652 117.641 409.631L117.633 408.459C117.674 408.464 117.74 408.47 117.828 408.475C117.922 408.485 117.987 408.49 118.023 408.49C118.352 408.49 118.63 408.446 118.859 408.358C119.089 408.274 119.281 408.131 119.438 407.928C119.599 407.73 119.737 407.457 119.852 407.108L120.453 405.467ZM118.727 397.889L120.922 404.451L121.297 405.975L120.258 406.506L117.148 397.889H118.727ZM134.609 404.897V400.545C134.609 400.212 134.542 399.923 134.406 399.678C134.276 399.428 134.078 399.235 133.812 399.1C133.547 398.964 133.219 398.897 132.828 398.897C132.464 398.897 132.143 398.959 131.867 399.084C131.596 399.209 131.383 399.373 131.227 399.576C131.076 399.78 131 399.998 131 400.233H129.555C129.555 399.931 129.633 399.631 129.789 399.334C129.945 399.037 130.169 398.769 130.461 398.53C130.758 398.285 131.112 398.092 131.523 397.951C131.94 397.806 132.404 397.733 132.914 397.733C133.529 397.733 134.07 397.837 134.539 398.045C135.013 398.253 135.383 398.569 135.648 398.99C135.919 399.407 136.055 399.931 136.055 400.561V404.498C136.055 404.78 136.078 405.079 136.125 405.397C136.177 405.714 136.253 405.988 136.352 406.217V406.342H134.844C134.771 406.175 134.714 405.954 134.672 405.678C134.63 405.397 134.609 405.136 134.609 404.897ZM134.859 401.217L134.875 402.233H133.414C133.003 402.233 132.635 402.267 132.312 402.334C131.99 402.397 131.719 402.493 131.5 402.623C131.281 402.753 131.115 402.918 131 403.115C130.885 403.308 130.828 403.535 130.828 403.795C130.828 404.061 130.888 404.303 131.008 404.522C131.128 404.74 131.307 404.915 131.547 405.045C131.792 405.17 132.091 405.233 132.445 405.233C132.888 405.233 133.279 405.139 133.617 404.951C133.956 404.764 134.224 404.535 134.422 404.264C134.625 403.993 134.734 403.73 134.75 403.475L135.367 404.17C135.331 404.389 135.232 404.631 135.07 404.897C134.909 405.162 134.693 405.418 134.422 405.662C134.156 405.902 133.839 406.102 133.469 406.264C133.104 406.42 132.693 406.498 132.234 406.498C131.661 406.498 131.159 406.386 130.727 406.162C130.299 405.938 129.966 405.639 129.727 405.264C129.492 404.884 129.375 404.459 129.375 403.99C129.375 403.537 129.464 403.139 129.641 402.795C129.818 402.446 130.073 402.157 130.406 401.928C130.74 401.694 131.141 401.517 131.609 401.397C132.078 401.277 132.602 401.217 133.18 401.217H134.859ZM139.773 399.694V406.342H138.328V397.889H139.695L139.773 399.694ZM139.43 401.795L138.828 401.772C138.833 401.194 138.919 400.66 139.086 400.17C139.253 399.675 139.487 399.246 139.789 398.881C140.091 398.517 140.451 398.235 140.867 398.037C141.289 397.834 141.755 397.733 142.266 397.733C142.682 397.733 143.057 397.79 143.391 397.905C143.724 398.014 144.008 398.191 144.242 398.436C144.482 398.681 144.664 398.998 144.789 399.389C144.914 399.774 144.977 400.246 144.977 400.803V406.342H143.523V400.787C143.523 400.345 143.458 399.99 143.328 399.725C143.198 399.454 143.008 399.259 142.758 399.139C142.508 399.014 142.201 398.951 141.836 398.951C141.477 398.951 141.148 399.027 140.852 399.178C140.56 399.329 140.307 399.537 140.094 399.803C139.885 400.069 139.721 400.373 139.602 400.717C139.487 401.056 139.43 401.415 139.43 401.795ZM152.5 404.701V394.342H153.953V406.342H152.625L152.5 404.701ZM146.812 402.209V402.045C146.812 401.399 146.891 400.813 147.047 400.287C147.208 399.756 147.435 399.3 147.727 398.92C148.023 398.54 148.375 398.248 148.781 398.045C149.193 397.837 149.651 397.733 150.156 397.733C150.688 397.733 151.151 397.826 151.547 398.014C151.948 398.196 152.286 398.464 152.562 398.819C152.844 399.168 153.065 399.589 153.227 400.084C153.388 400.579 153.5 401.139 153.562 401.764V402.483C153.505 403.102 153.393 403.66 153.227 404.155C153.065 404.649 152.844 405.071 152.562 405.42C152.286 405.769 151.948 406.037 151.547 406.225C151.146 406.407 150.677 406.498 150.141 406.498C149.646 406.498 149.193 406.392 148.781 406.178C148.375 405.964 148.023 405.665 147.727 405.28C147.435 404.894 147.208 404.441 147.047 403.92C146.891 403.394 146.812 402.824 146.812 402.209ZM148.266 402.045V402.209C148.266 402.631 148.307 403.027 148.391 403.397C148.479 403.767 148.615 404.092 148.797 404.373C148.979 404.655 149.211 404.876 149.492 405.037C149.773 405.194 150.109 405.272 150.5 405.272C150.979 405.272 151.372 405.17 151.68 404.967C151.992 404.764 152.242 404.496 152.43 404.162C152.617 403.829 152.763 403.467 152.867 403.076V401.194C152.805 400.907 152.714 400.631 152.594 400.365C152.479 400.095 152.328 399.855 152.141 399.647C151.958 399.433 151.732 399.264 151.461 399.139C151.195 399.014 150.88 398.951 150.516 398.951C150.12 398.951 149.779 399.035 149.492 399.201C149.211 399.363 148.979 399.587 148.797 399.873C148.615 400.155 148.479 400.483 148.391 400.858C148.307 401.227 148.266 401.623 148.266 402.045ZM161.617 399.514V409.592H160.164V397.889H161.492L161.617 399.514ZM167.312 402.045V402.209C167.312 402.824 167.24 403.394 167.094 403.92C166.948 404.441 166.734 404.894 166.453 405.28C166.177 405.665 165.836 405.964 165.43 406.178C165.023 406.392 164.557 406.498 164.031 406.498C163.495 406.498 163.021 406.41 162.609 406.233C162.198 406.056 161.849 405.798 161.562 405.459C161.276 405.121 161.047 404.714 160.875 404.24C160.708 403.767 160.594 403.233 160.531 402.639V401.764C160.594 401.139 160.711 400.579 160.883 400.084C161.055 399.589 161.281 399.168 161.562 398.819C161.849 398.464 162.195 398.196 162.602 398.014C163.008 397.826 163.477 397.733 164.008 397.733C164.539 397.733 165.01 397.837 165.422 398.045C165.833 398.248 166.18 398.54 166.461 398.92C166.742 399.3 166.953 399.756 167.094 400.287C167.24 400.813 167.312 401.399 167.312 402.045ZM165.859 402.209V402.045C165.859 401.623 165.815 401.227 165.727 400.858C165.638 400.483 165.5 400.155 165.312 399.873C165.13 399.587 164.896 399.363 164.609 399.201C164.323 399.035 163.982 398.951 163.586 398.951C163.221 398.951 162.904 399.014 162.633 399.139C162.367 399.264 162.141 399.433 161.953 399.647C161.766 399.855 161.612 400.095 161.492 400.365C161.378 400.631 161.292 400.907 161.234 401.194V403.217C161.339 403.582 161.484 403.925 161.672 404.248C161.859 404.566 162.109 404.824 162.422 405.022C162.734 405.214 163.128 405.311 163.602 405.311C163.992 405.311 164.328 405.23 164.609 405.069C164.896 404.902 165.13 404.675 165.312 404.389C165.5 404.102 165.638 403.774 165.727 403.405C165.815 403.03 165.859 402.631 165.859 402.209ZM170.602 399.217V406.342H169.156V397.889H170.562L170.602 399.217ZM173.242 397.842L173.234 399.186C173.115 399.16 173 399.144 172.891 399.139C172.786 399.128 172.667 399.123 172.531 399.123C172.198 399.123 171.904 399.175 171.648 399.28C171.393 399.384 171.177 399.53 171 399.717C170.823 399.905 170.682 400.128 170.578 400.389C170.479 400.644 170.414 400.925 170.383 401.233L169.977 401.467C169.977 400.957 170.026 400.477 170.125 400.03C170.229 399.582 170.388 399.186 170.602 398.842C170.815 398.493 171.086 398.222 171.414 398.03C171.747 397.832 172.143 397.733 172.602 397.733C172.706 397.733 172.826 397.746 172.961 397.772C173.096 397.793 173.19 397.816 173.242 397.842ZM174.039 402.209V402.03C174.039 401.42 174.128 400.855 174.305 400.334C174.482 399.808 174.737 399.352 175.07 398.967C175.404 398.576 175.807 398.274 176.281 398.061C176.755 397.842 177.286 397.733 177.875 397.733C178.469 397.733 179.003 397.842 179.477 398.061C179.956 398.274 180.362 398.576 180.695 398.967C181.034 399.352 181.292 399.808 181.469 400.334C181.646 400.855 181.734 401.42 181.734 402.03V402.209C181.734 402.819 181.646 403.384 181.469 403.905C181.292 404.425 181.034 404.881 180.695 405.272C180.362 405.657 179.958 405.959 179.484 406.178C179.016 406.392 178.484 406.498 177.891 406.498C177.297 406.498 176.763 406.392 176.289 406.178C175.815 405.959 175.409 405.657 175.07 405.272C174.737 404.881 174.482 404.425 174.305 403.905C174.128 403.384 174.039 402.819 174.039 402.209ZM175.484 402.03V402.209C175.484 402.631 175.534 403.03 175.633 403.405C175.732 403.774 175.88 404.102 176.078 404.389C176.281 404.675 176.534 404.902 176.836 405.069C177.138 405.23 177.49 405.311 177.891 405.311C178.286 405.311 178.633 405.23 178.93 405.069C179.232 404.902 179.482 404.675 179.68 404.389C179.878 404.102 180.026 403.774 180.125 403.405C180.229 403.03 180.281 402.631 180.281 402.209V402.03C180.281 401.613 180.229 401.22 180.125 400.85C180.026 400.475 179.875 400.144 179.672 399.858C179.474 399.566 179.224 399.337 178.922 399.17C178.625 399.003 178.276 398.92 177.875 398.92C177.479 398.92 177.13 399.003 176.828 399.17C176.531 399.337 176.281 399.566 176.078 399.858C175.88 400.144 175.732 400.475 175.633 400.85C175.534 401.22 175.484 401.613 175.484 402.03ZM185.703 406.342H184.258V396.998C184.258 396.389 184.367 395.876 184.586 395.459C184.81 395.037 185.13 394.72 185.547 394.506C185.964 394.287 186.458 394.178 187.031 394.178C187.198 394.178 187.365 394.188 187.531 394.209C187.703 394.23 187.87 394.261 188.031 394.303L187.953 395.483C187.844 395.457 187.719 395.438 187.578 395.428C187.443 395.418 187.307 395.412 187.172 395.412C186.865 395.412 186.599 395.475 186.375 395.6C186.156 395.72 185.99 395.897 185.875 396.131C185.76 396.365 185.703 396.655 185.703 396.998V406.342ZM187.5 397.889V398.998H182.922V397.889H187.5ZM192.43 406.498C191.841 406.498 191.307 406.399 190.828 406.201C190.354 405.998 189.945 405.714 189.602 405.35C189.263 404.985 189.003 404.553 188.82 404.053C188.638 403.553 188.547 403.006 188.547 402.412V402.084C188.547 401.397 188.648 400.785 188.852 400.248C189.055 399.707 189.331 399.248 189.68 398.873C190.029 398.498 190.424 398.214 190.867 398.022C191.31 397.829 191.768 397.733 192.242 397.733C192.846 397.733 193.367 397.837 193.805 398.045C194.247 398.253 194.609 398.545 194.891 398.92C195.172 399.29 195.38 399.727 195.516 400.233C195.651 400.733 195.719 401.28 195.719 401.873V402.522H189.406V401.342H194.273V401.233C194.253 400.858 194.174 400.493 194.039 400.139C193.909 399.785 193.701 399.493 193.414 399.264C193.128 399.035 192.737 398.92 192.242 398.92C191.914 398.92 191.612 398.99 191.336 399.131C191.06 399.267 190.823 399.47 190.625 399.74C190.427 400.011 190.273 400.342 190.164 400.733C190.055 401.123 190 401.574 190 402.084V402.412C190 402.813 190.055 403.191 190.164 403.545C190.279 403.894 190.443 404.201 190.656 404.467C190.875 404.733 191.138 404.941 191.445 405.092C191.758 405.243 192.112 405.319 192.508 405.319C193.018 405.319 193.451 405.214 193.805 405.006C194.159 404.798 194.469 404.519 194.734 404.17L195.609 404.865C195.427 405.142 195.195 405.405 194.914 405.655C194.633 405.905 194.286 406.108 193.875 406.264C193.469 406.42 192.987 406.498 192.43 406.498ZM202.328 404.1C202.328 403.892 202.281 403.699 202.188 403.522C202.099 403.339 201.914 403.175 201.633 403.03C201.357 402.878 200.94 402.748 200.383 402.639C199.914 402.54 199.49 402.423 199.109 402.287C198.734 402.152 198.414 401.988 198.148 401.795C197.888 401.602 197.688 401.376 197.547 401.115C197.406 400.855 197.336 400.55 197.336 400.201C197.336 399.868 197.409 399.553 197.555 399.256C197.706 398.959 197.917 398.696 198.188 398.467C198.464 398.238 198.794 398.058 199.18 397.928C199.565 397.798 199.995 397.733 200.469 397.733C201.146 397.733 201.724 397.852 202.203 398.092C202.682 398.332 203.049 398.652 203.305 399.053C203.56 399.449 203.688 399.889 203.688 400.373H202.242C202.242 400.139 202.172 399.912 202.031 399.694C201.896 399.47 201.695 399.285 201.43 399.139C201.169 398.993 200.849 398.92 200.469 398.92C200.068 398.92 199.742 398.983 199.492 399.108C199.247 399.227 199.068 399.381 198.953 399.569C198.844 399.756 198.789 399.954 198.789 400.162C198.789 400.319 198.815 400.459 198.867 400.584C198.924 400.704 199.023 400.816 199.164 400.92C199.305 401.019 199.503 401.113 199.758 401.201C200.013 401.29 200.339 401.378 200.734 401.467C201.427 401.623 201.997 401.811 202.445 402.03C202.893 402.248 203.227 402.517 203.445 402.834C203.664 403.152 203.773 403.537 203.773 403.99C203.773 404.36 203.695 404.699 203.539 405.006C203.388 405.313 203.167 405.579 202.875 405.803C202.589 406.022 202.245 406.194 201.844 406.319C201.448 406.438 201.003 406.498 200.508 406.498C199.763 406.498 199.133 406.365 198.617 406.1C198.102 405.834 197.711 405.49 197.445 405.069C197.18 404.647 197.047 404.201 197.047 403.733H198.5C198.521 404.128 198.635 404.444 198.844 404.678C199.052 404.907 199.307 405.071 199.609 405.17C199.911 405.264 200.211 405.311 200.508 405.311C200.904 405.311 201.234 405.259 201.5 405.155C201.771 405.05 201.977 404.907 202.117 404.725C202.258 404.543 202.328 404.334 202.328 404.1ZM210.594 404.1C210.594 403.892 210.547 403.699 210.453 403.522C210.365 403.339 210.18 403.175 209.898 403.03C209.622 402.878 209.206 402.748 208.648 402.639C208.18 402.54 207.755 402.423 207.375 402.287C207 402.152 206.68 401.988 206.414 401.795C206.154 401.602 205.953 401.376 205.812 401.115C205.672 400.855 205.602 400.55 205.602 400.201C205.602 399.868 205.674 399.553 205.82 399.256C205.971 398.959 206.182 398.696 206.453 398.467C206.729 398.238 207.06 398.058 207.445 397.928C207.831 397.798 208.26 397.733 208.734 397.733C209.411 397.733 209.99 397.852 210.469 398.092C210.948 398.332 211.315 398.652 211.57 399.053C211.826 399.449 211.953 399.889 211.953 400.373H210.508C210.508 400.139 210.438 399.912 210.297 399.694C210.161 399.47 209.961 399.285 209.695 399.139C209.435 398.993 209.115 398.92 208.734 398.92C208.333 398.92 208.008 398.983 207.758 399.108C207.513 399.227 207.333 399.381 207.219 399.569C207.109 399.756 207.055 399.954 207.055 400.162C207.055 400.319 207.081 400.459 207.133 400.584C207.19 400.704 207.289 400.816 207.43 400.92C207.57 401.019 207.768 401.113 208.023 401.201C208.279 401.29 208.604 401.378 209 401.467C209.693 401.623 210.263 401.811 210.711 402.03C211.159 402.248 211.492 402.517 211.711 402.834C211.93 403.152 212.039 403.537 212.039 403.99C212.039 404.36 211.961 404.699 211.805 405.006C211.654 405.313 211.432 405.579 211.141 405.803C210.854 406.022 210.51 406.194 210.109 406.319C209.714 406.438 209.268 406.498 208.773 406.498C208.029 406.498 207.398 406.365 206.883 406.1C206.367 405.834 205.977 405.49 205.711 405.069C205.445 404.647 205.312 404.201 205.312 403.733H206.766C206.786 404.128 206.901 404.444 207.109 404.678C207.318 404.907 207.573 405.071 207.875 405.17C208.177 405.264 208.477 405.311 208.773 405.311C209.169 405.311 209.5 405.259 209.766 405.155C210.036 405.05 210.242 404.907 210.383 404.725C210.523 404.543 210.594 404.334 210.594 404.1ZM215.508 397.889V406.342H214.055V397.889H215.508ZM213.945 395.647C213.945 395.412 214.016 395.214 214.156 395.053C214.302 394.892 214.516 394.811 214.797 394.811C215.073 394.811 215.284 394.892 215.43 395.053C215.581 395.214 215.656 395.412 215.656 395.647C215.656 395.871 215.581 396.063 215.43 396.225C215.284 396.381 215.073 396.459 214.797 396.459C214.516 396.459 214.302 396.381 214.156 396.225C214.016 396.063 213.945 395.871 213.945 395.647ZM217.445 402.209V402.03C217.445 401.42 217.534 400.855 217.711 400.334C217.888 399.808 218.143 399.352 218.477 398.967C218.81 398.576 219.214 398.274 219.688 398.061C220.161 397.842 220.693 397.733 221.281 397.733C221.875 397.733 222.409 397.842 222.883 398.061C223.362 398.274 223.768 398.576 224.102 398.967C224.44 399.352 224.698 399.808 224.875 400.334C225.052 400.855 225.141 401.42 225.141 402.03V402.209C225.141 402.819 225.052 403.384 224.875 403.905C224.698 404.425 224.44 404.881 224.102 405.272C223.768 405.657 223.365 405.959 222.891 406.178C222.422 406.392 221.891 406.498 221.297 406.498C220.703 406.498 220.169 406.392 219.695 406.178C219.221 405.959 218.815 405.657 218.477 405.272C218.143 404.881 217.888 404.425 217.711 403.905C217.534 403.384 217.445 402.819 217.445 402.209ZM218.891 402.03V402.209C218.891 402.631 218.94 403.03 219.039 403.405C219.138 403.774 219.286 404.102 219.484 404.389C219.688 404.675 219.94 404.902 220.242 405.069C220.544 405.23 220.896 405.311 221.297 405.311C221.693 405.311 222.039 405.23 222.336 405.069C222.638 404.902 222.888 404.675 223.086 404.389C223.284 404.102 223.432 403.774 223.531 403.405C223.635 403.03 223.688 402.631 223.688 402.209V402.03C223.688 401.613 223.635 401.22 223.531 400.85C223.432 400.475 223.281 400.144 223.078 399.858C222.88 399.566 222.63 399.337 222.328 399.17C222.031 399.003 221.682 398.92 221.281 398.92C220.885 398.92 220.536 399.003 220.234 399.17C219.938 399.337 219.688 399.566 219.484 399.858C219.286 400.144 219.138 400.475 219.039 400.85C218.94 401.22 218.891 401.613 218.891 402.03ZM228.398 399.694V406.342H226.953V397.889H228.32L228.398 399.694ZM228.055 401.795L227.453 401.772C227.458 401.194 227.544 400.66 227.711 400.17C227.878 399.675 228.112 399.246 228.414 398.881C228.716 398.517 229.076 398.235 229.492 398.037C229.914 397.834 230.38 397.733 230.891 397.733C231.307 397.733 231.682 397.79 232.016 397.905C232.349 398.014 232.633 398.191 232.867 398.436C233.107 398.681 233.289 398.998 233.414 399.389C233.539 399.774 233.602 400.246 233.602 400.803V406.342H232.148V400.787C232.148 400.345 232.083 399.99 231.953 399.725C231.823 399.454 231.633 399.259 231.383 399.139C231.133 399.014 230.826 398.951 230.461 398.951C230.102 398.951 229.773 399.027 229.477 399.178C229.185 399.329 228.932 399.537 228.719 399.803C228.51 400.069 228.346 400.373 228.227 400.717C228.112 401.056 228.055 401.415 228.055 401.795ZM240.781 404.897V400.545C240.781 400.212 240.714 399.923 240.578 399.678C240.448 399.428 240.25 399.235 239.984 399.1C239.719 398.964 239.391 398.897 239 398.897C238.635 398.897 238.315 398.959 238.039 399.084C237.768 399.209 237.555 399.373 237.398 399.576C237.247 399.78 237.172 399.998 237.172 400.233H235.727C235.727 399.931 235.805 399.631 235.961 399.334C236.117 399.037 236.341 398.769 236.633 398.53C236.93 398.285 237.284 398.092 237.695 397.951C238.112 397.806 238.576 397.733 239.086 397.733C239.701 397.733 240.242 397.837 240.711 398.045C241.185 398.253 241.555 398.569 241.82 398.99C242.091 399.407 242.227 399.931 242.227 400.561V404.498C242.227 404.78 242.25 405.079 242.297 405.397C242.349 405.714 242.424 405.988 242.523 406.217V406.342H241.016C240.943 406.175 240.885 405.954 240.844 405.678C240.802 405.397 240.781 405.136 240.781 404.897ZM241.031 401.217L241.047 402.233H239.586C239.174 402.233 238.807 402.267 238.484 402.334C238.161 402.397 237.891 402.493 237.672 402.623C237.453 402.753 237.286 402.918 237.172 403.115C237.057 403.308 237 403.535 237 403.795C237 404.061 237.06 404.303 237.18 404.522C237.299 404.74 237.479 404.915 237.719 405.045C237.964 405.17 238.263 405.233 238.617 405.233C239.06 405.233 239.451 405.139 239.789 404.951C240.128 404.764 240.396 404.535 240.594 404.264C240.797 403.993 240.906 403.73 240.922 403.475L241.539 404.17C241.503 404.389 241.404 404.631 241.242 404.897C241.081 405.162 240.865 405.418 240.594 405.662C240.328 405.902 240.01 406.102 239.641 406.264C239.276 406.42 238.865 406.498 238.406 406.498C237.833 406.498 237.331 406.386 236.898 406.162C236.471 405.938 236.138 405.639 235.898 405.264C235.664 404.884 235.547 404.459 235.547 403.99C235.547 403.537 235.635 403.139 235.812 402.795C235.99 402.446 236.245 402.157 236.578 401.928C236.911 401.694 237.312 401.517 237.781 401.397C238.25 401.277 238.773 401.217 239.352 401.217H241.031ZM246.07 394.342V406.342H244.617V394.342H246.07ZM257.281 404.1C257.281 403.892 257.234 403.699 257.141 403.522C257.052 403.339 256.867 403.175 256.586 403.03C256.31 402.878 255.893 402.748 255.336 402.639C254.867 402.54 254.443 402.423 254.062 402.287C253.688 402.152 253.367 401.988 253.102 401.795C252.841 401.602 252.641 401.376 252.5 401.115C252.359 400.855 252.289 400.55 252.289 400.201C252.289 399.868 252.362 399.553 252.508 399.256C252.659 398.959 252.87 398.696 253.141 398.467C253.417 398.238 253.747 398.058 254.133 397.928C254.518 397.798 254.948 397.733 255.422 397.733C256.099 397.733 256.677 397.852 257.156 398.092C257.635 398.332 258.003 398.652 258.258 399.053C258.513 399.449 258.641 399.889 258.641 400.373H257.195C257.195 400.139 257.125 399.912 256.984 399.694C256.849 399.47 256.648 399.285 256.383 399.139C256.122 398.993 255.802 398.92 255.422 398.92C255.021 398.92 254.695 398.983 254.445 399.108C254.201 399.227 254.021 399.381 253.906 399.569C253.797 399.756 253.742 399.954 253.742 400.162C253.742 400.319 253.768 400.459 253.82 400.584C253.878 400.704 253.977 400.816 254.117 400.92C254.258 401.019 254.456 401.113 254.711 401.201C254.966 401.29 255.292 401.378 255.688 401.467C256.38 401.623 256.951 401.811 257.398 402.03C257.846 402.248 258.18 402.517 258.398 402.834C258.617 403.152 258.727 403.537 258.727 403.99C258.727 404.36 258.648 404.699 258.492 405.006C258.341 405.313 258.12 405.579 257.828 405.803C257.542 406.022 257.198 406.194 256.797 406.319C256.401 406.438 255.956 406.498 255.461 406.498C254.716 406.498 254.086 406.365 253.57 406.1C253.055 405.834 252.664 405.49 252.398 405.069C252.133 404.647 252 404.201 252 403.733H253.453C253.474 404.128 253.589 404.444 253.797 404.678C254.005 404.907 254.26 405.071 254.562 405.17C254.865 405.264 255.164 405.311 255.461 405.311C255.857 405.311 256.188 405.259 256.453 405.155C256.724 405.05 256.93 404.907 257.07 404.725C257.211 404.543 257.281 404.334 257.281 404.1ZM265.797 404.389V397.889H267.25V406.342H265.867L265.797 404.389ZM266.07 402.608L266.672 402.592C266.672 403.155 266.612 403.675 266.492 404.155C266.378 404.628 266.19 405.04 265.93 405.389C265.669 405.738 265.328 406.011 264.906 406.209C264.484 406.402 263.971 406.498 263.367 406.498C262.956 406.498 262.578 406.438 262.234 406.319C261.896 406.199 261.604 406.014 261.359 405.764C261.115 405.514 260.924 405.188 260.789 404.787C260.659 404.386 260.594 403.905 260.594 403.342V397.889H262.039V403.358C262.039 403.738 262.081 404.053 262.164 404.303C262.253 404.548 262.37 404.743 262.516 404.889C262.667 405.03 262.833 405.128 263.016 405.186C263.203 405.243 263.396 405.272 263.594 405.272C264.208 405.272 264.695 405.155 265.055 404.92C265.414 404.681 265.672 404.36 265.828 403.959C265.99 403.553 266.07 403.102 266.07 402.608ZM270.898 399.514V409.592H269.445V397.889H270.773L270.898 399.514ZM276.594 402.045V402.209C276.594 402.824 276.521 403.394 276.375 403.92C276.229 404.441 276.016 404.894 275.734 405.28C275.458 405.665 275.117 405.964 274.711 406.178C274.305 406.392 273.839 406.498 273.312 406.498C272.776 406.498 272.302 406.41 271.891 406.233C271.479 406.056 271.13 405.798 270.844 405.459C270.557 405.121 270.328 404.714 270.156 404.24C269.99 403.767 269.875 403.233 269.812 402.639V401.764C269.875 401.139 269.992 400.579 270.164 400.084C270.336 399.589 270.562 399.168 270.844 398.819C271.13 398.464 271.477 398.196 271.883 398.014C272.289 397.826 272.758 397.733 273.289 397.733C273.82 397.733 274.292 397.837 274.703 398.045C275.115 398.248 275.461 398.54 275.742 398.92C276.023 399.3 276.234 399.756 276.375 400.287C276.521 400.813 276.594 401.399 276.594 402.045ZM275.141 402.209V402.045C275.141 401.623 275.096 401.227 275.008 400.858C274.919 400.483 274.781 400.155 274.594 399.873C274.411 399.587 274.177 399.363 273.891 399.201C273.604 399.035 273.263 398.951 272.867 398.951C272.503 398.951 272.185 399.014 271.914 399.139C271.648 399.264 271.422 399.433 271.234 399.647C271.047 399.855 270.893 400.095 270.773 400.365C270.659 400.631 270.573 400.907 270.516 401.194V403.217C270.62 403.582 270.766 403.925 270.953 404.248C271.141 404.566 271.391 404.824 271.703 405.022C272.016 405.214 272.409 405.311 272.883 405.311C273.273 405.311 273.609 405.23 273.891 405.069C274.177 404.902 274.411 404.675 274.594 404.389C274.781 404.102 274.919 403.774 275.008 403.405C275.096 403.03 275.141 402.631 275.141 402.209ZM279.883 399.514V409.592H278.43V397.889H279.758L279.883 399.514ZM285.578 402.045V402.209C285.578 402.824 285.505 403.394 285.359 403.92C285.214 404.441 285 404.894 284.719 405.28C284.443 405.665 284.102 405.964 283.695 406.178C283.289 406.392 282.823 406.498 282.297 406.498C281.76 406.498 281.286 406.41 280.875 406.233C280.464 406.056 280.115 405.798 279.828 405.459C279.542 405.121 279.312 404.714 279.141 404.24C278.974 403.767 278.859 403.233 278.797 402.639V401.764C278.859 401.139 278.977 400.579 279.148 400.084C279.32 399.589 279.547 399.168 279.828 398.819C280.115 398.464 280.461 398.196 280.867 398.014C281.273 397.826 281.742 397.733 282.273 397.733C282.805 397.733 283.276 397.837 283.688 398.045C284.099 398.248 284.445 398.54 284.727 398.92C285.008 399.3 285.219 399.756 285.359 400.287C285.505 400.813 285.578 401.399 285.578 402.045ZM284.125 402.209V402.045C284.125 401.623 284.081 401.227 283.992 400.858C283.904 400.483 283.766 400.155 283.578 399.873C283.396 399.587 283.161 399.363 282.875 399.201C282.589 399.035 282.247 398.951 281.852 398.951C281.487 398.951 281.169 399.014 280.898 399.139C280.633 399.264 280.406 399.433 280.219 399.647C280.031 399.855 279.878 400.095 279.758 400.365C279.643 400.631 279.557 400.907 279.5 401.194V403.217C279.604 403.582 279.75 403.925 279.938 404.248C280.125 404.566 280.375 404.824 280.688 405.022C281 405.214 281.393 405.311 281.867 405.311C282.258 405.311 282.594 405.23 282.875 405.069C283.161 404.902 283.396 404.675 283.578 404.389C283.766 404.102 283.904 403.774 283.992 403.405C284.081 403.03 284.125 402.631 284.125 402.209ZM287.039 402.209V402.03C287.039 401.42 287.128 400.855 287.305 400.334C287.482 399.808 287.737 399.352 288.07 398.967C288.404 398.576 288.807 398.274 289.281 398.061C289.755 397.842 290.286 397.733 290.875 397.733C291.469 397.733 292.003 397.842 292.477 398.061C292.956 398.274 293.362 398.576 293.695 398.967C294.034 399.352 294.292 399.808 294.469 400.334C294.646 400.855 294.734 401.42 294.734 402.03V402.209C294.734 402.819 294.646 403.384 294.469 403.905C294.292 404.425 294.034 404.881 293.695 405.272C293.362 405.657 292.958 405.959 292.484 406.178C292.016 406.392 291.484 406.498 290.891 406.498C290.297 406.498 289.763 406.392 289.289 406.178C288.815 405.959 288.409 405.657 288.07 405.272C287.737 404.881 287.482 404.425 287.305 403.905C287.128 403.384 287.039 402.819 287.039 402.209ZM288.484 402.03V402.209C288.484 402.631 288.534 403.03 288.633 403.405C288.732 403.774 288.88 404.102 289.078 404.389C289.281 404.675 289.534 404.902 289.836 405.069C290.138 405.23 290.49 405.311 290.891 405.311C291.286 405.311 291.633 405.23 291.93 405.069C292.232 404.902 292.482 404.675 292.68 404.389C292.878 404.102 293.026 403.774 293.125 403.405C293.229 403.03 293.281 402.631 293.281 402.209V402.03C293.281 401.613 293.229 401.22 293.125 400.85C293.026 400.475 292.875 400.144 292.672 399.858C292.474 399.566 292.224 399.337 291.922 399.17C291.625 399.003 291.276 398.92 290.875 398.92C290.479 398.92 290.13 399.003 289.828 399.17C289.531 399.337 289.281 399.566 289.078 399.858C288.88 400.144 288.732 400.475 288.633 400.85C288.534 401.22 288.484 401.613 288.484 402.03ZM297.992 399.217V406.342H296.547V397.889H297.953L297.992 399.217ZM300.633 397.842L300.625 399.186C300.505 399.16 300.391 399.144 300.281 399.139C300.177 399.128 300.057 399.123 299.922 399.123C299.589 399.123 299.294 399.175 299.039 399.28C298.784 399.384 298.568 399.53 298.391 399.717C298.214 399.905 298.073 400.128 297.969 400.389C297.87 400.644 297.805 400.925 297.773 401.233L297.367 401.467C297.367 400.957 297.417 400.477 297.516 400.03C297.62 399.582 297.779 399.186 297.992 398.842C298.206 398.493 298.477 398.222 298.805 398.03C299.138 397.832 299.534 397.733 299.992 397.733C300.096 397.733 300.216 397.746 300.352 397.772C300.487 397.793 300.581 397.816 300.633 397.842ZM305.898 397.889V398.998H301.328V397.889H305.898ZM302.875 395.834H304.32V404.248C304.32 404.535 304.365 404.751 304.453 404.897C304.542 405.043 304.656 405.139 304.797 405.186C304.938 405.233 305.089 405.256 305.25 405.256C305.37 405.256 305.495 405.246 305.625 405.225C305.76 405.199 305.862 405.178 305.93 405.162L305.938 406.342C305.823 406.378 305.672 406.412 305.484 406.444C305.302 406.48 305.081 406.498 304.82 406.498C304.466 406.498 304.141 406.428 303.844 406.287C303.547 406.147 303.31 405.912 303.133 405.584C302.961 405.251 302.875 404.803 302.875 404.24V395.834ZM315.102 397.889V398.998H310.531V397.889H315.102ZM312.078 395.834H313.523V404.248C313.523 404.535 313.568 404.751 313.656 404.897C313.745 405.043 313.859 405.139 314 405.186C314.141 405.233 314.292 405.256 314.453 405.256C314.573 405.256 314.698 405.246 314.828 405.225C314.964 405.199 315.065 405.178 315.133 405.162L315.141 406.342C315.026 406.378 314.875 406.412 314.688 406.444C314.505 406.48 314.284 406.498 314.023 406.498C313.669 406.498 313.344 406.428 313.047 406.287C312.75 406.147 312.513 405.912 312.336 405.584C312.164 405.251 312.078 404.803 312.078 404.24V395.834ZM316.258 402.209V402.03C316.258 401.42 316.346 400.855 316.523 400.334C316.701 399.808 316.956 399.352 317.289 398.967C317.622 398.576 318.026 398.274 318.5 398.061C318.974 397.842 319.505 397.733 320.094 397.733C320.688 397.733 321.221 397.842 321.695 398.061C322.174 398.274 322.581 398.576 322.914 398.967C323.253 399.352 323.51 399.808 323.688 400.334C323.865 400.855 323.953 401.42 323.953 402.03V402.209C323.953 402.819 323.865 403.384 323.688 403.905C323.51 404.425 323.253 404.881 322.914 405.272C322.581 405.657 322.177 405.959 321.703 406.178C321.234 406.392 320.703 406.498 320.109 406.498C319.516 406.498 318.982 406.392 318.508 406.178C318.034 405.959 317.628 405.657 317.289 405.272C316.956 404.881 316.701 404.425 316.523 403.905C316.346 403.384 316.258 402.819 316.258 402.209ZM317.703 402.03V402.209C317.703 402.631 317.753 403.03 317.852 403.405C317.951 403.774 318.099 404.102 318.297 404.389C318.5 404.675 318.753 404.902 319.055 405.069C319.357 405.23 319.708 405.311 320.109 405.311C320.505 405.311 320.852 405.23 321.148 405.069C321.451 404.902 321.701 404.675 321.898 404.389C322.096 404.102 322.245 403.774 322.344 403.405C322.448 403.03 322.5 402.631 322.5 402.209V402.03C322.5 401.613 322.448 401.22 322.344 400.85C322.245 400.475 322.094 400.144 321.891 399.858C321.693 399.566 321.443 399.337 321.141 399.17C320.844 399.003 320.495 398.92 320.094 398.92C319.698 398.92 319.349 399.003 319.047 399.17C318.75 399.337 318.5 399.566 318.297 399.858C318.099 400.144 317.951 400.475 317.852 400.85C317.753 401.22 317.703 401.613 317.703 402.03ZM333.242 406.498C332.654 406.498 332.12 406.399 331.641 406.201C331.167 405.998 330.758 405.714 330.414 405.35C330.076 404.985 329.815 404.553 329.633 404.053C329.451 403.553 329.359 403.006 329.359 402.412V402.084C329.359 401.397 329.461 400.785 329.664 400.248C329.867 399.707 330.143 399.248 330.492 398.873C330.841 398.498 331.237 398.214 331.68 398.022C332.122 397.829 332.581 397.733 333.055 397.733C333.659 397.733 334.18 397.837 334.617 398.045C335.06 398.253 335.422 398.545 335.703 398.92C335.984 399.29 336.193 399.727 336.328 400.233C336.464 400.733 336.531 401.28 336.531 401.873V402.522H330.219V401.342H335.086V401.233C335.065 400.858 334.987 400.493 334.852 400.139C334.721 399.785 334.513 399.493 334.227 399.264C333.94 399.035 333.549 398.92 333.055 398.92C332.727 398.92 332.424 398.99 332.148 399.131C331.872 399.267 331.635 399.47 331.438 399.74C331.24 400.011 331.086 400.342 330.977 400.733C330.867 401.123 330.812 401.574 330.812 402.084V402.412C330.812 402.813 330.867 403.191 330.977 403.545C331.091 403.894 331.255 404.201 331.469 404.467C331.688 404.733 331.951 404.941 332.258 405.092C332.57 405.243 332.924 405.319 333.32 405.319C333.831 405.319 334.263 405.214 334.617 405.006C334.971 404.798 335.281 404.519 335.547 404.17L336.422 404.865C336.24 405.142 336.008 405.405 335.727 405.655C335.445 405.905 335.099 406.108 334.688 406.264C334.281 406.42 333.799 406.498 333.242 406.498ZM339.789 394.342V406.342H338.336V394.342H339.789ZM345.617 406.498C345.029 406.498 344.495 406.399 344.016 406.201C343.542 405.998 343.133 405.714 342.789 405.35C342.451 404.985 342.19 404.553 342.008 404.053C341.826 403.553 341.734 403.006 341.734 402.412V402.084C341.734 401.397 341.836 400.785 342.039 400.248C342.242 399.707 342.518 399.248 342.867 398.873C343.216 398.498 343.612 398.214 344.055 398.022C344.497 397.829 344.956 397.733 345.43 397.733C346.034 397.733 346.555 397.837 346.992 398.045C347.435 398.253 347.797 398.545 348.078 398.92C348.359 399.29 348.568 399.727 348.703 400.233C348.839 400.733 348.906 401.28 348.906 401.873V402.522H342.594V401.342H347.461V401.233C347.44 400.858 347.362 400.493 347.227 400.139C347.096 399.785 346.888 399.493 346.602 399.264C346.315 399.035 345.924 398.92 345.43 398.92C345.102 398.92 344.799 398.99 344.523 399.131C344.247 399.267 344.01 399.47 343.812 399.74C343.615 400.011 343.461 400.342 343.352 400.733C343.242 401.123 343.188 401.574 343.188 402.084V402.412C343.188 402.813 343.242 403.191 343.352 403.545C343.466 403.894 343.63 404.201 343.844 404.467C344.062 404.733 344.326 404.941 344.633 405.092C344.945 405.243 345.299 405.319 345.695 405.319C346.206 405.319 346.638 405.214 346.992 405.006C347.346 404.798 347.656 404.519 347.922 404.17L348.797 404.865C348.615 405.142 348.383 405.405 348.102 405.655C347.82 405.905 347.474 406.108 347.062 406.264C346.656 406.42 346.174 406.498 345.617 406.498ZM353.055 405.037L355.367 397.889H356.844L353.805 406.342H352.836L353.055 405.037ZM351.125 397.889L353.508 405.076L353.672 406.342H352.703L349.641 397.889H351.125ZM363.094 404.897V400.545C363.094 400.212 363.026 399.923 362.891 399.678C362.76 399.428 362.562 399.235 362.297 399.1C362.031 398.964 361.703 398.897 361.312 398.897C360.948 398.897 360.628 398.959 360.352 399.084C360.081 399.209 359.867 399.373 359.711 399.576C359.56 399.78 359.484 399.998 359.484 400.233H358.039C358.039 399.931 358.117 399.631 358.273 399.334C358.43 399.037 358.654 398.769 358.945 398.53C359.242 398.285 359.596 398.092 360.008 397.951C360.424 397.806 360.888 397.733 361.398 397.733C362.013 397.733 362.555 397.837 363.023 398.045C363.497 398.253 363.867 398.569 364.133 398.99C364.404 399.407 364.539 399.931 364.539 400.561V404.498C364.539 404.78 364.562 405.079 364.609 405.397C364.661 405.714 364.737 405.988 364.836 406.217V406.342H363.328C363.255 406.175 363.198 405.954 363.156 405.678C363.115 405.397 363.094 405.136 363.094 404.897ZM363.344 401.217L363.359 402.233H361.898C361.487 402.233 361.12 402.267 360.797 402.334C360.474 402.397 360.203 402.493 359.984 402.623C359.766 402.753 359.599 402.918 359.484 403.115C359.37 403.308 359.312 403.535 359.312 403.795C359.312 404.061 359.372 404.303 359.492 404.522C359.612 404.74 359.792 404.915 360.031 405.045C360.276 405.17 360.576 405.233 360.93 405.233C361.372 405.233 361.763 405.139 362.102 404.951C362.44 404.764 362.708 404.535 362.906 404.264C363.109 403.993 363.219 403.73 363.234 403.475L363.852 404.17C363.815 404.389 363.716 404.631 363.555 404.897C363.393 405.162 363.177 405.418 362.906 405.662C362.641 405.902 362.323 406.102 361.953 406.264C361.589 406.42 361.177 406.498 360.719 406.498C360.146 406.498 359.643 406.386 359.211 406.162C358.784 405.938 358.451 405.639 358.211 405.264C357.977 404.884 357.859 404.459 357.859 403.99C357.859 403.537 357.948 403.139 358.125 402.795C358.302 402.446 358.557 402.157 358.891 401.928C359.224 401.694 359.625 401.517 360.094 401.397C360.562 401.277 361.086 401.217 361.664 401.217H363.344ZM370.352 397.889V398.998H365.781V397.889H370.352ZM367.328 395.834H368.773V404.248C368.773 404.535 368.818 404.751 368.906 404.897C368.995 405.043 369.109 405.139 369.25 405.186C369.391 405.233 369.542 405.256 369.703 405.256C369.823 405.256 369.948 405.246 370.078 405.225C370.214 405.199 370.315 405.178 370.383 405.162L370.391 406.342C370.276 406.378 370.125 406.412 369.938 406.444C369.755 406.48 369.534 406.498 369.273 406.498C368.919 406.498 368.594 406.428 368.297 406.287C368 406.147 367.763 405.912 367.586 405.584C367.414 405.251 367.328 404.803 367.328 404.24V395.834ZM375.555 406.498C374.966 406.498 374.432 406.399 373.953 406.201C373.479 405.998 373.07 405.714 372.727 405.35C372.388 404.985 372.128 404.553 371.945 404.053C371.763 403.553 371.672 403.006 371.672 402.412V402.084C371.672 401.397 371.773 400.785 371.977 400.248C372.18 399.707 372.456 399.248 372.805 398.873C373.154 398.498 373.549 398.214 373.992 398.022C374.435 397.829 374.893 397.733 375.367 397.733C375.971 397.733 376.492 397.837 376.93 398.045C377.372 398.253 377.734 398.545 378.016 398.92C378.297 399.29 378.505 399.727 378.641 400.233C378.776 400.733 378.844 401.28 378.844 401.873V402.522H372.531V401.342H377.398V401.233C377.378 400.858 377.299 400.493 377.164 400.139C377.034 399.785 376.826 399.493 376.539 399.264C376.253 399.035 375.862 398.92 375.367 398.92C375.039 398.92 374.737 398.99 374.461 399.131C374.185 399.267 373.948 399.47 373.75 399.74C373.552 400.011 373.398 400.342 373.289 400.733C373.18 401.123 373.125 401.574 373.125 402.084V402.412C373.125 402.813 373.18 403.191 373.289 403.545C373.404 403.894 373.568 404.201 373.781 404.467C374 404.733 374.263 404.941 374.57 405.092C374.883 405.243 375.237 405.319 375.633 405.319C376.143 405.319 376.576 405.214 376.93 405.006C377.284 404.798 377.594 404.519 377.859 404.17L378.734 404.865C378.552 405.142 378.32 405.405 378.039 405.655C377.758 405.905 377.411 406.108 377 406.264C376.594 406.42 376.112 406.498 375.555 406.498ZM386.875 405.467L389.227 397.889H390.773L387.383 407.647C387.305 407.855 387.201 408.079 387.07 408.319C386.945 408.563 386.784 408.795 386.586 409.014C386.388 409.233 386.148 409.41 385.867 409.545C385.591 409.686 385.26 409.756 384.875 409.756C384.76 409.756 384.615 409.74 384.438 409.709C384.26 409.678 384.135 409.652 384.062 409.631L384.055 408.459C384.096 408.464 384.161 408.47 384.25 408.475C384.344 408.485 384.409 408.49 384.445 408.49C384.773 408.49 385.052 408.446 385.281 408.358C385.51 408.274 385.703 408.131 385.859 407.928C386.021 407.73 386.159 407.457 386.273 407.108L386.875 405.467ZM385.148 397.889L387.344 404.451L387.719 405.975L386.68 406.506L383.57 397.889H385.148ZM391.57 402.209V402.03C391.57 401.42 391.659 400.855 391.836 400.334C392.013 399.808 392.268 399.352 392.602 398.967C392.935 398.576 393.339 398.274 393.812 398.061C394.286 397.842 394.818 397.733 395.406 397.733C396 397.733 396.534 397.842 397.008 398.061C397.487 398.274 397.893 398.576 398.227 398.967C398.565 399.352 398.823 399.808 399 400.334C399.177 400.855 399.266 401.42 399.266 402.03V402.209C399.266 402.819 399.177 403.384 399 403.905C398.823 404.425 398.565 404.881 398.227 405.272C397.893 405.657 397.49 405.959 397.016 406.178C396.547 406.392 396.016 406.498 395.422 406.498C394.828 406.498 394.294 406.392 393.82 406.178C393.346 405.959 392.94 405.657 392.602 405.272C392.268 404.881 392.013 404.425 391.836 403.905C391.659 403.384 391.57 402.819 391.57 402.209ZM393.016 402.03V402.209C393.016 402.631 393.065 403.03 393.164 403.405C393.263 403.774 393.411 404.102 393.609 404.389C393.812 404.675 394.065 404.902 394.367 405.069C394.669 405.23 395.021 405.311 395.422 405.311C395.818 405.311 396.164 405.23 396.461 405.069C396.763 404.902 397.013 404.675 397.211 404.389C397.409 404.102 397.557 403.774 397.656 403.405C397.76 403.03 397.812 402.631 397.812 402.209V402.03C397.812 401.613 397.76 401.22 397.656 400.85C397.557 400.475 397.406 400.144 397.203 399.858C397.005 399.566 396.755 399.337 396.453 399.17C396.156 399.003 395.807 398.92 395.406 398.92C395.01 398.92 394.661 399.003 394.359 399.17C394.062 399.337 393.812 399.566 393.609 399.858C393.411 400.144 393.263 400.475 393.164 400.85C393.065 401.22 393.016 401.613 393.016 402.03ZM406.25 404.389V397.889H407.703V406.342H406.32L406.25 404.389ZM406.523 402.608L407.125 402.592C407.125 403.155 407.065 403.675 406.945 404.155C406.831 404.628 406.643 405.04 406.383 405.389C406.122 405.738 405.781 406.011 405.359 406.209C404.938 406.402 404.424 406.498 403.82 406.498C403.409 406.498 403.031 406.438 402.688 406.319C402.349 406.199 402.057 406.014 401.812 405.764C401.568 405.514 401.378 405.188 401.242 404.787C401.112 404.386 401.047 403.905 401.047 403.342V397.889H402.492V403.358C402.492 403.738 402.534 404.053 402.617 404.303C402.706 404.548 402.823 404.743 402.969 404.889C403.12 405.03 403.286 405.128 403.469 405.186C403.656 405.243 403.849 405.272 404.047 405.272C404.661 405.272 405.148 405.155 405.508 404.92C405.867 404.681 406.125 404.36 406.281 403.959C406.443 403.553 406.523 403.102 406.523 402.608ZM411.352 399.217V406.342H409.906V397.889H411.312L411.352 399.217ZM413.992 397.842L413.984 399.186C413.865 399.16 413.75 399.144 413.641 399.139C413.536 399.128 413.417 399.123 413.281 399.123C412.948 399.123 412.654 399.175 412.398 399.28C412.143 399.384 411.927 399.53 411.75 399.717C411.573 399.905 411.432 400.128 411.328 400.389C411.229 400.644 411.164 400.925 411.133 401.233L410.727 401.467C410.727 400.957 410.776 400.477 410.875 400.03C410.979 399.582 411.138 399.186 411.352 398.842C411.565 398.493 411.836 398.222 412.164 398.03C412.497 397.832 412.893 397.733 413.352 397.733C413.456 397.733 413.576 397.746 413.711 397.772C413.846 397.793 413.94 397.816 413.992 397.842ZM172.648 428.1C172.648 427.892 172.602 427.699 172.508 427.522C172.419 427.339 172.234 427.175 171.953 427.03C171.677 426.878 171.26 426.748 170.703 426.639C170.234 426.54 169.81 426.423 169.43 426.287C169.055 426.152 168.734 425.988 168.469 425.795C168.208 425.602 168.008 425.376 167.867 425.115C167.727 424.855 167.656 424.55 167.656 424.201C167.656 423.868 167.729 423.553 167.875 423.256C168.026 422.959 168.237 422.696 168.508 422.467C168.784 422.238 169.115 422.058 169.5 421.928C169.885 421.798 170.315 421.733 170.789 421.733C171.466 421.733 172.044 421.852 172.523 422.092C173.003 422.332 173.37 422.652 173.625 423.053C173.88 423.449 174.008 423.889 174.008 424.373H172.562C172.562 424.139 172.492 423.912 172.352 423.694C172.216 423.47 172.016 423.285 171.75 423.139C171.49 422.993 171.169 422.92 170.789 422.92C170.388 422.92 170.062 422.983 169.812 423.108C169.568 423.227 169.388 423.381 169.273 423.569C169.164 423.756 169.109 423.954 169.109 424.162C169.109 424.319 169.135 424.459 169.188 424.584C169.245 424.704 169.344 424.816 169.484 424.92C169.625 425.019 169.823 425.113 170.078 425.201C170.333 425.29 170.659 425.378 171.055 425.467C171.747 425.623 172.318 425.811 172.766 426.03C173.214 426.248 173.547 426.517 173.766 426.834C173.984 427.152 174.094 427.537 174.094 427.99C174.094 428.36 174.016 428.699 173.859 429.006C173.708 429.313 173.487 429.579 173.195 429.803C172.909 430.022 172.565 430.194 172.164 430.319C171.768 430.438 171.323 430.498 170.828 430.498C170.083 430.498 169.453 430.365 168.938 430.1C168.422 429.834 168.031 429.49 167.766 429.069C167.5 428.647 167.367 428.201 167.367 427.733H168.82C168.841 428.128 168.956 428.444 169.164 428.678C169.372 428.907 169.628 429.071 169.93 429.17C170.232 429.264 170.531 429.311 170.828 429.311C171.224 429.311 171.555 429.259 171.82 429.155C172.091 429.05 172.297 428.907 172.438 428.725C172.578 428.543 172.648 428.334 172.648 428.1ZM179.5 430.498C178.911 430.498 178.378 430.399 177.898 430.201C177.424 429.998 177.016 429.714 176.672 429.35C176.333 428.985 176.073 428.553 175.891 428.053C175.708 427.553 175.617 427.006 175.617 426.412V426.084C175.617 425.397 175.719 424.785 175.922 424.248C176.125 423.707 176.401 423.248 176.75 422.873C177.099 422.498 177.495 422.214 177.938 422.022C178.38 421.829 178.839 421.733 179.312 421.733C179.917 421.733 180.438 421.837 180.875 422.045C181.318 422.253 181.68 422.545 181.961 422.92C182.242 423.29 182.451 423.727 182.586 424.233C182.721 424.733 182.789 425.28 182.789 425.873V426.522H176.477V425.342H181.344V425.233C181.323 424.858 181.245 424.493 181.109 424.139C180.979 423.785 180.771 423.493 180.484 423.264C180.198 423.035 179.807 422.92 179.312 422.92C178.984 422.92 178.682 422.99 178.406 423.131C178.13 423.267 177.893 423.47 177.695 423.74C177.497 424.011 177.344 424.342 177.234 424.733C177.125 425.123 177.07 425.574 177.07 426.084V426.412C177.07 426.813 177.125 427.191 177.234 427.545C177.349 427.894 177.513 428.201 177.727 428.467C177.945 428.733 178.208 428.941 178.516 429.092C178.828 429.243 179.182 429.319 179.578 429.319C180.089 429.319 180.521 429.214 180.875 429.006C181.229 428.798 181.539 428.519 181.805 428.17L182.68 428.865C182.497 429.142 182.266 429.405 181.984 429.655C181.703 429.905 181.357 430.108 180.945 430.264C180.539 430.42 180.057 430.498 179.5 430.498ZM189.461 428.897V424.545C189.461 424.212 189.393 423.923 189.258 423.678C189.128 423.428 188.93 423.235 188.664 423.1C188.398 422.964 188.07 422.897 187.68 422.897C187.315 422.897 186.995 422.959 186.719 423.084C186.448 423.209 186.234 423.373 186.078 423.576C185.927 423.78 185.852 423.998 185.852 424.233H184.406C184.406 423.931 184.484 423.631 184.641 423.334C184.797 423.037 185.021 422.769 185.312 422.53C185.609 422.285 185.964 422.092 186.375 421.951C186.792 421.806 187.255 421.733 187.766 421.733C188.38 421.733 188.922 421.837 189.391 422.045C189.865 422.253 190.234 422.569 190.5 422.99C190.771 423.407 190.906 423.931 190.906 424.561V428.498C190.906 428.78 190.93 429.079 190.977 429.397C191.029 429.714 191.104 429.988 191.203 430.217V430.342H189.695C189.622 430.175 189.565 429.954 189.523 429.678C189.482 429.397 189.461 429.136 189.461 428.897ZM189.711 425.217L189.727 426.233H188.266C187.854 426.233 187.487 426.267 187.164 426.334C186.841 426.397 186.57 426.493 186.352 426.623C186.133 426.753 185.966 426.918 185.852 427.115C185.737 427.308 185.68 427.535 185.68 427.795C185.68 428.061 185.74 428.303 185.859 428.522C185.979 428.74 186.159 428.915 186.398 429.045C186.643 429.17 186.943 429.233 187.297 429.233C187.74 429.233 188.13 429.139 188.469 428.951C188.807 428.764 189.076 428.535 189.273 428.264C189.477 427.993 189.586 427.73 189.602 427.475L190.219 428.17C190.182 428.389 190.083 428.631 189.922 428.897C189.76 429.162 189.544 429.418 189.273 429.662C189.008 429.902 188.69 430.102 188.32 430.264C187.956 430.42 187.544 430.498 187.086 430.498C186.513 430.498 186.01 430.386 185.578 430.162C185.151 429.938 184.818 429.639 184.578 429.264C184.344 428.884 184.227 428.459 184.227 427.99C184.227 427.537 184.315 427.139 184.492 426.795C184.669 426.446 184.924 426.157 185.258 425.928C185.591 425.694 185.992 425.517 186.461 425.397C186.93 425.277 187.453 425.217 188.031 425.217H189.711ZM194.617 423.569V430.342H193.164V421.889H194.539L194.617 423.569ZM194.32 425.795L193.648 425.772C193.654 425.194 193.729 424.66 193.875 424.17C194.021 423.675 194.237 423.246 194.523 422.881C194.81 422.517 195.167 422.235 195.594 422.037C196.021 421.834 196.516 421.733 197.078 421.733C197.474 421.733 197.839 421.79 198.172 421.905C198.505 422.014 198.794 422.188 199.039 422.428C199.284 422.668 199.474 422.975 199.609 423.35C199.745 423.725 199.812 424.178 199.812 424.709V430.342H198.367V424.78C198.367 424.337 198.292 423.983 198.141 423.717C197.995 423.451 197.786 423.259 197.516 423.139C197.245 423.014 196.927 422.951 196.562 422.951C196.135 422.951 195.779 423.027 195.492 423.178C195.206 423.329 194.977 423.537 194.805 423.803C194.633 424.069 194.508 424.373 194.43 424.717C194.357 425.056 194.32 425.415 194.32 425.795ZM199.797 424.998L198.828 425.295C198.833 424.832 198.909 424.386 199.055 423.959C199.206 423.532 199.422 423.152 199.703 422.819C199.99 422.485 200.341 422.222 200.758 422.03C201.174 421.832 201.651 421.733 202.188 421.733C202.641 421.733 203.042 421.793 203.391 421.912C203.745 422.032 204.042 422.217 204.281 422.467C204.526 422.712 204.711 423.027 204.836 423.412C204.961 423.798 205.023 424.256 205.023 424.787V430.342H203.57V424.772C203.57 424.298 203.495 423.931 203.344 423.67C203.198 423.405 202.99 423.22 202.719 423.115C202.453 423.006 202.135 422.951 201.766 422.951C201.448 422.951 201.167 423.006 200.922 423.115C200.677 423.225 200.471 423.376 200.305 423.569C200.138 423.756 200.01 423.972 199.922 424.217C199.839 424.462 199.797 424.722 199.797 424.998ZM208.781 418.342V430.342H207.328V418.342H208.781ZM214.609 430.498C214.021 430.498 213.487 430.399 213.008 430.201C212.534 429.998 212.125 429.714 211.781 429.35C211.443 428.985 211.182 428.553 211 428.053C210.818 427.553 210.727 427.006 210.727 426.412V426.084C210.727 425.397 210.828 424.785 211.031 424.248C211.234 423.707 211.51 423.248 211.859 422.873C212.208 422.498 212.604 422.214 213.047 422.022C213.49 421.829 213.948 421.733 214.422 421.733C215.026 421.733 215.547 421.837 215.984 422.045C216.427 422.253 216.789 422.545 217.07 422.92C217.352 423.29 217.56 423.727 217.695 424.233C217.831 424.733 217.898 425.28 217.898 425.873V426.522H211.586V425.342H216.453V425.233C216.432 424.858 216.354 424.493 216.219 424.139C216.089 423.785 215.88 423.493 215.594 423.264C215.307 423.035 214.917 422.92 214.422 422.92C214.094 422.92 213.792 422.99 213.516 423.131C213.24 423.267 213.003 423.47 212.805 423.74C212.607 424.011 212.453 424.342 212.344 424.733C212.234 425.123 212.18 425.574 212.18 426.084V426.412C212.18 426.813 212.234 427.191 212.344 427.545C212.458 427.894 212.622 428.201 212.836 428.467C213.055 428.733 213.318 428.941 213.625 429.092C213.938 429.243 214.292 429.319 214.688 429.319C215.198 429.319 215.63 429.214 215.984 429.006C216.339 428.798 216.648 428.519 216.914 428.17L217.789 428.865C217.607 429.142 217.375 429.405 217.094 429.655C216.812 429.905 216.466 430.108 216.055 430.264C215.648 430.42 215.167 430.498 214.609 430.498ZM224.508 428.1C224.508 427.892 224.461 427.699 224.367 427.522C224.279 427.339 224.094 427.175 223.812 427.03C223.536 426.878 223.12 426.748 222.562 426.639C222.094 426.54 221.669 426.423 221.289 426.287C220.914 426.152 220.594 425.988 220.328 425.795C220.068 425.602 219.867 425.376 219.727 425.115C219.586 424.855 219.516 424.55 219.516 424.201C219.516 423.868 219.589 423.553 219.734 423.256C219.885 422.959 220.096 422.696 220.367 422.467C220.643 422.238 220.974 422.058 221.359 421.928C221.745 421.798 222.174 421.733 222.648 421.733C223.326 421.733 223.904 421.852 224.383 422.092C224.862 422.332 225.229 422.652 225.484 423.053C225.74 423.449 225.867 423.889 225.867 424.373H224.422C224.422 424.139 224.352 423.912 224.211 423.694C224.076 423.47 223.875 423.285 223.609 423.139C223.349 422.993 223.029 422.92 222.648 422.92C222.247 422.92 221.922 422.983 221.672 423.108C221.427 423.227 221.247 423.381 221.133 423.569C221.023 423.756 220.969 423.954 220.969 424.162C220.969 424.319 220.995 424.459 221.047 424.584C221.104 424.704 221.203 424.816 221.344 424.92C221.484 425.019 221.682 425.113 221.938 425.201C222.193 425.29 222.518 425.378 222.914 425.467C223.607 425.623 224.177 425.811 224.625 426.03C225.073 426.248 225.406 426.517 225.625 426.834C225.844 427.152 225.953 427.537 225.953 427.99C225.953 428.36 225.875 428.699 225.719 429.006C225.568 429.313 225.346 429.579 225.055 429.803C224.768 430.022 224.424 430.194 224.023 430.319C223.628 430.438 223.182 430.498 222.688 430.498C221.943 430.498 221.312 430.365 220.797 430.1C220.281 429.834 219.891 429.49 219.625 429.069C219.359 428.647 219.227 428.201 219.227 427.733H220.68C220.701 428.128 220.815 428.444 221.023 428.678C221.232 428.907 221.487 429.071 221.789 429.17C222.091 429.264 222.391 429.311 222.688 429.311C223.083 429.311 223.414 429.259 223.68 429.155C223.951 429.05 224.156 428.907 224.297 428.725C224.438 428.543 224.508 428.334 224.508 428.1ZM232.773 428.1C232.773 427.892 232.727 427.699 232.633 427.522C232.544 427.339 232.359 427.175 232.078 427.03C231.802 426.878 231.385 426.748 230.828 426.639C230.359 426.54 229.935 426.423 229.555 426.287C229.18 426.152 228.859 425.988 228.594 425.795C228.333 425.602 228.133 425.376 227.992 425.115C227.852 424.855 227.781 424.55 227.781 424.201C227.781 423.868 227.854 423.553 228 423.256C228.151 422.959 228.362 422.696 228.633 422.467C228.909 422.238 229.24 422.058 229.625 421.928C230.01 421.798 230.44 421.733 230.914 421.733C231.591 421.733 232.169 421.852 232.648 422.092C233.128 422.332 233.495 422.652 233.75 423.053C234.005 423.449 234.133 423.889 234.133 424.373H232.688C232.688 424.139 232.617 423.912 232.477 423.694C232.341 423.47 232.141 423.285 231.875 423.139C231.615 422.993 231.294 422.92 230.914 422.92C230.513 422.92 230.188 422.983 229.938 423.108C229.693 423.227 229.513 423.381 229.398 423.569C229.289 423.756 229.234 423.954 229.234 424.162C229.234 424.319 229.26 424.459 229.312 424.584C229.37 424.704 229.469 424.816 229.609 424.92C229.75 425.019 229.948 425.113 230.203 425.201C230.458 425.29 230.784 425.378 231.18 425.467C231.872 425.623 232.443 425.811 232.891 426.03C233.339 426.248 233.672 426.517 233.891 426.834C234.109 427.152 234.219 427.537 234.219 427.99C234.219 428.36 234.141 428.699 233.984 429.006C233.833 429.313 233.612 429.579 233.32 429.803C233.034 430.022 232.69 430.194 232.289 430.319C231.893 430.438 231.448 430.498 230.953 430.498C230.208 430.498 229.578 430.365 229.062 430.1C228.547 429.834 228.156 429.49 227.891 429.069C227.625 428.647 227.492 428.201 227.492 427.733H228.945C228.966 428.128 229.081 428.444 229.289 428.678C229.497 428.907 229.753 429.071 230.055 429.17C230.357 429.264 230.656 429.311 230.953 429.311C231.349 429.311 231.68 429.259 231.945 429.155C232.216 429.05 232.422 428.907 232.562 428.725C232.703 428.543 232.773 428.334 232.773 428.1ZM243.594 430.498C243.005 430.498 242.471 430.399 241.992 430.201C241.518 429.998 241.109 429.714 240.766 429.35C240.427 428.985 240.167 428.553 239.984 428.053C239.802 427.553 239.711 427.006 239.711 426.412V426.084C239.711 425.397 239.812 424.785 240.016 424.248C240.219 423.707 240.495 423.248 240.844 422.873C241.193 422.498 241.589 422.214 242.031 422.022C242.474 421.829 242.932 421.733 243.406 421.733C244.01 421.733 244.531 421.837 244.969 422.045C245.411 422.253 245.773 422.545 246.055 422.92C246.336 423.29 246.544 423.727 246.68 424.233C246.815 424.733 246.883 425.28 246.883 425.873V426.522H240.57V425.342H245.438V425.233C245.417 424.858 245.339 424.493 245.203 424.139C245.073 423.785 244.865 423.493 244.578 423.264C244.292 423.035 243.901 422.92 243.406 422.92C243.078 422.92 242.776 422.99 242.5 423.131C242.224 423.267 241.987 423.47 241.789 423.74C241.591 424.011 241.438 424.342 241.328 424.733C241.219 425.123 241.164 425.574 241.164 426.084V426.412C241.164 426.813 241.219 427.191 241.328 427.545C241.443 427.894 241.607 428.201 241.82 428.467C242.039 428.733 242.302 428.941 242.609 429.092C242.922 429.243 243.276 429.319 243.672 429.319C244.182 429.319 244.615 429.214 244.969 429.006C245.323 428.798 245.633 428.519 245.898 428.17L246.773 428.865C246.591 429.142 246.359 429.405 246.078 429.655C245.797 429.905 245.451 430.108 245.039 430.264C244.633 430.42 244.151 430.498 243.594 430.498ZM249.547 421.889L251.398 424.967L253.273 421.889H254.969L252.203 426.061L255.055 430.342H253.383L251.43 427.17L249.477 430.342H247.797L250.641 426.061L247.883 421.889H249.547ZM257.953 423.514V433.592H256.5V421.889H257.828L257.953 423.514ZM263.648 426.045V426.209C263.648 426.824 263.576 427.394 263.43 427.92C263.284 428.441 263.07 428.894 262.789 429.28C262.513 429.665 262.172 429.964 261.766 430.178C261.359 430.392 260.893 430.498 260.367 430.498C259.831 430.498 259.357 430.41 258.945 430.233C258.534 430.056 258.185 429.798 257.898 429.459C257.612 429.121 257.383 428.714 257.211 428.24C257.044 427.767 256.93 427.233 256.867 426.639V425.764C256.93 425.139 257.047 424.579 257.219 424.084C257.391 423.589 257.617 423.168 257.898 422.819C258.185 422.464 258.531 422.196 258.938 422.014C259.344 421.826 259.812 421.733 260.344 421.733C260.875 421.733 261.346 421.837 261.758 422.045C262.169 422.248 262.516 422.54 262.797 422.92C263.078 423.3 263.289 423.756 263.43 424.287C263.576 424.813 263.648 425.399 263.648 426.045ZM262.195 426.209V426.045C262.195 425.623 262.151 425.227 262.062 424.858C261.974 424.483 261.836 424.155 261.648 423.873C261.466 423.587 261.232 423.363 260.945 423.201C260.659 423.035 260.318 422.951 259.922 422.951C259.557 422.951 259.24 423.014 258.969 423.139C258.703 423.264 258.477 423.433 258.289 423.647C258.102 423.855 257.948 424.095 257.828 424.365C257.714 424.631 257.628 424.907 257.57 425.194V427.217C257.674 427.582 257.82 427.925 258.008 428.248C258.195 428.566 258.445 428.824 258.758 429.022C259.07 429.214 259.464 429.311 259.938 429.311C260.328 429.311 260.664 429.23 260.945 429.069C261.232 428.902 261.466 428.675 261.648 428.389C261.836 428.102 261.974 427.774 262.062 427.405C262.151 427.03 262.195 426.631 262.195 426.209ZM269 430.498C268.411 430.498 267.878 430.399 267.398 430.201C266.924 429.998 266.516 429.714 266.172 429.35C265.833 428.985 265.573 428.553 265.391 428.053C265.208 427.553 265.117 427.006 265.117 426.412V426.084C265.117 425.397 265.219 424.785 265.422 424.248C265.625 423.707 265.901 423.248 266.25 422.873C266.599 422.498 266.995 422.214 267.438 422.022C267.88 421.829 268.339 421.733 268.812 421.733C269.417 421.733 269.938 421.837 270.375 422.045C270.818 422.253 271.18 422.545 271.461 422.92C271.742 423.29 271.951 423.727 272.086 424.233C272.221 424.733 272.289 425.28 272.289 425.873V426.522H265.977V425.342H270.844V425.233C270.823 424.858 270.745 424.493 270.609 424.139C270.479 423.785 270.271 423.493 269.984 423.264C269.698 423.035 269.307 422.92 268.812 422.92C268.484 422.92 268.182 422.99 267.906 423.131C267.63 423.267 267.393 423.47 267.195 423.74C266.997 424.011 266.844 424.342 266.734 424.733C266.625 425.123 266.57 425.574 266.57 426.084V426.412C266.57 426.813 266.625 427.191 266.734 427.545C266.849 427.894 267.013 428.201 267.227 428.467C267.445 428.733 267.708 428.941 268.016 429.092C268.328 429.243 268.682 429.319 269.078 429.319C269.589 429.319 270.021 429.214 270.375 429.006C270.729 428.798 271.039 428.519 271.305 428.17L272.18 428.865C271.997 429.142 271.766 429.405 271.484 429.655C271.203 429.905 270.857 430.108 270.445 430.264C270.039 430.42 269.557 430.498 269 430.498ZM275.422 423.217V430.342H273.977V421.889H275.383L275.422 423.217ZM278.062 421.842L278.055 423.186C277.935 423.16 277.82 423.144 277.711 423.139C277.607 423.128 277.487 423.123 277.352 423.123C277.018 423.123 276.724 423.175 276.469 423.28C276.214 423.384 275.997 423.53 275.82 423.717C275.643 423.905 275.503 424.128 275.398 424.389C275.299 424.644 275.234 424.925 275.203 425.233L274.797 425.467C274.797 424.957 274.846 424.477 274.945 424.03C275.049 423.582 275.208 423.186 275.422 422.842C275.635 422.493 275.906 422.222 276.234 422.03C276.568 421.832 276.964 421.733 277.422 421.733C277.526 421.733 277.646 421.746 277.781 421.772C277.917 421.793 278.01 421.816 278.062 421.842ZM280.969 421.889V430.342H279.516V421.889H280.969ZM279.406 419.647C279.406 419.412 279.477 419.214 279.617 419.053C279.763 418.892 279.977 418.811 280.258 418.811C280.534 418.811 280.745 418.892 280.891 419.053C281.042 419.214 281.117 419.412 281.117 419.647C281.117 419.871 281.042 420.063 280.891 420.225C280.745 420.381 280.534 420.459 280.258 420.459C279.977 420.459 279.763 420.381 279.617 420.225C279.477 420.063 279.406 419.871 279.406 419.647ZM286.797 430.498C286.208 430.498 285.674 430.399 285.195 430.201C284.721 429.998 284.312 429.714 283.969 429.35C283.63 428.985 283.37 428.553 283.188 428.053C283.005 427.553 282.914 427.006 282.914 426.412V426.084C282.914 425.397 283.016 424.785 283.219 424.248C283.422 423.707 283.698 423.248 284.047 422.873C284.396 422.498 284.792 422.214 285.234 422.022C285.677 421.829 286.135 421.733 286.609 421.733C287.214 421.733 287.734 421.837 288.172 422.045C288.615 422.253 288.977 422.545 289.258 422.92C289.539 423.29 289.747 423.727 289.883 424.233C290.018 424.733 290.086 425.28 290.086 425.873V426.522H283.773V425.342H288.641V425.233C288.62 424.858 288.542 424.493 288.406 424.139C288.276 423.785 288.068 423.493 287.781 423.264C287.495 423.035 287.104 422.92 286.609 422.92C286.281 422.92 285.979 422.99 285.703 423.131C285.427 423.267 285.19 423.47 284.992 423.74C284.794 424.011 284.641 424.342 284.531 424.733C284.422 425.123 284.367 425.574 284.367 426.084V426.412C284.367 426.813 284.422 427.191 284.531 427.545C284.646 427.894 284.81 428.201 285.023 428.467C285.242 428.733 285.505 428.941 285.812 429.092C286.125 429.243 286.479 429.319 286.875 429.319C287.385 429.319 287.818 429.214 288.172 429.006C288.526 428.798 288.836 428.519 289.102 428.17L289.977 428.865C289.794 429.142 289.562 429.405 289.281 429.655C289 429.905 288.654 430.108 288.242 430.264C287.836 430.42 287.354 430.498 286.797 430.498ZM293.219 423.694V430.342H291.773V421.889H293.141L293.219 423.694ZM292.875 425.795L292.273 425.772C292.279 425.194 292.365 424.66 292.531 424.17C292.698 423.675 292.932 423.246 293.234 422.881C293.536 422.517 293.896 422.235 294.312 422.037C294.734 421.834 295.201 421.733 295.711 421.733C296.128 421.733 296.503 421.79 296.836 421.905C297.169 422.014 297.453 422.191 297.688 422.436C297.927 422.681 298.109 422.998 298.234 423.389C298.359 423.774 298.422 424.246 298.422 424.803V430.342H296.969V424.787C296.969 424.345 296.904 423.99 296.773 423.725C296.643 423.454 296.453 423.259 296.203 423.139C295.953 423.014 295.646 422.951 295.281 422.951C294.922 422.951 294.594 423.027 294.297 423.178C294.005 423.329 293.753 423.537 293.539 423.803C293.331 424.069 293.167 424.373 293.047 424.717C292.932 425.056 292.875 425.415 292.875 425.795ZM304 429.311C304.344 429.311 304.661 429.24 304.953 429.1C305.245 428.959 305.484 428.767 305.672 428.522C305.859 428.272 305.966 427.988 305.992 427.67H307.367C307.341 428.17 307.172 428.636 306.859 429.069C306.552 429.496 306.148 429.842 305.648 430.108C305.148 430.368 304.599 430.498 304 430.498C303.365 430.498 302.81 430.386 302.336 430.162C301.867 429.938 301.477 429.631 301.164 429.24C300.857 428.85 300.625 428.402 300.469 427.897C300.318 427.386 300.242 426.847 300.242 426.28V425.951C300.242 425.384 300.318 424.847 300.469 424.342C300.625 423.832 300.857 423.381 301.164 422.99C301.477 422.6 301.867 422.293 302.336 422.069C302.81 421.845 303.365 421.733 304 421.733C304.661 421.733 305.24 421.868 305.734 422.139C306.229 422.405 306.617 422.769 306.898 423.233C307.185 423.691 307.341 424.212 307.367 424.795H305.992C305.966 424.446 305.867 424.131 305.695 423.85C305.529 423.569 305.299 423.345 305.008 423.178C304.721 423.006 304.385 422.92 304 422.92C303.557 422.92 303.185 423.009 302.883 423.186C302.586 423.358 302.349 423.592 302.172 423.889C302 424.181 301.875 424.506 301.797 424.865C301.724 425.22 301.688 425.582 301.688 425.951V426.28C301.688 426.649 301.724 427.014 301.797 427.373C301.87 427.733 301.992 428.058 302.164 428.35C302.341 428.642 302.578 428.876 302.875 429.053C303.177 429.225 303.552 429.311 304 429.311ZM312.5 430.498C311.911 430.498 311.378 430.399 310.898 430.201C310.424 429.998 310.016 429.714 309.672 429.35C309.333 428.985 309.073 428.553 308.891 428.053C308.708 427.553 308.617 427.006 308.617 426.412V426.084C308.617 425.397 308.719 424.785 308.922 424.248C309.125 423.707 309.401 423.248 309.75 422.873C310.099 422.498 310.495 422.214 310.938 422.022C311.38 421.829 311.839 421.733 312.312 421.733C312.917 421.733 313.438 421.837 313.875 422.045C314.318 422.253 314.68 422.545 314.961 422.92C315.242 423.29 315.451 423.727 315.586 424.233C315.721 424.733 315.789 425.28 315.789 425.873V426.522H309.477V425.342H314.344V425.233C314.323 424.858 314.245 424.493 314.109 424.139C313.979 423.785 313.771 423.493 313.484 423.264C313.198 423.035 312.807 422.92 312.312 422.92C311.984 422.92 311.682 422.99 311.406 423.131C311.13 423.267 310.893 423.47 310.695 423.74C310.497 424.011 310.344 424.342 310.234 424.733C310.125 425.123 310.07 425.574 310.07 426.084V426.412C310.07 426.813 310.125 427.191 310.234 427.545C310.349 427.894 310.513 428.201 310.727 428.467C310.945 428.733 311.208 428.941 311.516 429.092C311.828 429.243 312.182 429.319 312.578 429.319C313.089 429.319 313.521 429.214 313.875 429.006C314.229 428.798 314.539 428.519 314.805 428.17L315.68 428.865C315.497 429.142 315.266 429.405 314.984 429.655C314.703 429.905 314.357 430.108 313.945 430.264C313.539 430.42 313.057 430.498 312.5 430.498Z" fill="#000C2A"/>
</svg>
