<svg width="20" height="21" viewBox="0 0 20 21" fill="none" xmlns="http://www.w3.org/2000/svg">
<path d="M5.92 12.04C7.33 12.04 8.46 13.181 8.46 14.601V18.01C8.46 19.42 7.33 20.57 5.92 20.57H2.54C1.14 20.57 0 19.42 0 18.01V14.601C0 13.181 1.14 12.04 2.54 12.04H5.92ZM17.4601 12.04C18.8601 12.04 20.0001 13.181 20.0001 14.601V18.01C20.0001 19.42 18.8601 20.57 17.4601 20.57H14.0801C12.6701 20.57 11.5401 19.42 11.5401 18.01V14.601C11.5401 13.181 12.6701 12.04 14.0801 12.04H17.4601ZM5.92 0.570312C7.33 0.570312 8.46 1.72031 8.46 3.13131V6.54031C8.46 7.96031 7.33 9.10031 5.92 9.10031H2.54C1.14 9.10031 0 7.96031 0 6.54031V3.13131C0 1.72031 1.14 0.570312 2.54 0.570312H5.92ZM17.4601 0.570312C18.8601 0.570312 20.0001 1.72031 20.0001 3.13131V6.54031C20.0001 7.96031 18.8601 9.10031 17.4601 9.10031H14.0801C12.6701 9.10031 11.5401 7.96031 11.5401 6.54031V3.13131C11.5401 1.72031 12.6701 0.570312 14.0801 0.570312H17.4601Z" fill="#0790FF"/>
</svg>
