<svg width="19" height="21" viewBox="0 0 19 21" fill="none" xmlns="http://www.w3.org/2000/svg">
<path d="M9.61432 0.288086C12.2943 0.288086 14.4975 2.39399 14.6094 5.06241H14.5832C14.5864 5.13997 14.5715 5.21721 14.5397 5.28808H14.6958C15.9128 5.28808 17.1872 6.13159 17.6982 8.16789L17.7537 8.40816L18.5226 14.6028C19.076 18.5538 16.9143 20.2154 13.9656 20.2857L13.7678 20.2881H5.4779C2.48115 20.2881 0.171919 19.1961 0.679656 14.8716L0.71428 14.6028L1.49201 8.40816C1.87552 6.21527 3.16298 5.35033 4.40349 5.29135L4.54109 5.28808H4.61926C4.60608 5.21343 4.60608 5.13706 4.61926 5.06241C4.7311 2.39399 6.93437 0.288086 9.61432 0.288086ZM6.70637 8.61737C6.21827 8.61737 5.82258 9.02463 5.82258 9.52702C5.82258 10.0294 6.21827 10.4367 6.70637 10.4367C7.19448 10.4367 7.59016 10.0294 7.59016 9.52702L7.58328 9.41291C7.52874 8.96439 7.15693 8.61737 6.70637 8.61737ZM12.4952 8.61737C12.0071 8.61737 11.6114 9.02463 11.6114 9.52702C11.6114 10.0294 12.0071 10.4367 12.4952 10.4367C12.9833 10.4367 13.379 10.0294 13.379 9.52702C13.379 9.02463 12.9833 8.61737 12.4952 8.61737ZM9.57512 1.59047C7.65101 1.59047 6.09121 3.14491 6.09121 5.06241C6.1044 5.13706 6.1044 5.21343 6.09121 5.28808H13.1026C13.0748 5.21603 13.06 5.13961 13.059 5.06241C13.059 3.14491 11.4992 1.59047 9.57512 1.59047Z" fill="#828282"/>
</svg>
