<svg width="20" height="20" viewBox="0 0 20 20" fill="none" xmlns="http://www.w3.org/2000/svg">
<path fill-rule="evenodd" clip-rule="evenodd" d="M14 5C14.5523 5 15 5.44772 15 6L15 14C15 14.5523 14.5523 15 14 15C13.4477 15 13 14.5523 13 14V6C13 5.44772 13.4477 5 14 5ZM10 7C10.5523 7 11 7.44772 11 8V14C11 14.5523 10.5523 15 10 15C9.44771 15 9 14.5523 9 14V8C9 7.44772 9.44772 7 10 7ZM7 9C7 8.44772 6.55229 8 6 8C5.44772 8 5 8.44772 5 9V14C5 14.5523 5.44772 15 6 15C6.55228 15 7 14.5523 7 14L7 9ZM5.25007 0.387825C6.54878 0.0991992 8.1243 0 10 0C11.8757 0 13.4512 0.0991992 14.7499 0.387825C16.06 0.678974 17.1488 1.176 17.9864 2.01358C18.824 2.85116 19.321 3.94002 19.6122 5.25007C19.9008 6.54878 20 8.1243 20 10C20 11.8757 19.9008 13.4512 19.6122 14.7499C19.321 16.06 18.824 17.1488 17.9864 17.9864C17.1488 18.824 16.06 19.321 14.7499 19.6122C13.4512 19.9008 11.8757 20 10 20C8.1243 20 6.54878 19.9008 5.25007 19.6122C3.94002 19.321 2.85116 18.824 2.01358 17.9864C1.176 17.1488 0.678974 16.06 0.387825 14.7499C0.0991992 13.4512 0 11.8757 0 10C0 8.1243 0.0991992 6.54878 0.387825 5.25007C0.678974 3.94002 1.176 2.85116 2.01358 2.01358C2.85116 1.176 3.94002 0.678974 5.25007 0.387825Z" fill="#828282"/>
</svg>
