<svg width="24" height="24" viewBox="0 0 24 24" fill="none" xmlns="http://www.w3.org/2000/svg">
<path fill-rule="evenodd" clip-rule="evenodd" d="M4.06641 8.1C4.06641 5.28335 6.34975 3 9.16641 3C11.9831 3 14.2664 5.28335 14.2664 8.1C14.2664 10.9167 11.9831 13.2 9.16641 13.2C6.34975 13.2 4.06641 10.9167 4.06641 8.1Z" fill="#828282"/>
<path d="M14.6837 11.005C14.6321 11.1027 14.654 11.2244 14.7428 11.2902C15.4019 11.7781 16.2175 12.0667 17.1006 12.0667C19.2913 12.0667 21.0672 10.2907 21.0672 8.1C21.0672 5.90927 19.2913 4.13333 17.1006 4.13333C16.2175 4.13333 15.4019 4.42187 14.7428 4.90981C14.654 4.97555 14.6321 5.09733 14.6837 5.19503C15.1414 6.06248 15.4006 7.05098 15.4006 8.1C15.4006 9.14902 15.1414 10.1375 14.6837 11.005Z" fill="#828282"/>
<path fill-rule="evenodd" clip-rule="evenodd" d="M3.65993 15.1259C5.05661 14.5196 6.88915 14.3333 9.16658 14.3333C11.446 14.3333 13.2798 14.5199 14.6771 15.1275C16.199 15.7893 17.124 16.9165 17.6088 18.508C17.8361 19.254 17.2757 20 16.5036 20H1.83171C1.05865 20 0.497149 19.2529 0.725078 18.5056C1.21057 16.9138 2.137 15.7869 3.65993 15.1259Z" fill="#828282"/>
<path d="M15.1956 13.2413C14.7264 13.2704 14.6988 13.9007 15.1299 14.0882C16.3114 14.602 17.2009 15.3582 17.8389 16.3235C18.3623 17.1156 19.1753 17.7333 20.1247 17.7333H22.1428C22.9442 17.7333 23.529 16.9369 23.247 16.1589C23.2308 16.1142 23.2139 16.0697 23.1965 16.0256C22.8084 15.0457 22.1433 14.3244 21.1584 13.8646C20.2337 13.4329 19.0762 13.2548 17.7124 13.2009L17.69 13.2H17.6676C16.8643 13.2 16.0253 13.1897 15.1956 13.2413Z" fill="#828282"/>
</svg>
