<svg width="24" height="24" viewBox="0 0 24 24" fill="none" xmlns="http://www.w3.org/2000/svg">
<path d="M20.5823 11.6316L15.7523 7.7466V5.10061C15.778 4.57031 15.5924 4.05144 15.2362 3.65778C14.8799 3.26412 14.3821 3.0278 13.8518 3.00063H1.8819C1.3554 3.03313 0.862908 3.27177 0.511114 3.66483C0.159319 4.0579 -0.0234454 4.57374 0.0024134 5.10061V15.6006C-0.00733182 16.0175 0.107302 16.4279 0.331702 16.7795C0.556102 17.1311 0.880104 17.4078 1.26241 17.5745C1.06903 18.0476 0.99367 18.5606 1.04282 19.0693C1.09197 19.578 1.26415 20.0671 1.54451 20.4944C1.82487 20.9217 2.20499 21.2744 2.65207 21.522C3.09916 21.7696 3.59977 21.9047 4.11072 21.9157C4.62167 21.9266 5.12761 21.8131 5.58489 21.5849C6.04216 21.3566 6.43704 21.0206 6.73545 20.6057C7.03386 20.1908 7.22684 19.7095 7.29773 19.2034C7.36863 18.6972 7.31531 18.1815 7.14238 17.7005H13.8203C13.6477 18.1763 13.5922 18.6867 13.6586 19.1885C13.725 19.6903 13.9113 20.1687 14.2018 20.5832C14.4923 20.9976 14.8784 21.336 15.3275 21.5696C15.7765 21.8033 16.2752 21.9252 16.7813 21.9252C17.2875 21.9252 17.7862 21.8033 18.2352 21.5696C18.6842 21.336 19.0703 20.9976 19.3608 20.5832C19.6513 20.1687 19.8377 19.6903 19.9041 19.1885C19.9705 18.6867 19.915 18.1763 19.7423 17.7005H19.9523C20.2308 17.7005 20.4979 17.5899 20.6948 17.393C20.8917 17.1961 21.0023 16.929 21.0023 16.6506V12.4506C20.9991 12.2911 20.9596 12.1345 20.8868 11.9926C20.8141 11.8507 20.7099 11.7272 20.5823 11.6316ZM18.9023 12.9546V15.6006H15.7523V10.4346L18.9023 12.9546ZM5.25239 18.7505C5.25239 18.9582 5.1908 19.1612 5.07543 19.3339C4.96006 19.5066 4.79607 19.6411 4.60421 19.7206C4.41235 19.8001 4.20123 19.8209 3.99755 19.7804C3.79387 19.7398 3.60678 19.6398 3.45993 19.493C3.31309 19.3462 3.21309 19.1591 3.17257 18.9554C3.13206 18.7517 3.15285 18.5406 3.23232 18.3487C3.31179 18.1569 3.44638 17.9929 3.61905 17.8775C3.79172 17.7621 3.99472 17.7005 4.20239 17.7005C4.48087 17.7005 4.74794 17.8112 4.94485 18.0081C5.14176 18.205 5.25239 18.4721 5.25239 18.7505ZM17.8523 18.7505C17.8523 18.9582 17.7907 19.1612 17.6754 19.3339C17.56 19.5066 17.396 19.6411 17.2041 19.7206C17.0123 19.8001 16.8012 19.8209 16.5975 19.7804C16.3938 19.7398 16.2067 19.6398 16.0599 19.493C15.913 19.3462 15.813 19.1591 15.7725 18.9554C15.732 18.7517 15.7528 18.5406 15.8323 18.3487C15.9117 18.1569 16.0463 17.9929 16.219 17.8775C16.3917 17.7621 16.5947 17.7005 16.8023 17.7005C17.0808 17.7005 17.3479 17.8112 17.5448 18.0081C17.7417 18.205 17.8523 18.4721 17.8523 18.7505Z" fill="#323232"/>
</svg>
