<svg width="20" height="20" viewBox="0 0 20 20" fill="none" xmlns="http://www.w3.org/2000/svg">
<path fill-rule="evenodd" clip-rule="evenodd" d="M8.99915 0C7.34229 0 5.99915 1.34315 5.99915 3V4.00038C5.39398 4.00219 4.86028 4.01237 4.41175 4.06902C3.82265 4.14344 3.25632 4.31027 2.76817 4.73364C2.28001 5.15702 2.03477 5.69406 1.87779 6.26672C1.73201 6.79855 1.63675 7.46561 1.5271 8.23351L0.651369 14.3636C0.508217 15.3653 0.386011 16.2204 0.384775 16.9086C0.38346 17.6412 0.515065 18.3617 1.03884 18.9656C1.56261 19.5695 2.25728 19.8017 2.98268 19.904C3.6641 20.0001 4.52791 20.0001 5.53978 20H14.4586C15.4705 20.0001 16.3343 20.0001 17.0157 19.904C17.7411 19.8017 18.4357 19.5695 18.9595 18.9656C19.4833 18.3617 19.6149 17.6412 19.6136 16.9086C19.6124 16.2204 19.4901 15.3653 19.347 14.3635L18.4713 8.23349C18.3616 7.46561 18.2664 6.79855 18.1206 6.26672C17.9636 5.69406 17.7184 5.15702 17.2302 4.73364C16.742 4.31027 16.1757 4.14344 15.5866 4.06902C15.1381 4.01237 14.6043 4.00219 13.9991 4.00038V3C13.9991 1.34315 12.656 0 10.9991 0H8.99915ZM11.9991 4V3C11.9991 2.44772 11.5514 2 10.9991 2H8.99915C8.44686 2 7.99915 2.44772 7.99915 3V4L11.9991 4ZM6.99915 6C7.55143 6 7.99915 6.44772 7.99915 7V9C7.99915 9.55228 7.55143 10 6.99915 10C6.44686 10 5.99915 9.55228 5.99915 9V7C5.99915 6.44772 6.44686 6 6.99915 6ZM13.9991 7C13.9991 6.44772 13.5514 6 12.9991 6C12.4469 6 11.9991 6.44772 11.9991 7V9C11.9991 9.55228 12.4469 10 12.9991 10C13.5514 10 13.9991 9.55228 13.9991 9V7Z" fill="#323232"/>
</svg>
