<svg width="128" height="181" viewBox="0 0 128 181" fill="none" xmlns="http://www.w3.org/2000/svg">
<g clip-path="url(#clip0_1635_5444)">
<path d="M0.00012207 -1.54077V144.971C0.452248 154.234 4.4568 162.968 11.1842 169.364C17.9116 175.761 26.8462 179.328 36.1368 179.328C45.4274 179.328 54.3619 175.761 61.0893 169.364C67.8167 162.968 71.8213 154.234 72.2734 144.971V-1.54077H0.00012207Z" fill="#3B56A9"/>
<path d="M14.4893 -12.7518V133.76C14.4893 143.316 18.292 152.48 25.0609 159.236C31.8298 165.993 41.0103 169.789 50.583 169.789C60.1557 169.789 69.3362 165.993 76.1051 159.236C82.874 152.48 86.6768 143.316 86.6768 133.76V-12.7518H14.4893Z" stroke="#3B56A9" stroke-miterlimit="10"/>
<path d="M126.028 118.099C124.939 118.099 124.056 118.98 124.056 120.067C124.056 121.154 124.939 122.036 126.028 122.036C127.117 122.036 128 121.154 128 120.067C128 118.98 127.117 118.099 126.028 118.099Z" fill="#3B56A9"/>
<path d="M100.308 118.099C99.2189 118.099 98.336 118.98 98.336 120.067C98.336 121.154 99.2189 122.036 100.308 122.036C101.397 122.036 102.28 121.154 102.28 120.067C102.28 118.98 101.397 118.099 100.308 118.099Z" fill="#3B56A9"/>
<path d="M74.5882 118.099C73.4992 118.099 72.6163 118.98 72.6163 120.067C72.6163 121.154 73.4992 122.036 74.5882 122.036C75.6772 122.036 76.5601 121.154 76.5601 120.067C76.5601 118.98 75.6772 118.099 74.5882 118.099Z" fill="#3B56A9"/>
<path d="M48.8685 118.099C47.7794 118.099 46.8966 118.98 46.8966 120.067C46.8966 121.154 47.7794 122.036 48.8685 122.036C49.9575 122.036 50.8403 121.154 50.8403 120.067C50.8403 118.98 49.9575 118.099 48.8685 118.099Z" fill="#3B56A9"/>
<path d="M126.028 92.682C124.939 92.682 124.056 93.5632 124.056 94.6503C124.056 95.7374 124.939 96.6187 126.028 96.6187C127.117 96.6187 128 95.7374 128 94.6503C128 93.5632 127.117 92.682 126.028 92.682Z" fill="#3B56A9"/>
<path d="M100.308 92.682C99.2189 92.682 98.336 93.5632 98.336 94.6503C98.336 95.7374 99.2189 96.6187 100.308 96.6187C101.397 96.6187 102.28 95.7374 102.28 94.6503C102.28 93.5632 101.397 92.682 100.308 92.682Z" fill="#3B56A9"/>
<path d="M74.5882 92.682C73.4992 92.682 72.6163 93.5632 72.6163 94.6503C72.6163 95.7374 73.4992 96.6187 74.5882 96.6187C75.6772 96.6187 76.5601 95.7374 76.5601 94.6503C76.5601 93.5632 75.6772 92.682 74.5882 92.682Z" fill="#3B56A9"/>
<path d="M48.8685 92.682C47.7794 92.682 46.8966 93.5632 46.8966 94.6503C46.8966 95.7374 47.7794 96.6187 48.8685 96.6187C49.9575 96.6187 50.8403 95.7374 50.8403 94.6503C50.8403 93.5632 49.9575 92.682 48.8685 92.682Z" fill="#3B56A9"/>
<path d="M124.056 69.1479C124.077 68.6326 124.292 68.1441 124.657 67.7794C125.023 67.4148 125.512 67.2006 126.028 67.1796C126.551 67.1796 127.053 67.3869 127.422 67.7561C127.792 68.1252 128 68.6259 128 69.1479C128 69.6699 127.792 70.1706 127.422 70.5397C127.053 70.9088 126.551 71.1162 126.028 71.1162C125.505 71.1162 125.004 70.9088 124.634 70.5397C124.264 70.1706 124.056 69.6699 124.056 69.1479Z" fill="#3B56A9"/>
<path d="M98.336 69.1479C98.3571 68.6326 98.5717 68.1441 98.937 67.7794C99.3023 67.4148 99.7917 67.2006 100.308 67.1796C100.831 67.1796 101.332 67.3869 101.702 67.7561C102.072 68.1252 102.28 68.6259 102.28 69.1479C102.28 69.6699 102.072 70.1706 101.702 70.5397C101.332 70.9088 100.831 71.1162 100.308 71.1162C99.7849 71.1162 99.2834 70.9088 98.9136 70.5397C98.5438 70.1706 98.336 69.6699 98.336 69.1479Z" fill="#3B56A9"/>
<path d="M72.6162 69.1479C72.6373 68.6326 72.8519 68.1441 73.2173 67.7794C73.5826 67.4148 74.0719 67.2006 74.5881 67.1796C75.1111 67.1796 75.6127 67.3869 75.9825 67.7561C76.3523 68.1252 76.5601 68.6259 76.5601 69.1479C76.5601 69.6699 76.3523 70.1706 75.9825 70.5397C75.6127 70.9088 75.1111 71.1162 74.5881 71.1162C74.0652 71.1162 73.5636 70.9088 73.1938 70.5397C72.824 70.1706 72.6162 69.6699 72.6162 69.1479Z" fill="#3B56A9"/>
<path d="M46.9826 69.1479C46.9826 68.6259 47.1902 68.1252 47.56 67.7561C47.9298 67.3869 48.4314 67.1796 48.9544 67.1796C49.4706 67.2006 49.96 67.4148 50.3253 67.7794C50.6907 68.1441 50.9052 68.6326 50.9263 69.1479C50.9263 69.6699 50.7185 70.1706 50.3487 70.5397C49.9789 70.9088 49.4773 71.1162 48.9544 71.1162C48.4314 71.1162 47.9298 70.9088 47.56 70.5397C47.1902 70.1706 46.9826 69.6699 46.9826 69.1479Z" fill="#3B56A9"/>
<path d="M124.056 43.7309C124.056 43.2088 124.264 42.7082 124.634 42.3391C125.004 41.9699 125.505 41.7626 126.028 41.7626C126.551 41.7626 127.053 41.9699 127.422 42.3391C127.792 42.7082 128 43.2088 128 43.7309C128 44.2529 127.792 44.7536 127.422 45.1227C127.053 45.4918 126.551 45.6992 126.028 45.6992C125.505 45.6992 125.004 45.4918 124.634 45.1227C124.264 44.7536 124.056 44.2529 124.056 43.7309Z" fill="#3B56A9"/>
<path d="M98.336 43.7309C98.336 43.2088 98.5438 42.7082 98.9136 42.3391C99.2834 41.9699 99.7849 41.7626 100.308 41.7626C100.831 41.7626 101.332 41.9699 101.702 42.3391C102.072 42.7082 102.28 43.2088 102.28 43.7309C102.28 44.2529 102.072 44.7536 101.702 45.1227C101.332 45.4918 100.831 45.6992 100.308 45.6992C99.7849 45.6992 99.2834 45.4918 98.9136 45.1227C98.5438 44.7536 98.336 44.2529 98.336 43.7309Z" fill="#3B56A9"/>
<path d="M72.6162 43.7309C72.6162 43.2088 72.824 42.7082 73.1938 42.3391C73.5636 41.9699 74.0652 41.7626 74.5881 41.7626C75.1111 41.7626 75.6127 41.9699 75.9825 42.3391C76.3523 42.7082 76.5601 43.2088 76.5601 43.7309C76.5601 44.2529 76.3523 44.7536 75.9825 45.1227C75.6127 45.4918 75.1111 45.6992 74.5881 45.6992C74.0652 45.6992 73.5636 45.4918 73.1938 45.1227C72.824 44.7536 72.6162 44.2529 72.6162 43.7309Z" fill="#3B56A9"/>
<path d="M46.9826 43.7309C46.9826 43.2088 47.1902 42.7082 47.56 42.3391C47.9298 41.9699 48.4314 41.7626 48.9544 41.7626C49.4773 41.7626 49.9789 41.9699 50.3487 42.3391C50.7185 42.7082 50.9263 43.2088 50.9263 43.7309C50.9263 44.2529 50.7185 44.7536 50.3487 45.1227C49.9789 45.4918 49.4773 45.6992 48.9544 45.6992C48.4314 45.6992 47.9298 45.4918 47.56 45.1227C47.1902 44.7536 46.9826 44.2529 46.9826 43.7309Z" fill="#3B56A9"/>
</g>
<defs>
<clipPath id="clip0_1635_5444">
<rect width="128" height="181" fill="white" transform="matrix(-1 0 0 -1 128 181)"/>
</clipPath>
</defs>
</svg>
