<svg width="21" height="24" viewBox="0 0 21 24" fill="none" xmlns="http://www.w3.org/2000/svg">
<path fill-rule="evenodd" clip-rule="evenodd" d="M8.2754 21.1162C8.8452 21.7509 9.5767 22.0996 10.3357 22.0996H10.3368C11.0991 22.0996 11.8339 21.7509 12.4048 21.1151C12.7106 20.7774 13.232 20.7499 13.5697 21.0546C13.9085 21.3593 13.936 21.8818 13.6313 22.2195C12.7425 23.2062 11.5732 23.7496 10.3368 23.7496H10.3346C9.1015 23.7485 7.9344 23.2051 7.0489 22.2184C6.7442 21.8807 6.7717 21.3582 7.1105 21.0546C7.4493 20.7488 7.9707 20.7763 8.2754 21.1162ZM10.3905 0.0996094C15.28 0.0996094 18.5646 3.90781 18.5646 7.46411C18.5646 9.29341 19.0299 10.0689 19.5238 10.8917C20.0122 11.7035 20.5655 12.6253 20.5655 14.3677C20.1816 18.8194 15.5341 19.1824 10.3905 19.1824C5.24688 19.1824 0.598279 18.8194 0.218765 14.4381C0.215479 12.6253 0.768779 11.7035 1.25718 10.8917L1.4296 10.6015C1.85412 9.87185 2.21638 9.0782 2.21638 7.46411C2.21638 3.90781 5.50098 0.0996094 10.3905 0.0996094ZM10.3905 1.74961C6.54598 1.74961 3.86638 4.76141 3.86638 7.46411C3.86638 9.75101 3.23168 10.8081 2.67068 11.7409C2.22078 12.49 1.86548 13.0818 1.86548 14.3677C2.04918 16.4423 3.41868 17.5324 10.3905 17.5324C17.3238 17.5324 18.7362 16.3939 18.9188 14.2962C18.9155 13.0818 18.5602 12.49 18.1103 11.7409C17.5493 10.8081 16.9146 9.75101 16.9146 7.46411C16.9146 4.76141 14.235 1.74961 10.3905 1.74961Z" fill="white"/>
</svg>
