<svg width="23" height="23" viewBox="0 0 23 23" fill="none" xmlns="http://www.w3.org/2000/svg">
<path fill-rule="evenodd" clip-rule="evenodd" d="M10.9121 0.200195C16.8191 0.200195 21.6239 5.005 21.6239 10.912C21.6239 13.6989 20.5544 16.2407 18.8042 18.1483L22.2481 21.585C22.5704 21.9073 22.5715 22.4287 22.2492 22.751C22.0886 22.9138 21.8763 22.9941 21.6651 22.9941C21.455 22.9941 21.2438 22.9138 21.0821 22.7532L17.5967 19.2775C15.7632 20.7458 13.4385 21.6249 10.9121 21.6249C5.00512 21.6249 0.199219 16.819 0.199219 10.912C0.199219 5.005 5.00512 0.200195 10.9121 0.200195ZM10.9121 1.8502C5.91482 1.8502 1.84922 5.9147 1.84922 10.912C1.84922 15.9093 5.91482 19.9749 10.9121 19.9749C15.9083 19.9749 19.9739 15.9093 19.9739 10.912C19.9739 5.9147 15.9083 1.8502 10.9121 1.8502Z" fill="white"/>
</svg>
