<svg width="24" height="25" viewBox="0 0 24 25" fill="none" xmlns="http://www.w3.org/2000/svg">
<g id="1298745_google_brand_branding_logo_network_icon 1" clip-path="url(#clip0_668_76)">
<g id="_x31__stroke">
<g id="Google">
<path id="Vector" fill-rule="evenodd" clip-rule="evenodd" d="M5.17241 12.2213C5.17241 11.4418 5.30178 10.6945 5.53297 9.99359L1.4886 6.90527C0.700348 8.50559 0.256348 10.309 0.256348 12.2213C0.256348 14.1321 0.699973 15.9341 1.48691 17.5335L5.52904 14.4392C5.3001 13.7415 5.17241 12.997 5.17241 12.2213Z" fill="#FBBC05"/>
<path id="Vector_2" fill-rule="evenodd" clip-rule="evenodd" d="M12.2731 5.13032C13.9664 5.13032 15.4958 5.73032 16.6975 6.71207L20.1933 3.22119C18.0631 1.36663 15.332 0.221191 12.2731 0.221191C7.52409 0.221191 3.44259 2.93694 1.48828 6.90519L5.53247 9.9935C6.46434 7.16488 9.12066 5.13032 12.2731 5.13032Z" fill="#EA4335"/>
<path id="Vector_3" fill-rule="evenodd" clip-rule="evenodd" d="M12.2731 19.3119C9.12084 19.3119 6.46453 17.2774 5.53266 14.4487L1.48828 17.5365C3.44259 21.5053 7.52409 24.221 12.2731 24.221C15.2041 24.221 18.0025 23.1802 20.1027 21.2302L16.2638 18.2625C15.1807 18.9448 13.8166 19.3119 12.2731 19.3119Z" fill="#34A853"/>
<path id="Vector_4" fill-rule="evenodd" clip-rule="evenodd" d="M23.7436 12.2213C23.7436 11.5122 23.6343 10.7485 23.4704 10.0396H12.2729V14.6759H18.7184C18.3961 16.2567 17.519 17.4719 16.2637 18.2627L20.1026 21.2305C22.3087 19.183 23.7436 16.1327 23.7436 12.2213Z" fill="#4285F4"/>
</g>
</g>
</g>
<defs>
<clipPath id="clip0_668_76">
<rect width="24" height="24" fill="white" transform="translate(0 0.221191)"/>
</clipPath>
</defs>
</svg>
