<svg width="26" height="25" viewBox="0 0 26 25" fill="none" xmlns="http://www.w3.org/2000/svg">
<g id="_x37_4-outlook">
<g id="Group">
<g id="Group_2">
<path id="Vector" d="M25.1873 4.88916H13.8124C13.364 4.88916 13 5.25447 13 5.70413C13 6.15368 13.364 6.51866 13.8124 6.51866H22.8197L17.8279 10.4114L14.2478 8.12844L13.3769 9.50388L17.4392 12.0945C17.5709 12.1795 17.7236 12.2215 17.8748 12.2215C18.0503 12.2215 18.2275 12.1646 18.3739 12.0505L24.3749 7.36899V17.9245H13.8124C13.364 17.9245 13 18.2895 13 18.7388C13 19.1887 13.364 19.5538 13.8124 19.5538H25.1873C25.6359 19.5538 25.9999 19.1887 25.9999 18.7388V5.70407C25.9999 5.25447 25.636 4.88916 25.1873 4.88916Z" fill="#1B80E4"/>
<path id="Vector_2" d="M14.3309 0.188463C14.1455 0.0336746 13.8969 -0.0332315 13.663 0.0158584L0.663014 2.45973C0.277922 2.53176 0 2.86732 0 3.25993V21.1833C0 21.5743 0.277922 21.9114 0.663014 21.9835L13.663 24.4274C13.7116 24.4371 13.762 24.4422 13.8125 24.4422C14.0009 24.4422 14.1845 24.3769 14.3309 24.2545C14.5179 24.1 14.6248 23.8686 14.6248 23.6273V0.816008C14.6247 0.573119 14.5179 0.343306 14.3309 0.188463Z" fill="#2299F8"/>
<path id="Vector_3" d="M7.31248 17.925C5.07319 17.925 3.25 15.7318 3.25 13.0367C3.25 10.3418 5.07325 8.14844 7.31248 8.14844C9.55176 8.14844 11.3751 10.3418 11.3751 13.0367C11.3751 15.7318 9.55176 17.925 7.31248 17.925ZM7.31248 9.77799C5.96863 9.77799 4.87509 11.2395 4.87509 13.0367C4.87509 14.834 5.96863 16.2955 7.31248 16.2955C8.65637 16.2955 9.75025 14.834 9.75025 13.0367C9.75025 11.2395 8.65637 9.77799 7.31248 9.77799Z" fill="#FCFCFC"/>
</g>
</g>
</g>
</svg>
