<svg width="824" height="499" viewBox="0 0 824 499" fill="none" xmlns="http://www.w3.org/2000/svg">
<g clip-path="url(#clip0_680_36)">
<path d="M0 0H824V499H0V0Z" fill="#D7E4FF"/>
<path opacity="0.64" d="M1.84949 499H823.846V0H510.151C530.331 29.2844 562.7 48.0123 598.311 51.0068C694.536 61.2082 738.255 233.203 621.07 262.685C503.884 292.167 664.79 448.554 514.364 452.023C363.939 455.491 26.3039 410.35 0 485.024V494.715C0.469777 496.202 1.08941 497.637 1.84949 499V499Z" fill="#A5C5FF"/>
<path fill-rule="evenodd" clip-rule="evenodd" d="M121.344 166.639C121.4 207.857 155.041 241.257 196.556 241.313C238.083 241.285 271.741 207.869 271.769 166.639V125.834C271.769 84.5924 238.095 51.1597 196.556 51.1597C155.018 51.1597 121.344 84.5924 121.344 125.834V166.639ZM143.743 125.732C143.771 96.7845 167.4 73.325 196.556 73.2969C225.72 73.3249 249.364 96.7763 249.42 125.732V166.537C250.021 185.67 240.084 203.61 223.488 213.353C206.892 223.095 186.271 223.095 169.675 213.353C153.079 203.61 143.142 185.67 143.743 166.537V125.732Z" fill="#7387F9"/>
<path d="M196.556 241.313L196.551 245.293L196.559 245.293L196.556 241.313ZM121.344 166.639L117.364 166.639L117.364 166.645L121.344 166.639ZM271.769 166.639L275.749 166.642V166.639H271.769ZM121.344 125.834L117.364 125.834V125.834H121.344ZM196.556 73.2969L196.56 69.3174L196.552 69.3174L196.556 73.2969ZM143.743 125.732L139.763 125.728V125.732H143.743ZM249.42 125.732L253.4 125.732L253.4 125.724L249.42 125.732ZM249.42 166.537H245.441V166.6L245.443 166.662L249.42 166.537ZM143.743 166.537L147.72 166.662L147.722 166.6V166.537H143.743ZM196.562 237.334C157.213 237.28 125.377 205.631 125.323 166.634L117.364 166.645C117.424 210.083 152.869 245.234 196.551 245.293L196.562 237.334ZM267.79 166.636C267.763 205.644 235.912 237.307 196.554 237.334L196.559 245.293C240.255 245.263 275.719 210.094 275.749 166.642L267.79 166.636ZM267.79 125.834V166.639H275.749V125.834H267.79ZM196.556 55.1392C235.924 55.1392 267.79 86.8171 267.79 125.834H275.749C275.749 82.3676 240.266 47.1802 196.556 47.1802V55.1392ZM125.323 125.834C125.323 86.8171 157.188 55.1392 196.556 55.1392V47.1802C152.847 47.1802 117.364 82.3676 117.364 125.834L125.323 125.834ZM125.323 166.639V125.834H117.364V166.639H125.323ZM196.552 69.3174C165.228 69.3476 139.794 94.559 139.763 125.728L147.722 125.736C147.748 99.01 169.571 77.3024 196.56 77.2764L196.552 69.3174ZM253.4 125.724C253.339 94.5484 227.891 69.3475 196.56 69.3174L196.552 77.2764C223.55 77.3023 245.389 99.0041 245.441 125.74L253.4 125.724ZM253.4 166.537V125.732H245.441V166.537H253.4ZM225.503 216.784C243.346 206.309 254.045 187.01 253.398 166.412L245.443 166.662C245.998 184.33 236.822 200.91 221.473 209.921L225.503 216.784ZM167.66 216.784C185.5 227.257 207.663 227.257 225.503 216.784L221.473 209.921C206.122 218.933 187.041 218.933 171.69 209.921L167.66 216.784ZM139.765 166.412C139.118 187.01 149.817 206.309 167.66 216.784L171.69 209.921C156.341 200.91 147.165 184.33 147.72 166.662L139.765 166.412ZM139.763 125.732V166.537H147.722V125.732H139.763Z" fill="#1C1C1C"/>
<rect x="91.4932" y="168.628" width="214.592" height="236.672" rx="41.3164" fill="#196BFE" stroke="#1C1C1C" stroke-width="7.95897"/>
<path d="M225.581 264.165C225.574 251.433 216.489 240.489 203.904 238.049C191.319 235.609 178.755 242.355 173.923 254.148C169.091 265.941 173.344 279.479 184.071 286.455L175.697 336.492H221.934L213.56 286.455C221.084 281.502 225.6 273.128 225.581 264.165Z" fill="#1C1C1C" stroke="#1C1C1C" stroke-width="7.95897" stroke-linecap="round"/>
</g>
<defs>
<clipPath id="clip0_680_36">
<rect width="824" height="499" rx="20" fill="white"/>
</clipPath>
</defs>
</svg>
