<svg width="219" height="219" viewBox="0 0 219 219" fill="none" xmlns="http://www.w3.org/2000/svg">
<circle cx="109.424" cy="109.424" r="109.424" fill="#2F2F2F"/>
<path fill-rule="evenodd" clip-rule="evenodd" d="M61.6914 89.2938C61.6914 72.3611 75.418 58.6345 92.3507 58.6345C109.283 58.6345 123.01 72.3611 123.01 89.2938C123.01 106.226 109.283 119.953 92.3507 119.953C75.418 119.953 61.6914 106.226 61.6914 89.2938Z" fill="#196BFE"/>
<path d="M125.516 106.757C125.206 107.345 125.337 108.077 125.871 108.472C129.834 111.405 134.737 113.14 140.045 113.14C153.215 113.14 163.892 102.464 163.892 89.2939C163.892 76.124 153.215 65.4478 140.045 65.4478C134.737 65.4478 129.834 67.1824 125.871 70.1157C125.337 70.5108 125.206 71.2429 125.516 71.8303C128.268 77.0451 129.826 82.9876 129.826 89.2939C129.826 95.6002 128.268 101.543 125.516 106.757Z" fill="#196BFE"/>
<path fill-rule="evenodd" clip-rule="evenodd" d="M59.2433 131.53C67.6396 127.886 78.6562 126.766 92.3472 126.766C106.05 126.766 117.074 127.888 125.474 131.54C134.624 135.519 140.184 142.295 143.099 151.863C144.465 156.347 141.096 160.832 136.455 160.832H48.2527C43.6054 160.832 40.2299 156.341 41.6001 151.848C44.5187 142.279 50.088 135.504 59.2433 131.53Z" fill="#196BFE"/>
<path d="M128.585 120.201C125.764 120.376 125.599 124.166 128.191 125.293V125.293C135.293 128.381 140.641 132.927 144.476 138.73C147.623 143.492 152.51 147.206 158.217 147.206H170.349C175.167 147.206 178.683 142.418 176.987 137.741C176.89 137.472 176.789 137.205 176.684 136.939C174.351 131.049 170.352 126.712 164.431 123.948C158.872 121.353 151.914 120.282 143.715 119.958L143.581 119.953H143.446C138.617 119.953 133.573 119.891 128.585 120.201Z" fill="#196BFE"/>
</svg>
