<svg width="17" height="21" viewBox="0 0 17 21" fill="none" xmlns="http://www.w3.org/2000/svg">
<path fill-rule="evenodd" clip-rule="evenodd" d="M5.43417 0.500002H11.5658C12.4523 0.499953 13.2161 0.49991 13.8278 0.582145C14.4833 0.670277 15.1117 0.869022 15.6213 1.37868C16.131 1.88835 16.3297 2.5167 16.4179 3.17221C16.5001 3.78387 16.5001 4.54769 16.5 5.43417V15.5658C16.5001 16.4523 16.5001 17.2161 16.4179 17.8278C16.3297 18.4833 16.131 19.1117 15.6213 19.6213C15.1117 20.131 14.4833 20.3297 13.8278 20.4179C13.2161 20.5001 12.4523 20.5001 11.5658 20.5H5.4342C4.5477 20.5001 3.78388 20.5001 3.17221 20.4179C2.5167 20.3297 1.88835 20.131 1.37868 19.6213C0.869022 19.1117 0.670277 18.4833 0.582145 17.8278C0.49991 17.2161 0.499953 16.4523 0.500002 15.5658V5.43417C0.499953 4.54769 0.49991 3.78387 0.582145 3.17221C0.670277 2.5167 0.869022 1.88835 1.37868 1.37868C1.88835 0.869022 2.5167 0.670277 3.17221 0.582145C3.78387 0.49991 4.54769 0.499953 5.43417 0.500002ZM4.5 12.5C4.5 10.2909 6.29086 8.5 8.5 8.5C10.7091 8.5 12.5 10.2909 12.5 12.5C12.5 14.7091 10.7091 16.5 8.5 16.5C6.29086 16.5 4.5 14.7091 4.5 12.5ZM9.5 5.5C9.5 4.94772 9.05229 4.5 8.5 4.5C7.94772 4.5 7.5 4.94772 7.5 5.5V5.51123C7.5 6.06352 7.94772 6.51123 8.5 6.51123C9.05229 6.51123 9.5 6.06352 9.5 5.51123V5.5Z" fill="#323232"/>
</svg>
