<svg width="25" height="24" viewBox="0 0 25 24" fill="none" xmlns="http://www.w3.org/2000/svg">
<path fill-rule="evenodd" clip-rule="evenodd" d="M7.74988 4.66355C8.61961 3.36729 10.1227 2 12.4997 2C14.8766 2 16.3797 3.36729 17.2494 4.66355C18.107 5.94174 18.4249 7.2474 18.4707 7.44762C18.4771 7.47579 18.4818 7.49925 18.4849 7.51539L20.0196 15.4288C20.3787 17.2803 18.9605 19 17.0745 19H7.92479C6.03879 19 4.62059 17.2803 4.97967 15.4288L6.5144 7.51539C6.51753 7.49925 6.52216 7.47579 6.52861 7.44762C6.57442 7.2474 6.89226 5.94174 7.74988 4.66355Z" fill="#323232"/>
<path d="M9.01367 20C9.26564 20.4807 9.6515 20.9831 10.2365 21.3672C10.8463 21.7675 11.6131 22 12.5466 22C13.48 22 14.2468 21.7675 14.8566 21.3672C15.4416 20.9831 15.8275 20.4807 16.0795 20H9.01367Z" fill="#323232"/>
</svg>
