<svg width="20" height="18" viewBox="0 0 20 18" fill="none" xmlns="http://www.w3.org/2000/svg">
<path fill-rule="evenodd" clip-rule="evenodd" d="M3.41959 0.238662C4.23018 0.0585158 5.19557 0 6.312 0H7.92963C8.93269 0 9.86939 0.501304 10.4258 1.3359L11.2383 2.5547C11.4238 2.83288 11.736 3 12.0704 3H17.1258C18.7233 3 20.0181 4.26115 20.0029 5.8852C19.9847 7.81921 20 9.75391 20 11.688C20 12.8044 19.9415 13.7698 19.7613 14.5804C19.5787 15.4024 19.2579 16.1251 18.6915 16.6915C18.1251 17.2579 17.4024 17.5787 16.5804 17.7613C15.7698 17.9415 14.8044 18 13.688 18H6.312C5.19557 18 4.23018 17.9415 3.41959 17.7613C2.59764 17.5787 1.87488 17.2579 1.30848 16.6915C0.742086 16.1251 0.421333 15.4024 0.238662 14.5804C0.0585158 13.7698 0 12.8044 0 11.688V6.312C0 5.19557 0.0585158 4.23018 0.238662 3.41959C0.421333 2.59764 0.742086 1.87488 1.30848 1.30848C1.87488 0.742086 2.59764 0.421333 3.41959 0.238662ZM11 8C11 7.44772 10.5523 7 10 7C9.44772 7 9 7.44772 9 8V11.0858L8.20711 10.2929C7.81658 9.90237 7.18342 9.90237 6.79289 10.2929C6.40237 10.6834 6.40237 11.3166 6.79289 11.7071L9.23039 14.1446C9.24112 14.1553 9.25201 14.1658 9.26306 14.176C9.44585 14.3751 9.70835 14.5 10 14.5C10.2917 14.5 10.5541 14.3751 10.7369 14.176C10.748 14.1658 10.7589 14.1553 10.7696 14.1446L13.2071 11.7071C13.5976 11.3166 13.5976 10.6834 13.2071 10.2929C12.8166 9.90237 12.1834 9.90237 11.7929 10.2929L11 11.0858V8Z" fill="#323232"/>
</svg>
