<svg width="21" height="21" viewBox="0 0 21 21" fill="none" xmlns="http://www.w3.org/2000/svg">
<path fill-rule="evenodd" clip-rule="evenodd" d="M20.2071 0.792893C20.5976 1.18342 20.5976 1.81658 20.2071 2.20711L18.4142 4L19.2071 4.79289C20.1499 5.7357 20.1499 7.2643 19.2071 8.20711L18.2071 9.20711C17.2643 10.1499 15.7357 10.1499 14.7929 9.20711L14 8.41421L12.2489 10.1653C13.0356 11.2403 13.5 12.5659 13.5 14C13.5 17.5898 10.5899 20.5 7 20.5C3.41015 20.5 0.5 17.5899 0.5 14C0.5 10.4101 3.41015 7.5 7 7.5C8.4341 7.5 9.75973 7.96443 10.8347 8.7511L18.7929 0.792893C19.1834 0.402369 19.8166 0.402369 20.2071 0.792893Z" fill="#323232"/>
</svg>
