<svg width="21" height="17" viewBox="0 0 21 17" fill="none" xmlns="http://www.w3.org/2000/svg">
<path fill-rule="evenodd" clip-rule="evenodd" d="M4.46802 0.500001H16.532C16.9706 0.499988 17.3491 0.499977 17.6624 0.521351C17.9922 0.543855 18.3221 0.593359 18.6481 0.728363C19.3831 1.03284 19.9672 1.61687 20.2716 2.35195C20.4066 2.67788 20.4561 3.00779 20.4787 3.33762C20.5 3.65088 20.5 4.02936 20.5 4.46801V12.532C20.5 12.9706 20.5 13.3491 20.4787 13.6624C20.4561 13.9922 20.4066 14.3221 20.2716 14.6481C19.9672 15.3831 19.3831 15.9672 18.6481 16.2716C18.3221 16.4066 17.9922 16.4561 17.6624 16.4787C17.3491 16.5 16.9706 16.5 16.532 16.5H4.46801C4.02936 16.5 3.65088 16.5 3.33762 16.4787C3.00779 16.4561 2.67788 16.4066 2.35195 16.2716C1.61687 15.9672 1.03284 15.3831 0.728363 14.6481C0.593359 14.3221 0.543855 13.9922 0.521351 13.6624C0.499977 13.3491 0.499988 12.9706 0.500001 12.532V4.46802C0.499988 4.02937 0.499977 3.65088 0.521351 3.33762C0.543855 3.00779 0.593359 2.67788 0.728363 2.35195C1.03284 1.61687 1.61687 1.03284 2.35195 0.728363C2.67788 0.593359 3.00779 0.543855 3.33762 0.521351C3.65088 0.499977 4.02937 0.499988 4.46802 0.500001ZM2.81745 2.77777C3.18114 2.36214 3.8129 2.32002 4.22854 2.6837L9.8415 7.59504C10.2185 7.92494 10.7815 7.92494 11.1585 7.59504L16.7715 2.6837C17.1871 2.32002 17.8189 2.36214 18.1825 2.77777C18.5462 3.19341 18.5041 3.82517 18.0885 4.18885L12.4755 9.10019C11.3444 10.0899 9.65556 10.0899 8.52449 9.10019L2.91153 4.18885C2.49589 3.82517 2.45377 3.19341 2.81745 2.77777Z" fill="#323232"/>
</svg>
