<svg width="23" height="13" viewBox="0 0 23 13" fill="none" xmlns="http://www.w3.org/2000/svg">
<path d="M1.5 12.5V10.5H21.5V12.5H1.5ZM2.65 6.45L1.35 5.7L2.2 4.2H0.5V2.7H2.2L1.35 1.25L2.65 0.5L3.5 1.95L4.35 0.5L5.65 1.25L4.8 2.7H6.5V4.2H4.8L5.65 5.7L4.35 6.45L3.5 4.95L2.65 6.45ZM10.65 6.45L9.35 5.7L10.2 4.2H8.5V2.7H10.2L9.35 1.25L10.65 0.5L11.5 1.95L12.35 0.5L13.65 1.25L12.8 2.7H14.5V4.2H12.8L13.65 5.7L12.35 6.45L11.5 4.95L10.65 6.45ZM18.65 6.45L17.35 5.7L18.2 4.2H16.5V2.7H18.2L17.35 1.25L18.65 0.5L19.5 1.95L20.35 0.5L21.65 1.25L20.8 2.7H22.5V4.2H20.8L21.65 5.7L20.35 6.45L19.5 4.95L18.65 6.45Z" fill="black"/>
</svg>
