<svg width="21" height="18" viewBox="0 0 21 18" fill="none" xmlns="http://www.w3.org/2000/svg">
<path fill-rule="evenodd" clip-rule="evenodd" d="M9.20711 7.29289C8.81658 6.90237 8.18342 6.90237 7.79289 7.29289C7.40237 7.68342 7.40237 8.31658 7.79289 8.70711L9.58579 10.5L7.79289 12.2929C7.40237 12.6834 7.40237 13.3166 7.79289 13.7071C8.18342 14.0976 8.81658 14.0976 9.20711 13.7071L11 11.9142L12.7929 13.7071C13.1834 14.0976 13.8166 14.0976 14.2071 13.7071C14.5976 13.3166 14.5976 12.6834 14.2071 12.2929L12.4142 10.5L14.2071 8.70711C14.5976 8.31658 14.5976 7.68342 14.2071 7.29289C13.8166 6.90237 13.1834 6.90237 12.7929 7.29289L11 9.08579L9.20711 7.29289ZM3.91959 0.238662C4.73018 0.0585158 5.69557 0 6.812 0H8.42963C9.43269 0 10.3694 0.501304 10.9258 1.3359L11.7383 2.5547C11.9238 2.83288 12.236 3 12.5704 3H17.6258C19.2233 3 20.5181 4.26115 20.5029 5.8852C20.4847 7.81921 20.5 9.75391 20.5 11.688C20.5 12.8044 20.4415 13.7698 20.2613 14.5804C20.0787 15.4024 19.7579 16.1251 19.1915 16.6915C18.6251 17.2579 17.9024 17.5787 17.0804 17.7613C16.2698 17.9415 15.3044 18 14.188 18H6.812C5.69557 18 4.73018 17.9415 3.91959 17.7613C3.09764 17.5787 2.37488 17.2579 1.80848 16.6915C1.24209 16.1251 0.921333 15.4024 0.738662 14.5804C0.558516 13.7698 0.5 12.8044 0.5 11.688V6.312C0.5 5.19557 0.558516 4.23018 0.738662 3.41959C0.921333 2.59764 1.24209 1.87488 1.80848 1.30848C2.37488 0.742086 3.09764 0.421333 3.91959 0.238662Z" fill="#323232"/>
</svg>
