<svg width="21" height="24" viewBox="0 0 21 24" fill="none" xmlns="http://www.w3.org/2000/svg">
<path d="M16.3285 12C16.3285 10.3359 15.3113 8.91094 13.8676 8.31094L13.0988 10.1578C13.8207 10.4578 14.327 11.1703 14.327 12.0047C14.327 12.8344 13.8207 13.5469 13.0988 13.8516L13.8676 15.6984C15.3113 15.0891 16.3285 13.6641 16.3285 12ZM15.4051 4.61719L14.6363 6.46406C16.8066 7.36875 18.3301 9.50625 18.3301 12C18.3301 14.4984 16.8066 16.6313 14.6363 17.5359L15.4051 19.3828C18.2973 18.1781 20.327 15.3281 20.327 12C20.327 8.67188 18.2973 5.82188 15.4051 4.61719ZM0.330078 6.99844V16.9969H4.32852L11.327 24V0L4.32852 6.99844H0.330078Z" fill="black"/>
</svg>
