<svg width="25" height="24" viewBox="0 0 25 24" fill="none" xmlns="http://www.w3.org/2000/svg">
<rect width="24" height="24" transform="translate(0.5)" fill="white"/>
<path fill-rule="evenodd" clip-rule="evenodd" d="M11.5092 7.28671C12.4771 7.07162 13.639 7 15 7C16.361 7 17.5229 7.07162 18.4908 7.28671C19.4699 7.50433 20.3106 7.88186 20.9644 8.53561C21.6181 9.18936 21.9957 10.0301 22.2133 11.0092C22.4284 11.9771 22.5 13.139 22.5 14.5C22.5 15.861 22.4284 17.0229 22.2133 17.9908C21.9957 18.9699 21.6181 19.8106 20.9644 20.4644C20.3106 21.1181 19.4699 21.4957 18.4908 21.7133C17.5229 21.9284 16.361 22 15 22C13.639 22 12.4771 21.9284 11.5092 21.7133C10.5301 21.4957 9.68936 21.1181 9.03561 20.4644C8.38186 19.8106 8.00433 18.9699 7.78671 17.9908C7.57162 17.0229 7.5 15.861 7.5 14.5C7.5 13.139 7.57162 11.9771 7.78671 11.0092C8.00433 10.0301 8.38186 9.18936 9.03561 8.53561C9.68936 7.88186 10.5301 7.50433 11.5092 7.28671Z" fill="#323232"/>
<path d="M6.58776 16.7303C6.52331 16.0357 6.5 15.2899 6.5 14.5C6.5 13.116 6.57156 11.8676 6.81053 10.7923C7.05451 9.69447 7.49883 8.65819 8.32851 7.82851C9.15819 6.99883 10.1945 6.55451 11.2923 6.31053C12.3676 6.07156 13.616 6 15 6C15.7899 6 16.5357 6.02331 17.2303 6.08776C16.9704 4.86356 16.4749 3.87161 15.5472 3.17348C14.2659 2.20926 12.386 2 10 2C8.63899 2 7.47706 2.07162 6.50924 2.28671C5.53006 2.50433 4.68936 2.88186 4.03561 3.53561C3.38186 4.18936 3.00433 5.03006 2.78671 6.00924C2.57162 6.97706 2.5 8.13899 2.5 9.5C2.5 11.886 2.70926 13.7659 3.67348 15.0472C4.37161 15.9749 5.36356 16.4704 6.58776 16.7303Z" fill="#323232"/>
</svg>
