<svg width="24" height="25" viewBox="0 0 24 25" fill="none" xmlns="http://www.w3.org/2000/svg">
<rect width="24" height="24" transform="translate(0 0.5)" fill="white"/>
<path fill-rule="evenodd" clip-rule="evenodd" d="M5 10C5 7.51472 7.01472 5.5 9.5 5.5C11.9853 5.5 14 7.51472 14 10C14 12.4853 11.9853 14.5 9.5 14.5C7.01472 14.5 5 12.4853 5 10Z" fill="#323232"/>
<path fill-rule="evenodd" clip-rule="evenodd" d="M4.64066 16.1993C5.87302 15.6644 7.48997 15.5 9.49946 15.5C11.5107 15.5 13.1288 15.6647 14.3616 16.2008C15.7046 16.7847 16.5207 17.7793 16.9485 19.1836C17.149 19.8418 16.6546 20.5 15.9733 20.5H3.02752C2.34541 20.5 1.84997 19.8408 2.05108 19.1814C2.47945 17.7769 3.29689 16.7826 4.64066 16.1993Z" fill="#323232"/>
<path fill-rule="evenodd" clip-rule="evenodd" d="M14 4.5C14 3.94772 14.4477 3.5 15 3.5H21C21.5523 3.5 22 3.94772 22 4.5C22 5.05228 21.5523 5.5 21 5.5H15C14.4477 5.5 14 5.05228 14 4.5Z" fill="#323232"/>
</svg>
